  0
SECTION
  2
HEADER
  9
$ACADVER
  1
AC1014
  9
$HANDSEED
  5
FFFF
  9
$MEASUREMENT
 70
     1
  0
ENDSEC
  0
SECTION
  2
TABLES
  0
TABLE
  2
VPORT
  5
8
330
0
100
AcDbSymbolTable
 70
     4
  0
VPORT
  5
2E
330
8
100
AcDbSymbolTableRecord
100
AcDbViewportTableRecord
  2
*ACTIVE
 70
     0
 10
0.0
 20
0.0
 11
1.0
 21
1.0
 12
210.0
 22
148.5
 13
0.0
 23
0.0
 14
10.0
 24
10.0
 15
10.0
 25
10.0
 16
0.0
 26
0.0
 36
1.0
 17
0.0
 27
0.0
 37
0.0
 40
341.0
 41
1.24
 42
50.0
 43
0.0
 44
0.0
 50
0.0
 51
0.0
 71
     0
 72
   100
 73
     1
 74
     3
 75
     0
 76
     0
 77
     0
 78
     0
  0
ENDTAB
  0
TABLE
  2
LTYPE
  5
5
330
0
100
AcDbSymbolTable
 70
     1
  0
LTYPE
  5
14
330
5
100
AcDbSymbolTableRecord
100
AcDbLinetypeTableRecord
  2
BYBLOCK
 70
     0
  3

 72
    65
 73
     0
 40
0.0
  0
LTYPE
  5
15
330
5
100
AcDbSymbolTableRecord
100
AcDbLinetypeTableRecord
  2
BYLAYER
 70
     0
  3

 72
    65
 73
     0
 40
0.0
  0
LTYPE
  5
16
330
5
100
AcDbSymbolTableRecord
100
AcDbLinetypeTableRecord
  2
CONTINUOUS
 70
     0
  3
Solid line
 72
    65
 73
     0
 40
0.0
  0
ENDTAB
  0
TABLE
  2
LAYER
  5
2
100
AcDbSymbolTable
 70
1
  0
LAYER
  5
50
100
AcDbSymbolTableRecord
100
AcDbLayerTableRecord
  2
0
 70
0
  6
CONTINUOUS
  0
ENDTAB
  0
TABLE
  2
STYLE
  5
3
330
0
100
AcDbSymbolTable
 70
     1
  0
STYLE
  5
11
330
3
100
AcDbSymbolTableRecord
100
AcDbTextStyleTableRecord
  2
STANDARD
 70
     0
 40
0.0
 41
1.0
 50
0.0
 71
     0
 42
2.5
  3
txt
  4

  0
ENDTAB
  0
TABLE
  2
VIEW
  5
6
330
0
100
AcDbSymbolTable
 70
     0
  0
ENDTAB
  0
TABLE
  2
UCS
  5
7
330
0
100
AcDbSymbolTable
 70
     0
  0
ENDTAB
  0
TABLE
  2
APPID
  5
9
330
0
100
AcDbSymbolTable
 70
     2
  0
APPID
  5
12
330
9
100
AcDbSymbolTableRecord
100
AcDbRegAppTableRecord
  2
ACAD
 70
     0
  0
ENDTAB
  0
TABLE
  2
DIMSTYLE
  5
A
330
0
100
AcDbSymbolTable
 70
     1
  0
DIMSTYLE
105
27
330
A
100
AcDbSymbolTableRecord
100
AcDbDimStyleTableRecord
  2
ISO-25
 70
     0
  3

  4

  5

  6

  7

 40
1.0
 41
2.5
 42
0.625
 43
3.75
 44
1.25
 45
0.0
 46
0.0
 47
0.0
 48
0.0
140
2.5
141
2.5
142
0.0
143
0.03937007874016
144
1.0
145
0.0
146
1.0
147
0.625
 71
     0
 72
     0
 73
     0
 74
     0
 75
     0
 76
     0
 77
     1
 78
     8
170
     0
171
     3
172
     1
173
     0
174
     0
175
     0
176
     0
177
     0
178
     0
270
     2
271
     2
272
     2
273
     2
274
     3
340
11
275
     0
280
     0
281
     0
282
     0
283
     0
284
     8
285
     0
286
     0
287
     3
288
     0
  0
ENDTAB
  0
TABLE
  2
BLOCK_RECORD
  5
1
330
0
100
AcDbSymbolTable
 70
     1
  0
BLOCK_RECORD
  5
1F
330
1
100
AcDbSymbolTableRecord
100
AcDbBlockTableRecord
  2
*MODEL_SPACE
  0
BLOCK_RECORD
  5
1B
330
1
100
AcDbSymbolTableRecord
100
AcDbBlockTableRecord
  2
*PAPER_SPACE
  0
ENDTAB
  0
ENDSEC
  0
SECTION
  2
BLOCKS
  0
BLOCK
  5
20
330
1F
100
AcDbEntity
  8
0
100
AcDbBlockBegin
  2
*MODEL_SPACE
 70
     0
 10
0.0
 20
0.0
 30
0.0
  3
*MODEL_SPACE
  1

  0
ENDBLK
  5
21
330
1F
100
AcDbEntity
  8
0
100
AcDbBlockEnd
  0
BLOCK
  5
1C
330
1B
100
AcDbEntity
 67
     1
  8
0
100
AcDbBlockBegin
  2
*PAPER_SPACE
  1

  0
ENDBLK
  5
1D
330
1B
100
AcDbEntity
 67
     1
  8
0
100
AcDbBlockEnd
  0
ENDSEC
  0
SECTION
  2
ENTITIES
  0
SPLINE
  5
100
100
AcDbEntity
  8
0
 62
7
100
AcDbSpline
 70
8
 71
3
 72
8
 73
4
 74
0
 40
0
 40
0
 40
0
 40
0
 40
1
 40
1
 40
1
 40
1
 10
3794.257292
 20
-11247.928157
 30
0.0
 10
3794.257292
 20
-11359.573430
 30
0.0
 10
3734.695247
 20
-11462.737917
 30
0.0
 10
3638.007604
 20
-11518.560554
 30
0.0
  0
SPLINE
  5
101
100
AcDbEntity
  8
0
 62
7
100
AcDbSpline
 70
8
 71
3
 72
8
 73
4
 74
0
 40
0
 40
0
 40
0
 40
0
 40
1
 40
1
 40
1
 40
1
 10
3638.007604
 20
-11518.560554
 30
0.0
 10
3541.319961
 20
-11574.383191
 30
0.0
 10
3422.195872
 20
-11574.383191
 30
0.0
 10
3325.508229
 20
-11518.560554
 30
0.0
  0
SPLINE
  5
102
100
AcDbEntity
  8
0
 62
7
100
AcDbSpline
 70
8
 71
3
 72
8
 73
4
 74
0
 40
0
 40
0
 40
0
 40
0
 40
1
 40
1
 40
1
 40
1
 10
3325.508229
 20
-11518.560554
 30
0.0
 10
3228.820586
 20
-11462.737917
 30
0.0
 10
3169.258542
 20
-11359.573430
 30
0.0
 10
3169.258542
 20
-11247.928157
 30
0.0
  0
SPLINE
  5
103
100
AcDbEntity
  8
0
 62
7
100
AcDbSpline
 70
8
 71
3
 72
8
 73
4
 74
0
 40
0
 40
0
 40
0
 40
0
 40
1
 40
1
 40
1
 40
1
 10
3169.258542
 20
-11247.928157
 30
0.0
 10
3169.258549
 20
-11075.339523
 30
0.0
 10
3309.169283
 20
-10935.428795
 30
0.0
 10
3481.757917
 20
-10935.428795
 30
0.0
  0
SPLINE
  5
104
100
AcDbEntity
  8
0
 62
7
100
AcDbSpline
 70
8
 71
3
 72
8
 73
4
 74
0
 40
0
 40
0
 40
0
 40
0
 40
1
 40
1
 40
1
 40
1
 10
3481.757917
 20
-10935.428795
 30
0.0
 10
3654.346551
 20
-10935.428795
 30
0.0
 10
3794.257284
 20
-11075.339523
 30
0.0
 10
3794.257292
 20
-11247.928157
 30
0.0
  0
SPLINE
  5
105
100
AcDbEntity
  8
0
 62
7
100
AcDbSpline
 70
8
 71
3
 72
8
 73
4
 74
0
 40
0
 40
0
 40
0
 40
0
 40
1
 40
1
 40
1
 40
1
 10
2471.353907
 20
-11247.928157
 30
0.0
 10
2471.353907
 20
-11359.573430
 30
0.0
 10
2411.791863
 20
-11462.737917
 30
0.0
 10
2315.104220
 20
-11518.560554
 30
0.0
  0
SPLINE
  5
106
100
AcDbEntity
  8
0
 62
7
100
AcDbSpline
 70
8
 71
3
 72
8
 73
4
 74
0
 40
0
 40
0
 40
0
 40
0
 40
1
 40
1
 40
1
 40
1
 10
2315.104220
 20
-11518.560554
 30
0.0
 10
2218.416576
 20
-11574.383191
 30
0.0
 10
2099.292488
 20
-11574.383191
 30
0.0
 10
2002.604845
 20
-11518.560554
 30
0.0
  0
SPLINE
  5
107
100
AcDbEntity
  8
0
 62
7
100
AcDbSpline
 70
8
 71
3
 72
8
 73
4
 74
0
 40
0
 40
0
 40
0
 40
0
 40
1
 40
1
 40
1
 40
1
 10
2002.604845
 20
-11518.560554
 30
0.0
 10
1905.917201
 20
-11462.737917
 30
0.0
 10
1846.355157
 20
-11359.573430
 30
0.0
 10
1846.355157
 20
-11247.928157
 30
0.0
  0
SPLINE
  5
108
100
AcDbEntity
  8
0
 62
7
100
AcDbSpline
 70
8
 71
3
 72
8
 73
4
 74
0
 40
0
 40
0
 40
0
 40
0
 40
1
 40
1
 40
1
 40
1
 10
1846.355157
 20
-11247.928157
 30
0.0
 10
1846.355157
 20
-11136.282883
 30
0.0
 10
1905.917201
 20
-11033.118396
 30
0.0
 10
2002.604845
 20
-10977.295759
 30
0.0
  0
SPLINE
  5
109
100
AcDbEntity
  8
0
 62
7
100
AcDbSpline
 70
8
 71
3
 72
8
 73
4
 74
0
 40
0
 40
0
 40
0
 40
0
 40
1
 40
1
 40
1
 40
1
 10
2002.604845
 20
-10977.295759
 30
0.0
 10
2099.292488
 20
-10921.473122
 30
0.0
 10
2218.416576
 20
-10921.473122
 30
0.0
 10
2315.104220
 20
-10977.295759
 30
0.0
  0
SPLINE
  5
10a
100
AcDbEntity
  8
0
 62
7
100
AcDbSpline
 70
8
 71
3
 72
8
 73
4
 74
0
 40
0
 40
0
 40
0
 40
0
 40
1
 40
1
 40
1
 40
1
 10
2315.104220
 20
-10977.295759
 30
0.0
 10
2411.791863
 20
-11033.118396
 30
0.0
 10
2471.353907
 20
-11136.282883
 30
0.0
 10
2471.353907
 20
-11247.928157
 30
0.0
  0
LWPOLYLINE
  5
10b
100
AcDbEntity
  8
0
 62
7
100
AcDbPolyline
 90
1
 70
1
 10
3794.257292
 20
-11247.928157
 30
0.0
  0
SPLINE
  5
10c
100
AcDbEntity
  8
0
 62
7
100
AcDbSpline
 70
8
 71
3
 72
8
 73
4
 74
0
 40
0
 40
0
 40
0
 40
0
 40
1
 40
1
 40
1
 40
1
 10
1148.437188
 20
-11247.928152
 30
0.0
 10
1148.437188
 20
-11420.516790
 30
0.0
 10
1008.526453
 20
-11560.427526
 30
0.0
 10
835.937815
 20
-11560.427527
 30
0.0
  0
SPLINE
  5
10d
100
AcDbEntity
  8
0
 62
7
100
AcDbSpline
 70
8
 71
3
 72
8
 73
4
 74
0
 40
0
 40
0
 40
0
 40
0
 40
1
 40
1
 40
1
 40
1
 10
835.937815
 20
-11560.427527
 30
0.0
 10
663.349177
 20
-11560.427528
 30
0.0
 10
523.438440
 20
-11420.516795
 30
0.0
 10
523.438438
 20
-11247.928157
 30
0.0
  0
SPLINE
  5
10e
100
AcDbEntity
  8
0
 62
7
100
AcDbSpline
 70
8
 71
3
 72
8
 73
4
 74
0
 40
0
 40
0
 40
0
 40
0
 40
1
 40
1
 40
1
 40
1
 10
523.438438
 20
-11247.928157
 30
0.0
 10
523.438440
 20
-11075.339518
 30
0.0
 10
663.349177
 20
-10935.428785
 30
0.0
 10
835.937815
 20
-10935.428786
 30
0.0
  0
SPLINE
  5
10f
100
AcDbEntity
  8
0
 62
7
100
AcDbSpline
 70
8
 71
3
 72
8
 73
4
 74
0
 40
0
 40
0
 40
0
 40
0
 40
1
 40
1
 40
1
 40
1
 10
835.937815
 20
-10935.428786
 30
0.0
 10
1008.526453
 20
-10935.428788
 30
0.0
 10
1148.437188
 20
-11075.339523
 30
0.0
 10
1148.437188
 20
-11247.928161
 30
0.0
  0
LWPOLYLINE
  5
110
100
AcDbEntity
  8
0
 62
7
100
AcDbPolyline
 90
1
 70
1
 10
2471.353907
 20
-11247.928157
 30
0.0
  0
SPLINE
  5
111
100
AcDbEntity
  8
0
 62
7
100
AcDbSpline
 70
8
 71
3
 72
8
 73
4
 74
0
 40
0
 40
0
 40
0
 40
0
 40
1
 40
1
 40
1
 40
1
 10
3794.257292
 20
-9529.194823
 30
0.0
 10
3794.257292
 20
-9640.840097
 30
0.0
 10
3734.695247
 20
-9744.004584
 30
0.0
 10
3638.007604
 20
-9799.827221
 30
0.0
  0
SPLINE
  5
112
100
AcDbEntity
  8
0
 62
7
100
AcDbSpline
 70
8
 71
3
 72
8
 73
4
 74
0
 40
0
 40
0
 40
0
 40
0
 40
1
 40
1
 40
1
 40
1
 10
3638.007604
 20
-9799.827221
 30
0.0
 10
3541.319961
 20
-9855.649858
 30
0.0
 10
3422.195872
 20
-9855.649858
 30
0.0
 10
3325.508229
 20
-9799.827221
 30
0.0
  0
SPLINE
  5
113
100
AcDbEntity
  8
0
 62
7
100
AcDbSpline
 70
8
 71
3
 72
8
 73
4
 74
0
 40
0
 40
0
 40
0
 40
0
 40
1
 40
1
 40
1
 40
1
 10
3325.508229
 20
-9799.827221
 30
0.0
 10
3228.820586
 20
-9744.004584
 30
0.0
 10
3169.258542
 20
-9640.840097
 30
0.0
 10
3169.258542
 20
-9529.194823
 30
0.0
  0
SPLINE
  5
114
100
AcDbEntity
  8
0
 62
7
100
AcDbSpline
 70
8
 71
3
 72
8
 73
4
 74
0
 40
0
 40
0
 40
0
 40
0
 40
1
 40
1
 40
1
 40
1
 10
3169.258542
 20
-9529.194823
 30
0.0
 10
3169.258549
 20
-9356.606189
 30
0.0
 10
3309.169283
 20
-9216.695462
 30
0.0
 10
3481.757917
 20
-9216.695462
 30
0.0
  0
SPLINE
  5
115
100
AcDbEntity
  8
0
 62
7
100
AcDbSpline
 70
8
 71
3
 72
8
 73
4
 74
0
 40
0
 40
0
 40
0
 40
0
 40
1
 40
1
 40
1
 40
1
 10
3481.757917
 20
-9216.695462
 30
0.0
 10
3654.346551
 20
-9216.695462
 30
0.0
 10
3794.257284
 20
-9356.606189
 30
0.0
 10
3794.257292
 20
-9529.194823
 30
0.0
  0
LWPOLYLINE
  5
116
100
AcDbEntity
  8
0
 62
7
100
AcDbPolyline
 90
1
 70
1
 10
1148.437188
 20
-11247.928161
 30
0.0
  0
SPLINE
  5
117
100
AcDbEntity
  8
0
 62
7
100
AcDbSpline
 70
8
 71
3
 72
8
 73
4
 74
0
 40
0
 40
0
 40
0
 40
0
 40
1
 40
1
 40
1
 40
1
 10
2471.353907
 20
-9529.194823
 30
0.0
 10
2471.353907
 20
-9640.840097
 30
0.0
 10
2411.791863
 20
-9744.004584
 30
0.0
 10
2315.104220
 20
-9799.827221
 30
0.0
  0
SPLINE
  5
118
100
AcDbEntity
  8
0
 62
7
100
AcDbSpline
 70
8
 71
3
 72
8
 73
4
 74
0
 40
0
 40
0
 40
0
 40
0
 40
1
 40
1
 40
1
 40
1
 10
2315.104220
 20
-9799.827221
 30
0.0
 10
2218.416576
 20
-9855.649858
 30
0.0
 10
2099.292488
 20
-9855.649858
 30
0.0
 10
2002.604845
 20
-9799.827221
 30
0.0
  0
SPLINE
  5
119
100
AcDbEntity
  8
0
 62
7
100
AcDbSpline
 70
8
 71
3
 72
8
 73
4
 74
0
 40
0
 40
0
 40
0
 40
0
 40
1
 40
1
 40
1
 40
1
 10
2002.604845
 20
-9799.827221
 30
0.0
 10
1905.917201
 20
-9744.004584
 30
0.0
 10
1846.355157
 20
-9640.840097
 30
0.0
 10
1846.355157
 20
-9529.194823
 30
0.0
  0
SPLINE
  5
11a
100
AcDbEntity
  8
0
 62
7
100
AcDbSpline
 70
8
 71
3
 72
8
 73
4
 74
0
 40
0
 40
0
 40
0
 40
0
 40
1
 40
1
 40
1
 40
1
 10
1846.355157
 20
-9529.194823
 30
0.0
 10
1846.355157
 20
-9417.549550
 30
0.0
 10
1905.917201
 20
-9314.385063
 30
0.0
 10
2002.604845
 20
-9258.562426
 30
0.0
  0
SPLINE
  5
11b
100
AcDbEntity
  8
0
 62
7
100
AcDbSpline
 70
8
 71
3
 72
8
 73
4
 74
0
 40
0
 40
0
 40
0
 40
0
 40
1
 40
1
 40
1
 40
1
 10
2002.604845
 20
-9258.562426
 30
0.0
 10
2099.292488
 20
-9202.739789
 30
0.0
 10
2218.416576
 20
-9202.739789
 30
0.0
 10
2315.104220
 20
-9258.562426
 30
0.0
  0
SPLINE
  5
11c
100
AcDbEntity
  8
0
 62
7
100
AcDbSpline
 70
8
 71
3
 72
8
 73
4
 74
0
 40
0
 40
0
 40
0
 40
0
 40
1
 40
1
 40
1
 40
1
 10
2315.104220
 20
-9258.562426
 30
0.0
 10
2411.791863
 20
-9314.385063
 30
0.0
 10
2471.353907
 20
-9417.549550
 30
0.0
 10
2471.353907
 20
-9529.194823
 30
0.0
  0
LWPOLYLINE
  5
11d
100
AcDbEntity
  8
0
 62
7
100
AcDbPolyline
 90
1
 70
1
 10
3794.257292
 20
-9529.194823
 30
0.0
  0
SPLINE
  5
11e
100
AcDbEntity
  8
0
 62
7
100
AcDbSpline
 70
8
 71
3
 72
8
 73
4
 74
0
 40
0
 40
0
 40
0
 40
0
 40
1
 40
1
 40
1
 40
1
 10
1148.437188
 20
-9529.194819
 30
0.0
 10
1148.437188
 20
-9701.783457
 30
0.0
 10
1008.526453
 20
-9841.694192
 30
0.0
 10
835.937815
 20
-9841.694194
 30
0.0
  0
SPLINE
  5
11f
100
AcDbEntity
  8
0
 62
7
100
AcDbSpline
 70
8
 71
3
 72
8
 73
4
 74
0
 40
0
 40
0
 40
0
 40
0
 40
1
 40
1
 40
1
 40
1
 10
835.937815
 20
-9841.694194
 30
0.0
 10
663.349177
 20
-9841.694195
 30
0.0
 10
523.438440
 20
-9701.783462
 30
0.0
 10
523.438438
 20
-9529.194823
 30
0.0
  0
SPLINE
  5
120
100
AcDbEntity
  8
0
 62
7
100
AcDbSpline
 70
8
 71
3
 72
8
 73
4
 74
0
 40
0
 40
0
 40
0
 40
0
 40
1
 40
1
 40
1
 40
1
 10
523.438438
 20
-9529.194823
 30
0.0
 10
523.438440
 20
-9356.606185
 30
0.0
 10
663.349177
 20
-9216.695452
 30
0.0
 10
835.937815
 20
-9216.695453
 30
0.0
  0
SPLINE
  5
121
100
AcDbEntity
  8
0
 62
7
100
AcDbSpline
 70
8
 71
3
 72
8
 73
4
 74
0
 40
0
 40
0
 40
0
 40
0
 40
1
 40
1
 40
1
 40
1
 10
835.937815
 20
-9216.695453
 30
0.0
 10
1008.526453
 20
-9216.695454
 30
0.0
 10
1148.437188
 20
-9356.606190
 30
0.0
 10
1148.437188
 20
-9529.194828
 30
0.0
  0
LWPOLYLINE
  5
122
100
AcDbEntity
  8
0
 62
7
100
AcDbPolyline
 90
1
 70
1
 10
2471.353907
 20
-9529.194823
 30
0.0
  0
SPLINE
  5
123
100
AcDbEntity
  8
0
 62
7
100
AcDbSpline
 70
8
 71
3
 72
8
 73
4
 74
0
 40
0
 40
0
 40
0
 40
0
 40
1
 40
1
 40
1
 40
1
 10
3690.104062
 20
-7691.690032
 30
0.0
 10
3690.104062
 20
-7859.157942
 30
0.0
 10
3600.760996
 20
-8013.904673
 30
0.0
 10
3455.729531
 20
-8097.638628
 30
0.0
  0
SPLINE
  5
124
100
AcDbEntity
  8
0
 62
7
100
AcDbSpline
 70
8
 71
3
 72
8
 73
4
 74
0
 40
0
 40
0
 40
0
 40
0
 40
1
 40
1
 40
1
 40
1
 10
3455.729531
 20
-8097.638628
 30
0.0
 10
3310.698067
 20
-8181.372583
 30
0.0
 10
3132.011933
 20
-8181.372583
 30
0.0
 10
2986.980469
 20
-8097.638628
 30
0.0
  0
SPLINE
  5
125
100
AcDbEntity
  8
0
 62
7
100
AcDbSpline
 70
8
 71
3
 72
8
 73
4
 74
0
 40
0
 40
0
 40
0
 40
0
 40
1
 40
1
 40
1
 40
1
 10
2986.980469
 20
-8097.638628
 30
0.0
 10
2841.949004
 20
-8013.904673
 30
0.0
 10
2752.605937
 20
-7859.157942
 30
0.0
 10
2752.605937
 20
-7691.690032
 30
0.0
  0
SPLINE
  5
126
100
AcDbEntity
  8
0
 62
7
100
AcDbSpline
 70
8
 71
3
 72
8
 73
4
 74
0
 40
0
 40
0
 40
0
 40
0
 40
1
 40
1
 40
1
 40
1
 10
2752.605937
 20
-7691.690032
 30
0.0
 10
2752.605937
 20
-7524.222121
 30
0.0
 10
2841.949004
 20
-7369.475391
 30
0.0
 10
2986.980469
 20
-7285.741436
 30
0.0
  0
SPLINE
  5
127
100
AcDbEntity
  8
0
 62
7
100
AcDbSpline
 70
8
 71
3
 72
8
 73
4
 74
0
 40
0
 40
0
 40
0
 40
0
 40
1
 40
1
 40
1
 40
1
 10
2986.980469
 20
-7285.741436
 30
0.0
 10
3132.011933
 20
-7202.007480
 30
0.0
 10
3310.698067
 20
-7202.007480
 30
0.0
 10
3455.729531
 20
-7285.741436
 30
0.0
  0
SPLINE
  5
128
100
AcDbEntity
  8
0
 62
7
100
AcDbSpline
 70
8
 71
3
 72
8
 73
4
 74
0
 40
0
 40
0
 40
0
 40
0
 40
1
 40
1
 40
1
 40
1
 10
3455.729531
 20
-7285.741436
 30
0.0
 10
3600.760996
 20
-7369.475391
 30
0.0
 10
3690.104062
 20
-7524.222121
 30
0.0
 10
3690.104062
 20
-7691.690032
 30
0.0
  0
LWPOLYLINE
  5
129
100
AcDbEntity
  8
0
 62
7
100
AcDbPolyline
 90
1
 70
1
 10
1148.437188
 20
-9529.194828
 30
0.0
  0
SPLINE
  5
12a
100
AcDbEntity
  8
0
 62
7
100
AcDbSpline
 70
8
 71
3
 72
8
 73
4
 74
0
 40
0
 40
0
 40
0
 40
0
 40
1
 40
1
 40
1
 40
1
 10
1440.103271
 20
-7691.690025
 30
0.0
 10
1440.103271
 20
-7950.572982
 30
0.0
 10
1230.237169
 20
-8160.439085
 30
0.0
 10
971.354212
 20
-8160.439087
 30
0.0
  0
SPLINE
  5
12b
100
AcDbEntity
  8
0
 62
7
100
AcDbSpline
 70
8
 71
3
 72
8
 73
4
 74
0
 40
0
 40
0
 40
0
 40
0
 40
1
 40
1
 40
1
 40
1
 10
971.354212
 20
-8160.439087
 30
0.0
 10
712.471254
 20
-8160.439089
 30
0.0
 10
502.605150
 20
-7950.572989
 30
0.0
 10
502.605146
 20
-7691.690032
 30
0.0
  0
SPLINE
  5
12c
100
AcDbEntity
  8
0
 62
7
100
AcDbSpline
 70
8
 71
3
 72
8
 73
4
 74
0
 40
0
 40
0
 40
0
 40
0
 40
1
 40
1
 40
1
 40
1
 10
502.605146
 20
-7691.690032
 30
0.0
 10
502.605146
 20
-7524.222121
 30
0.0
 10
591.948212
 20
-7369.475391
 30
0.0
 10
736.979677
 20
-7285.741436
 30
0.0
  0
SPLINE
  5
12d
100
AcDbEntity
  8
0
 62
7
100
AcDbSpline
 70
8
 71
3
 72
8
 73
4
 74
0
 40
0
 40
0
 40
0
 40
0
 40
1
 40
1
 40
1
 40
1
 10
736.979677
 20
-7285.741436
 30
0.0
 10
882.011142
 20
-7202.007480
 30
0.0
 10
1060.697275
 20
-7202.007480
 30
0.0
 10
1205.728740
 20
-7285.741436
 30
0.0
  0
SPLINE
  5
12e
100
AcDbEntity
  8
0
 62
7
100
AcDbSpline
 70
8
 71
3
 72
8
 73
4
 74
0
 40
0
 40
0
 40
0
 40
0
 40
1
 40
1
 40
1
 40
1
 10
1205.728740
 20
-7285.741436
 30
0.0
 10
1350.760204
 20
-7369.475391
 30
0.0
 10
1440.103271
 20
-7524.222121
 30
0.0
 10
1440.103271
 20
-7691.690032
 30
0.0
  0
LWPOLYLINE
  5
12f
100
AcDbEntity
  8
0
 62
7
100
AcDbPolyline
 90
1
 70
1
 10
3690.104062
 20
-7691.690032
 30
0.0
  0
SPLINE
  5
130
100
AcDbEntity
  8
0
 62
7
100
AcDbSpline
 70
8
 71
3
 72
8
 73
4
 74
0
 40
0
 40
0
 40
0
 40
0
 40
1
 40
1
 40
1
 40
1
 10
3690.104062
 20
-4847.948365
 30
0.0
 10
3690.104062
 20
-5015.416275
 30
0.0
 10
3600.760996
 20
-5170.163006
 30
0.0
 10
3455.729531
 20
-5253.896961
 30
0.0
  0
SPLINE
  5
131
100
AcDbEntity
  8
0
 62
7
100
AcDbSpline
 70
8
 71
3
 72
8
 73
4
 74
0
 40
0
 40
0
 40
0
 40
0
 40
1
 40
1
 40
1
 40
1
 10
3455.729531
 20
-5253.896961
 30
0.0
 10
3310.698067
 20
-5337.630916
 30
0.0
 10
3132.011933
 20
-5337.630916
 30
0.0
 10
2986.980469
 20
-5253.896961
 30
0.0
  0
SPLINE
  5
132
100
AcDbEntity
  8
0
 62
7
100
AcDbSpline
 70
8
 71
3
 72
8
 73
4
 74
0
 40
0
 40
0
 40
0
 40
0
 40
1
 40
1
 40
1
 40
1
 10
2986.980469
 20
-5253.896961
 30
0.0
 10
2841.949004
 20
-5170.163006
 30
0.0
 10
2752.605937
 20
-5015.416275
 30
0.0
 10
2752.605937
 20
-4847.948365
 30
0.0
  0
SPLINE
  5
133
100
AcDbEntity
  8
0
 62
7
100
AcDbSpline
 70
8
 71
3
 72
8
 73
4
 74
0
 40
0
 40
0
 40
0
 40
0
 40
1
 40
1
 40
1
 40
1
 10
2752.605937
 20
-4847.948365
 30
0.0
 10
2752.605937
 20
-4680.480455
 30
0.0
 10
2841.949004
 20
-4525.733724
 30
0.0
 10
2986.980469
 20
-4441.999769
 30
0.0
  0
SPLINE
  5
134
100
AcDbEntity
  8
0
 62
7
100
AcDbSpline
 70
8
 71
3
 72
8
 73
4
 74
0
 40
0
 40
0
 40
0
 40
0
 40
1
 40
1
 40
1
 40
1
 10
2986.980469
 20
-4441.999769
 30
0.0
 10
3132.011933
 20
-4358.265814
 30
0.0
 10
3310.698067
 20
-4358.265814
 30
0.0
 10
3455.729531
 20
-4441.999769
 30
0.0
  0
SPLINE
  5
135
100
AcDbEntity
  8
0
 62
7
100
AcDbSpline
 70
8
 71
3
 72
8
 73
4
 74
0
 40
0
 40
0
 40
0
 40
0
 40
1
 40
1
 40
1
 40
1
 10
3455.729531
 20
-4441.999769
 30
0.0
 10
3600.760996
 20
-4525.733724
 30
0.0
 10
3690.104062
 20
-4680.480455
 30
0.0
 10
3690.104062
 20
-4847.948365
 30
0.0
  0
LWPOLYLINE
  5
136
100
AcDbEntity
  8
0
 62
7
100
AcDbPolyline
 90
1
 70
1
 10
1440.103271
 20
-7691.690032
 30
0.0
  0
SPLINE
  5
137
100
AcDbEntity
  8
0
 62
7
100
AcDbSpline
 70
8
 71
3
 72
8
 73
4
 74
0
 40
0
 40
0
 40
0
 40
0
 40
1
 40
1
 40
1
 40
1
 10
1440.103271
 20
-4847.948358
 30
0.0
 10
1440.103271
 20
-5106.831315
 30
0.0
 10
1230.237169
 20
-5316.697419
 30
0.0
 10
971.354212
 20
-5316.697421
 30
0.0
  0
SPLINE
  5
138
100
AcDbEntity
  8
0
 62
7
100
AcDbSpline
 70
8
 71
3
 72
8
 73
4
 74
0
 40
0
 40
0
 40
0
 40
0
 40
1
 40
1
 40
1
 40
1
 10
971.354212
 20
-5316.697421
 30
0.0
 10
712.471254
 20
-5316.697422
 30
0.0
 10
502.605150
 20
-5106.831322
 30
0.0
 10
502.605146
 20
-4847.948365
 30
0.0
  0
SPLINE
  5
139
100
AcDbEntity
  8
0
 62
7
100
AcDbSpline
 70
8
 71
3
 72
8
 73
4
 74
0
 40
0
 40
0
 40
0
 40
0
 40
1
 40
1
 40
1
 40
1
 10
502.605146
 20
-4847.948365
 30
0.0
 10
502.605146
 20
-4680.480455
 30
0.0
 10
591.948212
 20
-4525.733724
 30
0.0
 10
736.979677
 20
-4441.999769
 30
0.0
  0
SPLINE
  5
13a
100
AcDbEntity
  8
0
 62
7
100
AcDbSpline
 70
8
 71
3
 72
8
 73
4
 74
0
 40
0
 40
0
 40
0
 40
0
 40
1
 40
1
 40
1
 40
1
 10
736.979677
 20
-4441.999769
 30
0.0
 10
882.011142
 20
-4358.265814
 30
0.0
 10
1060.697275
 20
-4358.265814
 30
0.0
 10
1205.728740
 20
-4441.999769
 30
0.0
  0
SPLINE
  5
13b
100
AcDbEntity
  8
0
 62
7
100
AcDbSpline
 70
8
 71
3
 72
8
 73
4
 74
0
 40
0
 40
0
 40
0
 40
0
 40
1
 40
1
 40
1
 40
1
 10
1205.728740
 20
-4441.999769
 30
0.0
 10
1350.760204
 20
-4525.733724
 30
0.0
 10
1440.103271
 20
-4680.480455
 30
0.0
 10
1440.103271
 20
-4847.948365
 30
0.0
  0
LWPOLYLINE
  5
13c
100
AcDbEntity
  8
0
 62
7
100
AcDbPolyline
 90
1
 70
1
 10
3690.104062
 20
-4847.948365
 30
0.0
  0
SPLINE
  5
13d
100
AcDbEntity
  8
0
 62
7
100
AcDbSpline
 70
8
 71
3
 72
8
 73
4
 74
0
 40
0
 40
0
 40
0
 40
0
 40
1
 40
1
 40
1
 40
1
 10
3690.104062
 20
-2004.185532
 30
0.0
 10
3690.104062
 20
-2171.653442
 30
0.0
 10
3600.760996
 20
-2326.400173
 30
0.0
 10
3455.729531
 20
-2410.134128
 30
0.0
  0
SPLINE
  5
13e
100
AcDbEntity
  8
0
 62
7
100
AcDbSpline
 70
8
 71
3
 72
8
 73
4
 74
0
 40
0
 40
0
 40
0
 40
0
 40
1
 40
1
 40
1
 40
1
 10
3455.729531
 20
-2410.134128
 30
0.0
 10
3310.698067
 20
-2493.868083
 30
0.0
 10
3132.011933
 20
-2493.868083
 30
0.0
 10
2986.980469
 20
-2410.134128
 30
0.0
  0
SPLINE
  5
13f
100
AcDbEntity
  8
0
 62
7
100
AcDbSpline
 70
8
 71
3
 72
8
 73
4
 74
0
 40
0
 40
0
 40
0
 40
0
 40
1
 40
1
 40
1
 40
1
 10
2986.980469
 20
-2410.134128
 30
0.0
 10
2841.949004
 20
-2326.400173
 30
0.0
 10
2752.605937
 20
-2171.653442
 30
0.0
 10
2752.605937
 20
-2004.185532
 30
0.0
  0
SPLINE
  5
140
100
AcDbEntity
  8
0
 62
7
100
AcDbSpline
 70
8
 71
3
 72
8
 73
4
 74
0
 40
0
 40
0
 40
0
 40
0
 40
1
 40
1
 40
1
 40
1
 10
2752.605937
 20
-2004.185532
 30
0.0
 10
2752.605937
 20
-1836.717621
 30
0.0
 10
2841.949004
 20
-1681.970891
 30
0.0
 10
2986.980469
 20
-1598.236936
 30
0.0
  0
SPLINE
  5
141
100
AcDbEntity
  8
0
 62
7
100
AcDbSpline
 70
8
 71
3
 72
8
 73
4
 74
0
 40
0
 40
0
 40
0
 40
0
 40
1
 40
1
 40
1
 40
1
 10
2986.980469
 20
-1598.236936
 30
0.0
 10
3132.011933
 20
-1514.502980
 30
0.0
 10
3310.698067
 20
-1514.502980
 30
0.0
 10
3455.729531
 20
-1598.236936
 30
0.0
  0
SPLINE
  5
142
100
AcDbEntity
  8
0
 62
7
100
AcDbSpline
 70
8
 71
3
 72
8
 73
4
 74
0
 40
0
 40
0
 40
0
 40
0
 40
1
 40
1
 40
1
 40
1
 10
3455.729531
 20
-1598.236936
 30
0.0
 10
3600.760996
 20
-1681.970891
 30
0.0
 10
3690.104062
 20
-1836.717621
 30
0.0
 10
3690.104062
 20
-2004.185532
 30
0.0
  0
LWPOLYLINE
  5
143
100
AcDbEntity
  8
0
 62
7
100
AcDbPolyline
 90
1
 70
1
 10
1440.103271
 20
-4847.948365
 30
0.0
  0
SPLINE
  5
144
100
AcDbEntity
  8
0
 62
7
100
AcDbSpline
 70
8
 71
3
 72
8
 73
4
 74
0
 40
0
 40
0
 40
0
 40
0
 40
1
 40
1
 40
1
 40
1
 10
1440.103271
 20
-2004.185525
 30
0.0
 10
1440.103271
 20
-2263.068482
 30
0.0
 10
1230.237169
 20
-2472.934585
 30
0.0
 10
971.354212
 20
-2472.934587
 30
0.0
  0
SPLINE
  5
145
100
AcDbEntity
  8
0
 62
7
100
AcDbSpline
 70
8
 71
3
 72
8
 73
4
 74
0
 40
0
 40
0
 40
0
 40
0
 40
1
 40
1
 40
1
 40
1
 10
971.354212
 20
-2472.934587
 30
0.0
 10
712.471254
 20
-2472.934589
 30
0.0
 10
502.605150
 20
-2263.068489
 30
0.0
 10
502.605146
 20
-2004.185532
 30
0.0
  0
SPLINE
  5
146
100
AcDbEntity
  8
0
 62
7
100
AcDbSpline
 70
8
 71
3
 72
8
 73
4
 74
0
 40
0
 40
0
 40
0
 40
0
 40
1
 40
1
 40
1
 40
1
 10
502.605146
 20
-2004.185532
 30
0.0
 10
502.605146
 20
-1836.717621
 30
0.0
 10
591.948212
 20
-1681.970891
 30
0.0
 10
736.979677
 20
-1598.236936
 30
0.0
  0
SPLINE
  5
147
100
AcDbEntity
  8
0
 62
7
100
AcDbSpline
 70
8
 71
3
 72
8
 73
4
 74
0
 40
0
 40
0
 40
0
 40
0
 40
1
 40
1
 40
1
 40
1
 10
736.979677
 20
-1598.236936
 30
0.0
 10
882.011142
 20
-1514.502980
 30
0.0
 10
1060.697275
 20
-1514.502980
 30
0.0
 10
1205.728740
 20
-1598.236936
 30
0.0
  0
SPLINE
  5
148
100
AcDbEntity
  8
0
 62
7
100
AcDbSpline
 70
8
 71
3
 72
8
 73
4
 74
0
 40
0
 40
0
 40
0
 40
0
 40
1
 40
1
 40
1
 40
1
 10
1205.728740
 20
-1598.236936
 30
0.0
 10
1350.760204
 20
-1681.970891
 30
0.0
 10
1440.103271
 20
-1836.717621
 30
0.0
 10
1440.103271
 20
-2004.185532
 30
0.0
  0
LWPOLYLINE
  5
149
100
AcDbEntity
  8
0
 62
7
100
AcDbPolyline
 90
1
 70
1
 10
3690.104062
 20
-2004.185532
 30
0.0
  0
SPLINE
  5
14a
100
AcDbEntity
  8
0
 62
7
100
AcDbSpline
 70
8
 71
3
 72
8
 73
4
 74
0
 40
0
 40
0
 40
0
 40
0
 40
1
 40
1
 40
1
 40
1
 10
997.397146
 20
-12952.109407
 30
0.0
 10
997.394077
 20
-12860.063226
 30
0.0
 10
922.774347
 20
-12785.447050
 30
0.0
 10
830.728167
 20
-12785.448365
 30
0.0
  0
LWPOLYLINE
  5
14b
100
AcDbEntity
  8
0
 62
7
100
AcDbPolyline
 90
1
 70
1
 10
1440.103271
 20
-2004.185532
 30
0.0
  0
SPLINE
  5
14c
100
AcDbEntity
  8
0
 62
7
100
AcDbSpline
 70
8
 71
3
 72
8
 73
4
 74
0
 40
0
 40
0
 40
0
 40
0
 40
1
 40
1
 40
1
 40
1
 10
726.561708
 20
-12785.448365
 30
0.0
 10
634.516561
 20
-12785.448511
 30
0.0
 10
559.898444
 20
-12860.064260
 30
0.0
 10
559.895375
 20
-12952.109407
 30
0.0
  0
SPLINE
  5
14d
100
AcDbEntity
  8
0
 62
7
100
AcDbSpline
 70
8
 71
3
 72
8
 73
4
 74
0
 40
0
 40
0
 40
0
 40
0
 40
1
 40
1
 40
1
 40
1
 10
559.895375
 20
-12952.109407
 30
0.0
 10
559.898444
 20
-13044.154554
 30
0.0
 10
634.516561
 20
-13118.770302
 30
0.0
 10
726.561708
 20
-13118.770448
 30
0.0
  0
LWPOLYLINE
  5
14e
100
AcDbEntity
  8
0
 62
7
100
AcDbPolyline
 90
2
 70
0
 10
726.545833
 20
-12785.421907
 30
0.0
 10
830.527083
 20
-12785.421907
 30
0.0
  0
SPLINE
  5
14f
100
AcDbEntity
  8
0
 62
7
100
AcDbSpline
 70
8
 71
3
 72
8
 73
4
 74
0
 40
0
 40
0
 40
0
 40
0
 40
1
 40
1
 40
1
 40
1
 10
830.728167
 20
-13118.770448
 30
0.0
 10
922.774347
 20
-13118.771763
 30
0.0
 10
997.394077
 20
-13044.155587
 30
0.0
 10
997.397146
 20
-12952.109407
 30
0.0
  0
SPLINE
  5
150
100
AcDbEntity
  8
0
 62
7
100
AcDbSpline
 70
8
 71
3
 72
8
 73
4
 74
0
 40
0
 40
0
 40
0
 40
0
 40
1
 40
1
 40
1
 40
1
 10
726.561708
 20
-25.019913
 30
0.0
 10
634.514391
 20
-25.020059
 30
0.0
 10
559.895375
 20
-99.639194
 30
0.0
 10
559.895375
 20
-191.686511
 30
0.0
  0
SPLINE
  5
151
100
AcDbEntity
  8
0
 62
7
100
AcDbSpline
 70
8
 71
3
 72
8
 73
4
 74
0
 40
0
 40
0
 40
0
 40
0
 40
1
 40
1
 40
1
 40
1
 10
830.728167
 20
-358.352844
 30
0.0
 10
874.931263
 20
-358.353476
 30
0.0
 10
917.324136
 20
-340.794325
 30
0.0
 10
948.580694
 20
-309.538263
 30
0.0
  0
SPLINE
  5
152
100
AcDbEntity
  8
0
 62
7
100
AcDbSpline
 70
8
 71
3
 72
8
 73
4
 74
0
 40
0
 40
0
 40
0
 40
0
 40
1
 40
1
 40
1
 40
1
 10
948.580694
 20
-309.538263
 30
0.0
 10
979.837252
 20
-278.282202
 30
0.0
 10
997.397076
 20
-235.889608
 30
0.0
 10
997.397146
 20
-191.686511
 30
0.0
  0
SPLINE
  5
153
100
AcDbEntity
  8
0
 62
7
100
AcDbSpline
 70
8
 71
3
 72
8
 73
4
 74
0
 40
0
 40
0
 40
0
 40
0
 40
1
 40
1
 40
1
 40
1
 10
997.397146
 20
-191.686511
 30
0.0
 10
997.397146
 20
-147.483368
 30
0.0
 10
979.837353
 20
-105.090706
 30
0.0
 10
948.580788
 20
-73.834587
 30
0.0
  0
SPLINE
  5
154
100
AcDbEntity
  8
0
 62
7
100
AcDbSpline
 70
8
 71
3
 72
8
 73
4
 74
0
 40
0
 40
0
 40
0
 40
0
 40
1
 40
1
 40
1
 40
1
 10
948.580788
 20
-73.834587
 30
0.0
 10
917.324222
 20
-42.578469
 30
0.0
 10
874.931309
 20
-25.019281
 30
0.0
 10
830.728167
 20
-25.019913
 30
0.0
  0
SPLINE
  5
155
100
AcDbEntity
  8
0
 62
7
100
AcDbSpline
 70
8
 71
3
 72
8
 73
4
 74
0
 40
0
 40
0
 40
0
 40
0
 40
1
 40
1
 40
1
 40
1
 10
559.895375
 20
-191.686511
 30
0.0
 10
559.895521
 20
-283.733725
 30
0.0
 10
634.514495
 20
-358.352698
 30
0.0
 10
726.561708
 20
-358.352844
 30
0.0
  0
LWPOLYLINE
  5
156
100
AcDbEntity
  8
0
 62
7
100
AcDbPolyline
 90
2
 70
0
 10
726.545833
 20
-13118.532323
 30
0.0
 10
830.527083
 20
-13118.532323
 30
0.0
  0
LWPOLYLINE
  5
157
100
AcDbEntity
  8
0
 62
7
100
AcDbPolyline
 90
2
 70
0
 10
726.545833
 20
-358.207323
 30
0.0
 10
830.527083
 20
-358.207323
 30
0.0
  0
LWPOLYLINE
  5
158
100
AcDbEntity
  8
0
 62
7
100
AcDbPolyline
 90
2
 70
0
 10
726.545833
 20
-24.832323
 30
0.0
 10
830.527083
 20
-24.832323
 30
0.0
  0
LWPOLYLINE
  5
159
100
AcDbEntity
  8
0
 62
7
100
AcDbPolyline
 90
2
 70
0
 10
4195.233333
 20
120.953093
 30
0.0
 10
7.672917
 20
120.953093
 30
0.0
  0
LWPOLYLINE
  5
15a
100
AcDbEntity
  8
0
 62
7
100
AcDbPolyline
 90
2
 70
0
 10
4205.552083
 20
-13264.582323
 30
0.0
 10
4205.552083
 20
120.953093
 30
0.0
  0
LWPOLYLINE
  5
15b
100
AcDbEntity
  8
0
 62
7
100
AcDbPolyline
 90
2
 70
0
 10
7.672917
 20
-13264.582323
 30
0.0
 10
4205.552083
 20
-13264.582323
 30
0.0
  0
LWPOLYLINE
  5
15c
100
AcDbEntity
  8
0
 62
7
100
AcDbPolyline
 90
2
 70
0
 10
7.672917
 20
120.953093
 30
0.0
 10
7.672917
 20
-13264.582323
 30
0.0
  0
ENDSEC
  0
SECTION
  2
OBJECTS
  0
DICTIONARY
  5
C
330
0
100
AcDbDictionary
  3
ACAD_GROUP
350
D
  3
ACAD_MLINESTYLE
350
17
  0
DICTIONARY
  5
D
330
C
100
AcDbDictionary
  0
DICTIONARY
  5
1A
330
C
100
AcDbDictionary
  0
DICTIONARY
  5
17
330
C
100
AcDbDictionary
  3
STANDARD
350
18
  0
DICTIONARY
  5
19
330
C
100
AcDbDictionary
  0
ENDSEC
  0
EOF
