<?xml version="1.0" standalone="no"?>
 <!DOCTYPE svg PUBLIC "-//W3C//DTD SVG 1.1//EN" 
 "http://www.w3.org/Graphics/SVG/1.1/DTD/svg11.dtd"> 
<svg xmlns="http://www.w3.org/2000/svg" version="1.1" 
    width="4.04368cm" height="12.8626cm" viewBox="0 0 15920 50640 ">
<title>SVG Picture created as Yusynth 4072 VCF Panel-Edge.Cuts.svg date 2017/12/10 22:39:38 </title>
  <desc>Picture generated by PCBNEW </desc>
<g style="fill:#000000; fill-opacity:1;stroke:#000000; stroke-opacity:1;
stroke-linecap:round; stroke-linejoin:round; "
 transform="translate(0 0) scale(1 1)">
</g>
<g style="fill:#C2C200; fill-opacity:0.0; 
stroke:#C2C200; stroke-width:-0.000393701; stroke-opacity:1; 
stroke-linecap:round; stroke-linejoin:round;">
</g>
<g style="fill:#C2C200; fill-opacity:0.0; 
stroke:#C2C200; stroke-width:59.0551; stroke-opacity:1; 
stroke-linecap:round; stroke-linejoin:round;">
<circle cx="13159.4" cy="42998" r="1181.1" /> 
<circle cx="8159.45" cy="42998" r="1181.1" /> 
<circle cx="3159.45" cy="42998" r="1181.1" /> 
<circle cx="13159.4" cy="36502" r="1181.1" /> 
<circle cx="8159.45" cy="36502" r="1181.1" /> 
<circle cx="3159.45" cy="36502" r="1181.1" /> 
<circle cx="12175.2" cy="29557.1" r="1771.65" /> 
<circle cx="3671.26" cy="29557.1" r="1771.65" /> 
<circle cx="12175.2" cy="18809.1" r="1771.65" /> 
<circle cx="3671.26" cy="18809.1" r="1771.65" /> 
<circle cx="12175.2" cy="8061.02" r="1771.65" /> 
<circle cx="3671.26" cy="8061.02" r="1771.65" /> 
<path d="M3769.69 49439 A629.921 629.921 0.0 0 0 3139.76 48809.1 " />
<path d="M2746 48809
L3139 48809
" />
<path d="M2746.06 48809.1 A629.921 629.921 0.0 0 0 2116.14 49439 " />
<path d="M2116.14 49439 A629.921 629.921 0.0 0 0 2746.06 50068.9 " />
<path d="M2746 50068
L3139 50068
" />
<path d="M3139.76 50068.9 A629.921 629.921 0.0 0 0 3769.69 49439 " />
<path d="M2746.06 580.709 A629.921 629.921 0.0 0 0 2116.14 1210.63 " />
<path d="M3139.76 1840.55 A629.921 629.921 0.0 0 0 3769.69 1210.63 " />
<path d="M3769.69 1210.63 A629.921 629.921 0.0 0 0 3139.76 580.709 " />
<path d="M2116.14 1210.63 A629.921 629.921 0.0 0 0 2746.06 1840.55 " />
<path d="M2746 1840
L3139 1840
" />
<path d="M2746 580
L3139 580
" />
<path d="M15856 29
L29 29
" />
<path d="M15895 50620
L15895 29
" />
<path d="M29 50620
L15895 50620
" />
<path d="M29 29
L29 50620
" />
</g> 
</svg>
