G04 #@! TF.FileFunction,Soldermask,Top*
%FSLAX46Y46*%
G04 Gerber Fmt 4.6, Leading zero omitted, Abs format (unit mm)*
G04 Created by KiCad (PCBNEW 4.0.6) date Tuesday, December 12, 2017 'AMt' 12:19:16 AM*
%MOMM*%
%LPD*%
G01*
G04 APERTURE LIST*
%ADD10C,0.100000*%
%ADD11C,1.000000*%
%ADD12R,1.200000X1.150000*%
%ADD13R,2.000000X3.400000*%
%ADD14R,2.900000X1.400000*%
%ADD15R,0.900000X1.300000*%
%ADD16R,1.300000X0.900000*%
%ADD17C,1.840000*%
%ADD18R,1.543000X0.908000*%
%ADD19R,2.100000X2.100000*%
%ADD20O,2.100000X2.100000*%
%ADD21C,2.000000*%
%ADD22C,2.200000*%
%ADD23C,4.400000*%
%ADD24R,1.300000X1.600000*%
%ADD25R,1.050000X0.800000*%
G04 APERTURE END LIST*
D10*
D11*
X175387000Y-68072000D03*
X172720000Y-118110000D03*
X168910000Y-137160000D03*
X169545000Y-109220000D03*
X169545000Y-127635000D03*
X180340000Y-109220000D03*
D12*
X175145000Y-86995000D03*
X176645000Y-86995000D03*
X172835000Y-86995000D03*
X171335000Y-86995000D03*
D13*
X177165000Y-70825000D03*
X177165000Y-75225000D03*
X171450000Y-70825000D03*
X171450000Y-75225000D03*
D14*
X186690000Y-159860000D03*
X186690000Y-151560000D03*
X186690000Y-148460000D03*
X173990000Y-159860000D03*
X173990000Y-151560000D03*
X173990000Y-148460000D03*
X161290000Y-143350000D03*
X161290000Y-135050000D03*
X161290000Y-131950000D03*
X186690000Y-143350000D03*
X186690000Y-135050000D03*
X186690000Y-131950000D03*
X173990000Y-143350000D03*
X173990000Y-135050000D03*
X173990000Y-131950000D03*
X161290000Y-159860000D03*
X161290000Y-151560000D03*
X161290000Y-148460000D03*
D15*
X158635000Y-114935000D03*
X160135000Y-114935000D03*
X163080000Y-123190000D03*
X164580000Y-123190000D03*
X184670000Y-125095000D03*
X186170000Y-125095000D03*
X156730000Y-135890000D03*
X158230000Y-135890000D03*
D16*
X168275000Y-111240000D03*
X168275000Y-109740000D03*
X168275000Y-105930000D03*
X168275000Y-107430000D03*
D15*
X168160000Y-133985000D03*
X169660000Y-133985000D03*
X164580000Y-118110000D03*
X163080000Y-118110000D03*
D16*
X164465000Y-105930000D03*
X164465000Y-107430000D03*
D15*
X158230000Y-142240000D03*
X156730000Y-142240000D03*
X160540000Y-146050000D03*
X162040000Y-146050000D03*
X156730000Y-138430000D03*
X158230000Y-138430000D03*
D16*
X164465000Y-109740000D03*
X164465000Y-111240000D03*
D15*
X156730000Y-130175000D03*
X158230000Y-130175000D03*
X191885000Y-133985000D03*
X190385000Y-133985000D03*
D16*
X163830000Y-70600000D03*
X163830000Y-69100000D03*
D15*
X190385000Y-137160000D03*
X191885000Y-137160000D03*
X168160000Y-130810000D03*
X169660000Y-130810000D03*
X182130000Y-106680000D03*
X183630000Y-106680000D03*
X183630000Y-109855000D03*
X182130000Y-109855000D03*
X156730000Y-147320000D03*
X158230000Y-147320000D03*
X183630000Y-113665000D03*
X182130000Y-113665000D03*
X165620000Y-148590000D03*
X167120000Y-148590000D03*
X191885000Y-139700000D03*
X190385000Y-139700000D03*
X182130000Y-102870000D03*
X183630000Y-102870000D03*
X180860000Y-148590000D03*
X182360000Y-148590000D03*
X180860000Y-141605000D03*
X182360000Y-141605000D03*
X177050000Y-102870000D03*
X178550000Y-102870000D03*
X169430000Y-148590000D03*
X170930000Y-148590000D03*
D16*
X177800000Y-137910000D03*
X177800000Y-136410000D03*
D15*
X187440000Y-146050000D03*
X185940000Y-146050000D03*
X190385000Y-146050000D03*
X191885000Y-146050000D03*
D16*
X177800000Y-134735000D03*
X177800000Y-133235000D03*
D15*
X173240000Y-141170000D03*
X174740000Y-141170000D03*
D17*
X175260000Y-120650000D03*
X175260000Y-123190000D03*
X175260000Y-125730000D03*
X167640000Y-160020000D03*
X167640000Y-157480000D03*
X167640000Y-154940000D03*
D18*
X171958000Y-106680000D03*
X171958000Y-107950000D03*
X171958000Y-109220000D03*
X171958000Y-110490000D03*
X171958000Y-111760000D03*
X171958000Y-113030000D03*
X171958000Y-114300000D03*
X178308000Y-114300000D03*
X178308000Y-113030000D03*
X178308000Y-110490000D03*
X178308000Y-109220000D03*
X178308000Y-107950000D03*
X178308000Y-106680000D03*
X178308000Y-111760000D03*
X164338000Y-137160000D03*
X164338000Y-138430000D03*
X164338000Y-139700000D03*
X164338000Y-140970000D03*
X164338000Y-142240000D03*
X164338000Y-143510000D03*
X164338000Y-144780000D03*
X170688000Y-144780000D03*
X170688000Y-143510000D03*
X170688000Y-140970000D03*
X170688000Y-139700000D03*
X170688000Y-138430000D03*
X170688000Y-137160000D03*
X170688000Y-142240000D03*
D19*
X170180000Y-82550000D03*
D20*
X170180000Y-80010000D03*
X172720000Y-82550000D03*
X172720000Y-80010000D03*
X175260000Y-82550000D03*
X175260000Y-80010000D03*
X177800000Y-82550000D03*
X177800000Y-80010000D03*
X180340000Y-82550000D03*
X180340000Y-80010000D03*
D21*
X159385000Y-104775000D03*
X159385000Y-109775000D03*
X158750000Y-78740000D03*
X158750000Y-83740000D03*
X191135000Y-109855000D03*
X191135000Y-104855000D03*
X190500000Y-78740000D03*
X190500000Y-83740000D03*
D15*
X174740000Y-102870000D03*
X173240000Y-102870000D03*
D22*
X187920000Y-128270000D03*
X185420000Y-128270000D03*
X182920000Y-128270000D03*
D23*
X190170000Y-120770000D03*
X180670000Y-120770000D03*
D22*
X166290000Y-128270000D03*
X163790000Y-128270000D03*
X161290000Y-128270000D03*
D23*
X168540000Y-120770000D03*
X159040000Y-120770000D03*
D22*
X187880000Y-73660000D03*
X185380000Y-73660000D03*
X182880000Y-73660000D03*
D23*
X190130000Y-66160000D03*
X180630000Y-66160000D03*
D22*
X187880000Y-100965000D03*
X185380000Y-100965000D03*
X182880000Y-100965000D03*
D23*
X190130000Y-93465000D03*
X180630000Y-93465000D03*
D22*
X166290000Y-100965000D03*
X163790000Y-100965000D03*
X161290000Y-100965000D03*
D23*
X168540000Y-93465000D03*
X159040000Y-93465000D03*
D22*
X166290000Y-73660000D03*
X163790000Y-73660000D03*
X161290000Y-73660000D03*
D23*
X168540000Y-66160000D03*
X159040000Y-66160000D03*
D11*
X182245000Y-105410000D03*
D24*
X182625000Y-86995000D03*
X179325000Y-86995000D03*
X165990000Y-86995000D03*
X169290000Y-86995000D03*
D25*
X180660000Y-136510000D03*
X180660000Y-137810000D03*
X182560000Y-137160000D03*
X180660000Y-137160000D03*
X182560000Y-137810000D03*
X182560000Y-136510000D03*
X180660000Y-144130000D03*
X180660000Y-145430000D03*
X182560000Y-144780000D03*
X180660000Y-144780000D03*
X182560000Y-145430000D03*
X182560000Y-144130000D03*
X180660000Y-131430000D03*
X180660000Y-132730000D03*
X182560000Y-132080000D03*
X180660000Y-132080000D03*
X182560000Y-132730000D03*
X182560000Y-131430000D03*
X159705000Y-140320000D03*
X159705000Y-141620000D03*
X161605000Y-140970000D03*
X159705000Y-140970000D03*
X161605000Y-141620000D03*
X161605000Y-140320000D03*
X164150000Y-132700000D03*
X164150000Y-134000000D03*
X166050000Y-133350000D03*
X164150000Y-133350000D03*
X166050000Y-134000000D03*
X166050000Y-132700000D03*
X163515000Y-114285000D03*
X163515000Y-115585000D03*
X165415000Y-114935000D03*
X163515000Y-114935000D03*
X165415000Y-115585000D03*
X165415000Y-114285000D03*
M02*
