G04 #@! TF.FileFunction,Copper,L1,Top,Signal*
%FSLAX46Y46*%
G04 Gerber Fmt 4.6, Leading zero omitted, Abs format (unit mm)*
G04 Created by KiCad (PCBNEW 4.0.6) date Tuesday, December 12, 2017 'AMt' 12:19:16 AM*
%MOMM*%
%LPD*%
G01*
G04 APERTURE LIST*
%ADD10C,0.100000*%
%ADD11C,0.600000*%
%ADD12R,0.800000X0.750000*%
%ADD13R,1.600000X3.000000*%
%ADD14R,2.500000X1.000000*%
%ADD15R,0.500000X0.900000*%
%ADD16R,0.900000X0.500000*%
%ADD17C,1.440000*%
%ADD18R,1.143000X0.508000*%
%ADD19R,1.700000X1.700000*%
%ADD20O,1.700000X1.700000*%
%ADD21C,1.600000*%
%ADD22C,1.800000*%
%ADD23C,4.000000*%
%ADD24R,0.900000X1.200000*%
%ADD25R,0.650000X0.400000*%
%ADD26C,0.250000*%
%ADD27C,0.254000*%
G04 APERTURE END LIST*
D10*
D11*
X175387000Y-68072000D03*
X172720000Y-118110000D03*
X168910000Y-137160000D03*
X169545000Y-109220000D03*
X169545000Y-127635000D03*
X180340000Y-109220000D03*
D12*
X175145000Y-86995000D03*
X176645000Y-86995000D03*
X172835000Y-86995000D03*
X171335000Y-86995000D03*
D13*
X177165000Y-70825000D03*
X177165000Y-75225000D03*
X171450000Y-70825000D03*
X171450000Y-75225000D03*
D14*
X186690000Y-159860000D03*
X186690000Y-151560000D03*
X186690000Y-148460000D03*
X173990000Y-159860000D03*
X173990000Y-151560000D03*
X173990000Y-148460000D03*
X161290000Y-143350000D03*
X161290000Y-135050000D03*
X161290000Y-131950000D03*
X186690000Y-143350000D03*
X186690000Y-135050000D03*
X186690000Y-131950000D03*
X173990000Y-143350000D03*
X173990000Y-135050000D03*
X173990000Y-131950000D03*
X161290000Y-159860000D03*
X161290000Y-151560000D03*
X161290000Y-148460000D03*
D15*
X158635000Y-114935000D03*
X160135000Y-114935000D03*
X163080000Y-123190000D03*
X164580000Y-123190000D03*
X184670000Y-125095000D03*
X186170000Y-125095000D03*
X156730000Y-135890000D03*
X158230000Y-135890000D03*
D16*
X168275000Y-111240000D03*
X168275000Y-109740000D03*
X168275000Y-105930000D03*
X168275000Y-107430000D03*
D15*
X168160000Y-133985000D03*
X169660000Y-133985000D03*
X164580000Y-118110000D03*
X163080000Y-118110000D03*
D16*
X164465000Y-105930000D03*
X164465000Y-107430000D03*
D15*
X158230000Y-142240000D03*
X156730000Y-142240000D03*
X160540000Y-146050000D03*
X162040000Y-146050000D03*
X156730000Y-138430000D03*
X158230000Y-138430000D03*
D16*
X164465000Y-109740000D03*
X164465000Y-111240000D03*
D15*
X156730000Y-130175000D03*
X158230000Y-130175000D03*
X191885000Y-133985000D03*
X190385000Y-133985000D03*
D16*
X163830000Y-70600000D03*
X163830000Y-69100000D03*
D15*
X190385000Y-137160000D03*
X191885000Y-137160000D03*
X168160000Y-130810000D03*
X169660000Y-130810000D03*
X182130000Y-106680000D03*
X183630000Y-106680000D03*
X183630000Y-109855000D03*
X182130000Y-109855000D03*
X156730000Y-147320000D03*
X158230000Y-147320000D03*
X183630000Y-113665000D03*
X182130000Y-113665000D03*
X165620000Y-148590000D03*
X167120000Y-148590000D03*
X191885000Y-139700000D03*
X190385000Y-139700000D03*
X182130000Y-102870000D03*
X183630000Y-102870000D03*
X180860000Y-148590000D03*
X182360000Y-148590000D03*
X180860000Y-141605000D03*
X182360000Y-141605000D03*
X177050000Y-102870000D03*
X178550000Y-102870000D03*
X169430000Y-148590000D03*
X170930000Y-148590000D03*
D16*
X177800000Y-137910000D03*
X177800000Y-136410000D03*
D15*
X187440000Y-146050000D03*
X185940000Y-146050000D03*
X190385000Y-146050000D03*
X191885000Y-146050000D03*
D16*
X177800000Y-134735000D03*
X177800000Y-133235000D03*
D15*
X173240000Y-141170000D03*
X174740000Y-141170000D03*
D17*
X175260000Y-120650000D03*
X175260000Y-123190000D03*
X175260000Y-125730000D03*
X167640000Y-160020000D03*
X167640000Y-157480000D03*
X167640000Y-154940000D03*
D18*
X171958000Y-106680000D03*
X171958000Y-107950000D03*
X171958000Y-109220000D03*
X171958000Y-110490000D03*
X171958000Y-111760000D03*
X171958000Y-113030000D03*
X171958000Y-114300000D03*
X178308000Y-114300000D03*
X178308000Y-113030000D03*
X178308000Y-110490000D03*
X178308000Y-109220000D03*
X178308000Y-107950000D03*
X178308000Y-106680000D03*
X178308000Y-111760000D03*
X164338000Y-137160000D03*
X164338000Y-138430000D03*
X164338000Y-139700000D03*
X164338000Y-140970000D03*
X164338000Y-142240000D03*
X164338000Y-143510000D03*
X164338000Y-144780000D03*
X170688000Y-144780000D03*
X170688000Y-143510000D03*
X170688000Y-140970000D03*
X170688000Y-139700000D03*
X170688000Y-138430000D03*
X170688000Y-137160000D03*
X170688000Y-142240000D03*
D19*
X170180000Y-82550000D03*
D20*
X170180000Y-80010000D03*
X172720000Y-82550000D03*
X172720000Y-80010000D03*
X175260000Y-82550000D03*
X175260000Y-80010000D03*
X177800000Y-82550000D03*
X177800000Y-80010000D03*
X180340000Y-82550000D03*
X180340000Y-80010000D03*
D21*
X159385000Y-104775000D03*
X159385000Y-109775000D03*
X158750000Y-78740000D03*
X158750000Y-83740000D03*
X191135000Y-109855000D03*
X191135000Y-104855000D03*
X190500000Y-78740000D03*
X190500000Y-83740000D03*
D15*
X174740000Y-102870000D03*
X173240000Y-102870000D03*
D22*
X187920000Y-128270000D03*
X185420000Y-128270000D03*
X182920000Y-128270000D03*
D23*
X190170000Y-120770000D03*
X180670000Y-120770000D03*
D22*
X166290000Y-128270000D03*
X163790000Y-128270000D03*
X161290000Y-128270000D03*
D23*
X168540000Y-120770000D03*
X159040000Y-120770000D03*
D22*
X187880000Y-73660000D03*
X185380000Y-73660000D03*
X182880000Y-73660000D03*
D23*
X190130000Y-66160000D03*
X180630000Y-66160000D03*
D22*
X187880000Y-100965000D03*
X185380000Y-100965000D03*
X182880000Y-100965000D03*
D23*
X190130000Y-93465000D03*
X180630000Y-93465000D03*
D22*
X166290000Y-100965000D03*
X163790000Y-100965000D03*
X161290000Y-100965000D03*
D23*
X168540000Y-93465000D03*
X159040000Y-93465000D03*
D22*
X166290000Y-73660000D03*
X163790000Y-73660000D03*
X161290000Y-73660000D03*
D23*
X168540000Y-66160000D03*
X159040000Y-66160000D03*
D11*
X182245000Y-105410000D03*
D24*
X182625000Y-86995000D03*
X179325000Y-86995000D03*
X165990000Y-86995000D03*
X169290000Y-86995000D03*
D25*
X180660000Y-136510000D03*
X180660000Y-137810000D03*
X182560000Y-137160000D03*
X180660000Y-137160000D03*
X182560000Y-137810000D03*
X182560000Y-136510000D03*
X180660000Y-144130000D03*
X180660000Y-145430000D03*
X182560000Y-144780000D03*
X180660000Y-144780000D03*
X182560000Y-145430000D03*
X182560000Y-144130000D03*
X180660000Y-131430000D03*
X180660000Y-132730000D03*
X182560000Y-132080000D03*
X180660000Y-132080000D03*
X182560000Y-132730000D03*
X182560000Y-131430000D03*
X159705000Y-140320000D03*
X159705000Y-141620000D03*
X161605000Y-140970000D03*
X159705000Y-140970000D03*
X161605000Y-141620000D03*
X161605000Y-140320000D03*
X164150000Y-132700000D03*
X164150000Y-134000000D03*
X166050000Y-133350000D03*
X164150000Y-133350000D03*
X166050000Y-134000000D03*
X166050000Y-132700000D03*
X163515000Y-114285000D03*
X163515000Y-115585000D03*
X165415000Y-114935000D03*
X163515000Y-114935000D03*
X165415000Y-115585000D03*
X165415000Y-114285000D03*
D11*
X159385000Y-139619960D03*
X165735000Y-142240000D03*
X161309989Y-133400011D03*
X163830000Y-135890000D03*
X158750000Y-127000008D03*
X163195000Y-131445000D03*
X179070000Y-84074002D03*
X164465000Y-146050000D03*
X176530002Y-110490000D03*
X165727930Y-111251828D03*
X164465000Y-86360000D03*
X159385000Y-146050000D03*
X179705000Y-132715000D03*
X178983710Y-130819990D03*
X176755007Y-129411093D03*
X158092516Y-125854345D03*
X173089978Y-109220000D03*
X176760002Y-109220000D03*
X188722000Y-109474000D03*
X175260000Y-77724000D03*
X184150000Y-112395000D03*
X187960000Y-111125000D03*
X185904719Y-94359571D03*
X181551546Y-126941546D03*
X176530000Y-138430000D03*
X176849997Y-135255000D03*
X171956055Y-149566504D03*
X172085000Y-143510000D03*
X185166000Y-120904000D03*
X179705000Y-146050000D03*
X183212947Y-120066730D03*
X172466000Y-140833010D03*
X185927998Y-119634000D03*
X179749346Y-135451531D03*
X180548366Y-133932988D03*
X179465000Y-138430000D03*
X171450000Y-129286000D03*
X169752660Y-129159208D03*
X163350023Y-125730000D03*
X165100000Y-130175000D03*
X193040008Y-112776000D03*
X167364988Y-150109989D03*
X165849449Y-118224449D03*
X172720000Y-133985000D03*
X170815000Y-114935000D03*
X183515000Y-141605000D03*
X188061950Y-141503050D03*
X167005000Y-125730000D03*
X173089978Y-107445082D03*
X164689903Y-108989996D03*
X184785000Y-109220000D03*
X162550010Y-125730000D03*
X158115000Y-137159976D03*
X158115000Y-140969994D03*
X157480000Y-149860000D03*
X157480008Y-140335000D03*
X180975000Y-102235000D03*
X180975000Y-103505000D03*
X180975000Y-109855000D03*
X182880000Y-111125000D03*
X162560000Y-133858000D03*
X167660000Y-133285000D03*
X159089989Y-142750551D03*
X173089978Y-111759996D03*
X169300825Y-132541927D03*
X158895005Y-131935000D03*
X158115000Y-144780000D03*
X177165000Y-114935000D03*
X179705000Y-141605000D03*
X179705000Y-144780000D03*
X179705000Y-106680000D03*
X177165000Y-140970000D03*
X178435000Y-139065000D03*
X169781577Y-131902477D03*
X165735000Y-138430000D03*
X179070000Y-136525000D03*
X172720000Y-136525000D03*
X159299569Y-133223463D03*
X160020000Y-125095000D03*
D26*
X172657910Y-142113000D02*
X172561955Y-142208955D01*
X159385000Y-104775000D02*
X156714999Y-107445001D01*
X156714999Y-107445001D02*
X156714999Y-123551824D01*
X156714999Y-123551824D02*
X158717518Y-125554343D01*
X158717518Y-125554343D02*
X158717518Y-126154347D01*
X158717518Y-126154347D02*
X158392518Y-126479347D01*
X156730000Y-127622412D02*
X156730000Y-130175000D01*
X158392518Y-126479347D02*
X157873065Y-126479347D01*
X157873065Y-126479347D02*
X156730000Y-127622412D01*
X157719960Y-139619960D02*
X159385000Y-139619960D01*
X156730000Y-138430000D02*
X156730000Y-138630000D01*
X156730000Y-138630000D02*
X157719960Y-139619960D01*
X164338000Y-142240000D02*
X165735000Y-142240000D01*
X156845000Y-130175000D02*
X156730000Y-130175000D01*
X156730000Y-138430000D02*
X156730000Y-137730000D01*
X156730000Y-137730000D02*
X156154999Y-137154999D01*
X156154999Y-137154999D02*
X156154999Y-131450001D01*
X156154999Y-131450001D02*
X156730000Y-130875000D01*
X156730000Y-130875000D02*
X156730000Y-130175000D01*
X161934999Y-132775001D02*
X161609988Y-133100012D01*
X161609988Y-133100012D02*
X161309989Y-133400011D01*
X163195000Y-131445000D02*
X163195000Y-132380002D01*
X163195000Y-132380002D02*
X162800001Y-132775001D01*
X162800001Y-132775001D02*
X161934999Y-132775001D01*
X164150000Y-135570000D02*
X163830000Y-135890000D01*
X164150000Y-134128088D02*
X164150000Y-135570000D01*
X163195000Y-136525000D02*
X163830000Y-135890000D01*
X163195000Y-142684500D02*
X163195000Y-136525000D01*
X164020500Y-143510000D02*
X163195000Y-142684500D01*
X164338000Y-143510000D02*
X164020500Y-143510000D01*
X158750000Y-127000008D02*
X159167529Y-126582479D01*
X161365001Y-121886001D02*
X161365001Y-119653999D01*
X159167529Y-124083473D02*
X161365001Y-121886001D01*
X161365001Y-119653999D02*
X158059999Y-116348997D01*
X158115000Y-111125000D02*
X158115000Y-111045000D01*
X159167529Y-126582479D02*
X159167529Y-124083473D01*
X158059999Y-116348997D02*
X158059999Y-111180001D01*
X158059999Y-111180001D02*
X158115000Y-111125000D01*
X158115000Y-111045000D02*
X159385000Y-109775000D01*
X176230003Y-110190001D02*
X176530002Y-110490000D01*
X175456011Y-109416009D02*
X176230003Y-110190001D01*
X174164999Y-92305001D02*
X174164999Y-106390586D01*
X174164999Y-106390586D02*
X175456011Y-107681598D01*
X179325000Y-86995000D02*
X179325000Y-87145000D01*
X179325000Y-87145000D02*
X174164999Y-92305001D01*
X175456011Y-107681598D02*
X175456011Y-109416009D01*
X167640000Y-154940000D02*
X169672000Y-152908000D01*
X169672000Y-152908000D02*
X187677002Y-152908000D01*
X193845034Y-112148032D02*
X193040000Y-111342998D01*
X188384264Y-72136000D02*
X185023504Y-72136000D01*
X187677002Y-152908000D02*
X193845034Y-146739968D01*
X193845034Y-146739968D02*
X193845034Y-112148032D01*
X193040000Y-111342998D02*
X193040000Y-76791736D01*
X183263264Y-75225000D02*
X178215000Y-75225000D01*
X193040000Y-76791736D02*
X188384264Y-72136000D01*
X184130006Y-73029498D02*
X184130006Y-74358258D01*
X184130006Y-74358258D02*
X183263264Y-75225000D01*
X185023504Y-72136000D02*
X184130006Y-73029498D01*
X178215000Y-75225000D02*
X177165000Y-75225000D01*
X179070000Y-84074002D02*
X179070000Y-76080000D01*
X179070000Y-76080000D02*
X178215000Y-75225000D01*
X178090998Y-84074002D02*
X179070000Y-84074002D01*
X175170000Y-86995000D02*
X178090998Y-84074002D01*
X175145000Y-86995000D02*
X175170000Y-86995000D01*
X179325000Y-86995000D02*
X179325000Y-86845000D01*
X179325000Y-86845000D02*
X178625000Y-86145000D01*
X178625000Y-86145000D02*
X176020000Y-86145000D01*
X176020000Y-86145000D02*
X175170000Y-86995000D01*
X176530002Y-110490000D02*
X178308000Y-110490000D01*
X164338000Y-144780000D02*
X164338000Y-145923000D01*
X164338000Y-145923000D02*
X164465000Y-146050000D01*
X177800000Y-74700000D02*
X177165000Y-75225000D01*
X175145000Y-86995000D02*
X172835000Y-86995000D01*
X165739758Y-111240000D02*
X165727930Y-111251828D01*
X168275000Y-111240000D02*
X165739758Y-111240000D01*
X165990000Y-86995000D02*
X165990000Y-77799998D01*
X165990000Y-77799998D02*
X171029997Y-72760001D01*
X171029997Y-72760001D02*
X181980001Y-72760001D01*
X181980001Y-72760001D02*
X182880000Y-73660000D01*
X171335000Y-86995000D02*
X171335000Y-87620000D01*
X171335000Y-87620000D02*
X171034999Y-87920001D01*
X167615001Y-87920001D02*
X166690000Y-86995000D01*
X171034999Y-87920001D02*
X167615001Y-87920001D01*
X166690000Y-86995000D02*
X165990000Y-86995000D01*
X171335000Y-86995000D02*
X171360000Y-86995000D01*
X172060001Y-87695001D02*
X175919999Y-87695001D01*
X176620000Y-86995000D02*
X176645000Y-86995000D01*
X171360000Y-86995000D02*
X172060001Y-87695001D01*
X175919999Y-87695001D02*
X176620000Y-86995000D01*
X165990000Y-86995000D02*
X165100000Y-86995000D01*
X165100000Y-86995000D02*
X164465000Y-86360000D01*
X182920000Y-74240002D02*
X182880000Y-73660000D01*
X176645000Y-86995000D02*
X176670000Y-86995000D01*
X160540000Y-146050000D02*
X159385000Y-146050000D01*
X168275000Y-111240000D02*
X168975000Y-111240000D01*
X168975000Y-111240000D02*
X169725000Y-110490000D01*
X169725000Y-110490000D02*
X171958000Y-110490000D01*
X158750000Y-78740000D02*
X155575000Y-81915000D01*
X155575000Y-81915000D02*
X155575000Y-145465000D01*
X155575000Y-145465000D02*
X156730000Y-146620000D01*
X156730000Y-146620000D02*
X156730000Y-147320000D01*
X165390004Y-140970000D02*
X164338000Y-140970000D01*
X166360002Y-141939998D02*
X165390004Y-140970000D01*
X166360002Y-142540002D02*
X166360002Y-141939998D01*
X165620000Y-143280004D02*
X166360002Y-142540002D01*
X165620000Y-148590000D02*
X165620000Y-143280004D01*
X156730000Y-147320000D02*
X157365000Y-147955000D01*
X157365000Y-147955000D02*
X157654999Y-147955000D01*
X158880002Y-147955000D02*
X159385000Y-147955000D01*
X157654999Y-147955000D02*
X157654999Y-148030001D01*
X157654999Y-148030001D02*
X157719999Y-148095001D01*
X157719999Y-148095001D02*
X158740001Y-148095001D01*
X158740001Y-148095001D02*
X158880002Y-147955000D01*
X159385000Y-147955000D02*
X160020000Y-147320000D01*
X165120000Y-148590000D02*
X165620000Y-148590000D01*
X160020000Y-147320000D02*
X163850000Y-147320000D01*
X163850000Y-147320000D02*
X165120000Y-148590000D01*
X180535000Y-132730000D02*
X179105001Y-134159999D01*
X179105001Y-134159999D02*
X177089999Y-134159999D01*
X171407503Y-137850999D02*
X169856499Y-137850999D01*
X169856499Y-137850999D02*
X168007498Y-139700000D01*
X168007498Y-139700000D02*
X164338000Y-139700000D01*
X176814987Y-134435011D02*
X176714989Y-134435011D01*
X177089999Y-134159999D02*
X176814987Y-134435011D01*
X180520000Y-132715000D02*
X179705000Y-132715000D01*
X180535000Y-132730000D02*
X180520000Y-132715000D01*
X177574813Y-129411093D02*
X178983710Y-130819990D01*
X176755007Y-129411093D02*
X177574813Y-129411093D01*
X180660000Y-132730000D02*
X180535000Y-132730000D01*
X156210000Y-123971829D02*
X158092516Y-125854345D01*
X156210000Y-86280000D02*
X156210000Y-123971829D01*
X158750000Y-83740000D02*
X156210000Y-86280000D01*
X180355000Y-132730000D02*
X180660000Y-132730000D01*
X171584501Y-136629505D02*
X171584501Y-137674001D01*
X171584501Y-137674001D02*
X171407503Y-137850999D01*
X172339005Y-135875001D02*
X171584501Y-136629505D01*
X176714989Y-134435011D02*
X175565001Y-135584999D01*
X175565001Y-135584999D02*
X175565001Y-135810001D01*
X175565001Y-135810001D02*
X175500001Y-135875001D01*
X175500001Y-135875001D02*
X172339005Y-135875001D01*
X170688000Y-137160000D02*
X168910000Y-137160000D01*
X171958000Y-109220000D02*
X173089978Y-109220000D01*
X164580000Y-118110000D02*
X164580000Y-118810000D01*
X164580000Y-118810000D02*
X164004999Y-119385001D01*
X164004999Y-119385001D02*
X164004999Y-125984999D01*
X164004999Y-125984999D02*
X166290000Y-128270000D01*
X182245000Y-105410000D02*
X182245000Y-106565000D01*
X182245000Y-106565000D02*
X182130000Y-106680000D01*
X176760002Y-109220000D02*
X178308000Y-109220000D01*
X171958000Y-109220000D02*
X169545000Y-109220000D01*
X164465000Y-109740000D02*
X166989998Y-109740000D01*
X166989998Y-109740000D02*
X167809997Y-108920001D01*
X167809997Y-108920001D02*
X169245001Y-108920001D01*
X169245001Y-108920001D02*
X169545000Y-109220000D01*
X160135000Y-114935000D02*
X160135000Y-113370000D01*
X160135000Y-113370000D02*
X163765000Y-109740000D01*
X163765000Y-109740000D02*
X164465000Y-109740000D01*
X161605000Y-140320000D02*
X161605000Y-140970000D01*
X161290000Y-143350000D02*
X161290000Y-142600000D01*
X161290000Y-142600000D02*
X161744999Y-142145001D01*
X161744999Y-142145001D02*
X162190001Y-142145001D01*
X162190001Y-142145001D02*
X162255001Y-142080001D01*
X162255001Y-142080001D02*
X162255001Y-141159999D01*
X162255001Y-141159999D02*
X162065002Y-140970000D01*
X162065002Y-140970000D02*
X161605000Y-140970000D01*
X170180000Y-135255000D02*
X170180000Y-136652000D01*
X170180000Y-136652000D02*
X170688000Y-137160000D01*
X178308000Y-109220000D02*
X180340000Y-109220000D01*
X178625500Y-109220000D02*
X178308000Y-109220000D01*
X161290000Y-73660000D02*
X161290000Y-70354998D01*
X161290000Y-70354998D02*
X163119999Y-68524999D01*
X163119999Y-68524999D02*
X168099999Y-68524999D01*
X168099999Y-68524999D02*
X170400000Y-70825000D01*
X170400000Y-70825000D02*
X171450000Y-70825000D01*
X161330000Y-74292208D02*
X161290000Y-73660000D01*
X187960000Y-111125000D02*
X187960000Y-110236000D01*
X187960000Y-110236000D02*
X188422001Y-109773999D01*
X188422001Y-109773999D02*
X188722000Y-109474000D01*
X172761000Y-75225000D02*
X175260000Y-77724000D01*
X171450000Y-75225000D02*
X172761000Y-75225000D01*
X171450000Y-75225000D02*
X171790000Y-75225000D01*
X184150000Y-112395000D02*
X183630000Y-112915000D01*
X183630000Y-112915000D02*
X183630000Y-113665000D01*
X178308000Y-114300000D02*
X178625500Y-114300000D01*
X183630000Y-113865000D02*
X183630000Y-113665000D01*
X178625500Y-114300000D02*
X178765501Y-114440001D01*
X178765501Y-114440001D02*
X183054999Y-114440001D01*
X183054999Y-114440001D02*
X183630000Y-113865000D01*
X184130000Y-96134290D02*
X185904719Y-94359571D01*
X184130000Y-102170000D02*
X184130000Y-96134290D01*
X183630000Y-102670000D02*
X184130000Y-102170000D01*
X183630000Y-102870000D02*
X183630000Y-102670000D01*
X185245001Y-123998588D02*
X185245001Y-125805001D01*
X185245001Y-125805001D02*
X184108456Y-126941546D01*
X184108456Y-126941546D02*
X181975810Y-126941546D01*
X181975810Y-126941546D02*
X181551546Y-126941546D01*
X191135000Y-109855000D02*
X190335001Y-110654999D01*
X190335001Y-110654999D02*
X190335001Y-114301994D01*
X186389998Y-120259002D02*
X187457276Y-121326280D01*
X190335001Y-114301994D02*
X185302997Y-119333998D01*
X185302997Y-119333998D02*
X185302997Y-119934002D01*
X185302997Y-119934002D02*
X185627997Y-120259002D01*
X185627997Y-120259002D02*
X186389998Y-120259002D01*
X187457276Y-121786313D02*
X185245001Y-123998588D01*
X187457276Y-121326280D02*
X187457276Y-121786313D01*
X176530000Y-138430000D02*
X177280000Y-138430000D01*
X177280000Y-138430000D02*
X177800000Y-137910000D01*
X176530000Y-135574997D02*
X176530000Y-138430000D01*
X176849997Y-135255000D02*
X176530000Y-135574997D01*
X170206504Y-149566504D02*
X171956055Y-149566504D01*
X169430000Y-148590000D02*
X169430000Y-148790000D01*
X169430000Y-148790000D02*
X170206504Y-149566504D01*
X170688000Y-143510000D02*
X172085000Y-143510000D01*
X184866001Y-120604001D02*
X185166000Y-120904000D01*
X186609967Y-117390618D02*
X184852986Y-119147598D01*
X184852986Y-119147598D02*
X184852986Y-120590986D01*
X184852986Y-120590986D02*
X184866001Y-120604001D01*
X186609967Y-109380033D02*
X186609967Y-117390618D01*
X191135000Y-104855000D02*
X186609967Y-109380033D01*
X179705000Y-146050000D02*
X180040000Y-146050000D01*
X180040000Y-146050000D02*
X180660000Y-145430000D01*
X170688000Y-144780000D02*
X171509500Y-144780000D01*
X171509500Y-144780000D02*
X172159500Y-145430000D01*
X172159500Y-145430000D02*
X180660000Y-145430000D01*
X184775001Y-111700001D02*
X184775001Y-117952763D01*
X183212947Y-119514817D02*
X183212947Y-119642466D01*
X183212947Y-119642466D02*
X183212947Y-120066730D01*
X184775001Y-117952763D02*
X183212947Y-119514817D01*
X183630000Y-109855000D02*
X183630000Y-110555000D01*
X183630000Y-110555000D02*
X184775001Y-111700001D01*
X172740000Y-141170000D02*
X172466000Y-140896000D01*
X172466000Y-140896000D02*
X172466000Y-140833010D01*
X173240000Y-141170000D02*
X172740000Y-141170000D01*
X173240000Y-141170000D02*
X172075500Y-141170000D01*
X172075500Y-141170000D02*
X171005500Y-142240000D01*
X171005500Y-142240000D02*
X170688000Y-142240000D01*
X190500000Y-78740000D02*
X187452000Y-81788000D01*
X187452000Y-81788000D02*
X187452000Y-96103998D01*
X187452000Y-96103998D02*
X189185001Y-97836999D01*
X189185001Y-97836999D02*
X189185001Y-102410001D01*
X189185001Y-102410001D02*
X189230000Y-102455000D01*
X189230000Y-102455000D02*
X189230000Y-103555000D01*
X189230000Y-103555000D02*
X183630000Y-109155000D01*
X183630000Y-109155000D02*
X183630000Y-109855000D01*
X186227997Y-119334001D02*
X185927998Y-119634000D01*
X192535001Y-85775001D02*
X192535001Y-110069997D01*
X190500000Y-83740000D02*
X192535001Y-85775001D01*
X191398998Y-114163000D02*
X186227997Y-119334001D01*
X191398998Y-111206000D02*
X191398998Y-114163000D01*
X192535001Y-110069997D02*
X191398998Y-111206000D01*
X177800000Y-140335000D02*
X177809998Y-140325002D01*
X171005500Y-140970000D02*
X171509500Y-140466000D01*
X179465000Y-139595004D02*
X179465000Y-138854264D01*
X179465000Y-138854264D02*
X179465000Y-138430000D01*
X170688000Y-140970000D02*
X171005500Y-140970000D01*
X177809998Y-140325002D02*
X178735002Y-140325002D01*
X171540996Y-140208000D02*
X174915004Y-140208000D01*
X171509500Y-140239496D02*
X171540996Y-140208000D01*
X171509500Y-140466000D02*
X171509500Y-140239496D01*
X174915004Y-140208000D02*
X175042004Y-140335000D01*
X175042004Y-140335000D02*
X177800000Y-140335000D01*
X178735002Y-140325002D02*
X179465000Y-139595004D01*
X180548366Y-134652511D02*
X179749346Y-135451531D01*
X180548366Y-133932988D02*
X180548366Y-134652511D01*
X180660000Y-137810000D02*
X180085000Y-137810000D01*
X180085000Y-137810000D02*
X179465000Y-138430000D01*
X171450000Y-129286000D02*
X169879452Y-129286000D01*
X169879452Y-129286000D02*
X169752660Y-129159208D01*
X163350023Y-125966433D02*
X163350023Y-125730000D01*
X165064999Y-127681409D02*
X163350023Y-125966433D01*
X165100000Y-129750736D02*
X165064999Y-129715735D01*
X165064999Y-129715735D02*
X165064999Y-127681409D01*
X165100000Y-130175000D02*
X165100000Y-129750736D01*
X186690000Y-131950000D02*
X187440000Y-131950000D01*
X187440000Y-131950000D02*
X193340007Y-126049993D01*
X193340007Y-126049993D02*
X193340007Y-113075999D01*
X193340007Y-113075999D02*
X193040008Y-112776000D01*
X186600000Y-131950000D02*
X186690000Y-131950000D01*
X161290000Y-100965000D02*
X164211000Y-103886000D01*
X175006000Y-107867998D02*
X175006000Y-119357398D01*
X174214999Y-124176999D02*
X174244000Y-124206000D01*
X174244000Y-124206000D02*
X174244000Y-125199398D01*
X164211000Y-103886000D02*
X171024002Y-103886000D01*
X171024002Y-103886000D02*
X175006000Y-107867998D01*
X175006000Y-119357398D02*
X174214999Y-120148399D01*
X174214999Y-120148399D02*
X174214999Y-124176999D01*
X174244000Y-125199398D02*
X174214999Y-125228399D01*
X174214999Y-125228399D02*
X174214999Y-129315001D01*
X174214999Y-129315001D02*
X173990000Y-129540000D01*
X173990000Y-129540000D02*
X173990000Y-131950000D01*
X173990000Y-131950000D02*
X173240000Y-131950000D01*
X164439989Y-150109989D02*
X167364988Y-150109989D01*
X161290000Y-148460000D02*
X162790000Y-148460000D01*
X162790000Y-148460000D02*
X164439989Y-150109989D01*
X158635000Y-114935000D02*
X158635000Y-112637000D01*
X158635000Y-112637000D02*
X163689999Y-107582001D01*
X163689999Y-107582001D02*
X163689999Y-106919999D01*
X163689999Y-106919999D02*
X163754999Y-106854999D01*
X163754999Y-106854999D02*
X164265000Y-106854999D01*
X164265000Y-106854999D02*
X164265000Y-105930000D01*
X163830000Y-69100000D02*
X164030000Y-69100000D01*
X162569998Y-81645012D02*
X162569998Y-95372000D01*
X163765000Y-105253002D02*
X163765000Y-105430000D01*
X163765000Y-105430000D02*
X164265000Y-105930000D01*
X164030000Y-69100000D02*
X165055001Y-70125001D01*
X165055001Y-79160009D02*
X162569998Y-81645012D01*
X165055001Y-70125001D02*
X165055001Y-79160009D01*
X162569998Y-95372000D02*
X160020000Y-97921998D01*
X160020000Y-97921998D02*
X160020000Y-100330000D01*
X160020000Y-100330000D02*
X160064999Y-100374999D01*
X160064999Y-100374999D02*
X160064999Y-101553001D01*
X160064999Y-101553001D02*
X163765000Y-105253002D01*
X164265000Y-105930000D02*
X164465000Y-105930000D01*
X163515000Y-114935000D02*
X162940000Y-114935000D01*
X162940000Y-114935000D02*
X162164999Y-115710001D01*
X162164999Y-115710001D02*
X159210001Y-115710001D01*
X159210001Y-115710001D02*
X158635000Y-115135000D01*
X158635000Y-115135000D02*
X158635000Y-114935000D01*
X163080000Y-118110000D02*
X163080000Y-117910000D01*
X166000001Y-116110001D02*
X166065001Y-116045001D01*
X163080000Y-117910000D02*
X164879999Y-116110001D01*
X164879999Y-116110001D02*
X166000001Y-116110001D01*
X166065001Y-116045001D02*
X166065001Y-115010001D01*
X166065001Y-115010001D02*
X165990000Y-114935000D01*
X165990000Y-114935000D02*
X165415000Y-114935000D01*
X163080000Y-118110000D02*
X163080000Y-118310000D01*
X169660000Y-133785000D02*
X169660000Y-133985000D01*
X169660000Y-130810000D02*
X169185012Y-131284988D01*
X169185012Y-131284988D02*
X169185012Y-131706401D01*
X169185012Y-131706401D02*
X168540846Y-132350567D01*
X168540846Y-132350567D02*
X168540846Y-132665846D01*
X168540846Y-132665846D02*
X169660000Y-133785000D01*
X164580000Y-119493898D02*
X165849449Y-118224449D01*
X164580000Y-123190000D02*
X164580000Y-119493898D01*
X177800000Y-133235000D02*
X177685000Y-133350000D01*
X177685000Y-133350000D02*
X176197823Y-133350000D01*
X176197823Y-133350000D02*
X175872801Y-133675023D01*
X175872801Y-133675023D02*
X173029977Y-133675023D01*
X173029977Y-133675023D02*
X172720000Y-133985000D01*
X169660000Y-133985000D02*
X172720000Y-133985000D01*
X171005500Y-114935000D02*
X170815000Y-114935000D01*
X171640500Y-114300000D02*
X171005500Y-114935000D01*
X171958000Y-114300000D02*
X171640500Y-114300000D01*
X185940000Y-146050000D02*
X185940000Y-145850000D01*
X183515000Y-143425000D02*
X183515000Y-141605000D01*
X182360000Y-141605000D02*
X183515000Y-141605000D01*
X185940000Y-145850000D02*
X183515000Y-143425000D01*
X189865000Y-139700000D02*
X188061950Y-141503050D01*
X190385000Y-139700000D02*
X189865000Y-139700000D01*
X190385000Y-133985000D02*
X190385000Y-134185000D01*
X190385000Y-134185000D02*
X190960001Y-134760001D01*
X190960001Y-134760001D02*
X190960001Y-138424999D01*
X190960001Y-138424999D02*
X190385000Y-139000000D01*
X190385000Y-139000000D02*
X190385000Y-139700000D01*
X168275000Y-128905000D02*
X169660000Y-130290000D01*
X168275000Y-127424264D02*
X168275000Y-128905000D01*
X167005000Y-125730000D02*
X167005000Y-126154264D01*
X169660000Y-130290000D02*
X169660000Y-130810000D01*
X167005000Y-126154264D02*
X168275000Y-127424264D01*
X185940000Y-146050000D02*
X185940000Y-146250000D01*
X171958000Y-114300000D02*
X171958000Y-113030000D01*
X184670000Y-125095000D02*
X184670000Y-121333002D01*
X185084999Y-109519999D02*
X184785000Y-109220000D01*
X184402975Y-118961198D02*
X185420000Y-117944174D01*
X184670000Y-121333002D02*
X184402975Y-121065977D01*
X184402975Y-121065977D02*
X184402975Y-118961198D01*
X185420000Y-117944174D02*
X185420000Y-109855000D01*
X185420000Y-109855000D02*
X185084999Y-109519999D01*
X171958000Y-107950000D02*
X172275500Y-107950000D01*
X172275500Y-107950000D02*
X172780418Y-107445082D01*
X172780418Y-107445082D02*
X173089978Y-107445082D01*
X168275000Y-107430000D02*
X168075000Y-107430000D01*
X168075000Y-107430000D02*
X166515004Y-108989996D01*
X166515004Y-108989996D02*
X165114167Y-108989996D01*
X165114167Y-108989996D02*
X164689903Y-108989996D01*
X171958000Y-107950000D02*
X168295000Y-107950000D01*
X168295000Y-107950000D02*
X168275000Y-107930000D01*
X168275000Y-107930000D02*
X168275000Y-107430000D01*
X186170000Y-125095000D02*
X186170000Y-127520000D01*
X186170000Y-127520000D02*
X185420000Y-128270000D01*
X162550010Y-127030010D02*
X162550010Y-125730000D01*
X163790000Y-128270000D02*
X162550010Y-127030010D01*
X158230000Y-135890000D02*
X158230000Y-137044976D01*
X158230000Y-137044976D02*
X158115000Y-137159976D01*
X189349999Y-149285001D02*
X188775000Y-149860000D01*
X183630000Y-149860000D02*
X182360000Y-148590000D01*
X188775000Y-149860000D02*
X183630000Y-149860000D01*
X191885000Y-146050000D02*
X191885000Y-146750000D01*
X191885000Y-146750000D02*
X189349999Y-149285001D01*
X191885000Y-146750000D02*
X191885000Y-146050000D01*
X189349999Y-149285001D02*
X191885000Y-146750000D01*
X158414999Y-141269993D02*
X158115000Y-140969994D01*
X158454994Y-141269993D02*
X158414999Y-141269993D01*
X158805001Y-141620000D02*
X158454994Y-141269993D01*
X159705000Y-141620000D02*
X158805001Y-141620000D01*
X158354999Y-150734999D02*
X157480000Y-149860000D01*
X182360000Y-148590000D02*
X182360000Y-148790000D01*
X182360000Y-148790000D02*
X178510001Y-150734999D01*
X178510001Y-150734999D02*
X158354999Y-150734999D01*
X191885000Y-146050000D02*
X191885000Y-145850000D01*
X191885000Y-145850000D02*
X192460001Y-145274999D01*
X192460001Y-145274999D02*
X192460001Y-138435001D01*
X192460001Y-138435001D02*
X191885000Y-137860000D01*
X191885000Y-137860000D02*
X191885000Y-137160000D01*
X163515000Y-114285000D02*
X163515000Y-111440000D01*
X163515000Y-111440000D02*
X163689999Y-111265001D01*
X163689999Y-111265001D02*
X163689999Y-110729999D01*
X163689999Y-110729999D02*
X163754999Y-110664999D01*
X163754999Y-110664999D02*
X163830000Y-110664999D01*
X163830000Y-110664999D02*
X163830000Y-110490000D01*
X163830000Y-110490000D02*
X167525000Y-110490000D01*
X167525000Y-110490000D02*
X168275000Y-109740000D01*
X165415000Y-115585000D02*
X164840000Y-115585000D01*
X164840000Y-115585000D02*
X164165001Y-114910001D01*
X164165001Y-114910001D02*
X164165001Y-114360001D01*
X164165001Y-114360001D02*
X164090000Y-114285000D01*
X164090000Y-114285000D02*
X163515000Y-114285000D01*
X158609998Y-140335000D02*
X157480008Y-140335000D01*
X159054999Y-140780001D02*
X158609998Y-140335000D01*
X159054999Y-140780001D02*
X159054999Y-140639999D01*
X159054999Y-140639999D02*
X158750000Y-140335000D01*
X158750000Y-140335000D02*
X157480000Y-140335000D01*
X157480000Y-140335000D02*
X156730000Y-141085000D01*
X156730000Y-141085000D02*
X156730000Y-142240000D01*
X159705000Y-140970000D02*
X159385000Y-140970000D01*
X159385000Y-140970000D02*
X159260001Y-140845001D01*
X159260001Y-140845001D02*
X159119999Y-140845001D01*
X159119999Y-140845001D02*
X159054999Y-140780001D01*
X159705000Y-140970000D02*
X159244998Y-140970000D01*
X159244998Y-140970000D02*
X159054999Y-140780001D01*
X159054999Y-140780001D02*
X159705000Y-140970000D01*
X180975000Y-98425000D02*
X180975000Y-102235000D01*
X185380000Y-94020000D02*
X180975000Y-98425000D01*
X185380000Y-73660000D02*
X185380000Y-94020000D01*
X180975000Y-109855000D02*
X180975000Y-103505000D01*
X182880000Y-111125000D02*
X182880000Y-108715002D01*
X182880000Y-108715002D02*
X185380000Y-106215002D01*
X185380000Y-106215002D02*
X185380000Y-100965000D01*
X164465000Y-107430000D02*
X166775000Y-107430000D01*
X166775000Y-107430000D02*
X167575000Y-106630000D01*
X168075000Y-105930000D02*
X168275000Y-105930000D01*
X167575000Y-106630000D02*
X167575000Y-106430000D01*
X167575000Y-106430000D02*
X168075000Y-105930000D01*
X171958000Y-106680000D02*
X168525000Y-106680000D01*
X168275000Y-106430000D02*
X168275000Y-105930000D01*
X168525000Y-106680000D02*
X168275000Y-106430000D01*
X163575000Y-133350000D02*
X163499999Y-133425001D01*
X163499999Y-133425001D02*
X163499999Y-133680001D01*
X163499999Y-133680001D02*
X162865001Y-134314999D01*
X162865001Y-134314999D02*
X162865001Y-135810001D01*
X162865001Y-135810001D02*
X162800001Y-135875001D01*
X162800001Y-135875001D02*
X161304999Y-135875001D01*
X161304999Y-135875001D02*
X158750000Y-138430000D01*
X158750000Y-138430000D02*
X158730000Y-138430000D01*
X158730000Y-138430000D02*
X158230000Y-138430000D01*
X162560000Y-133858000D02*
X162989824Y-133858000D01*
X162989824Y-133858000D02*
X163497824Y-133350000D01*
X163497824Y-133350000D02*
X163575000Y-133350000D01*
X163575000Y-133350000D02*
X164150000Y-133350000D01*
X168160000Y-133985000D02*
X168160000Y-133785000D01*
X168160000Y-133785000D02*
X167660000Y-133285000D01*
X167660000Y-132595002D02*
X167660000Y-133285000D01*
X168735001Y-131520001D02*
X167660000Y-132595002D01*
X168735001Y-130001411D02*
X168735001Y-131520001D01*
X167824989Y-129091400D02*
X168735001Y-130001411D01*
X167824989Y-127991987D02*
X167824989Y-129091400D01*
X166214999Y-126381997D02*
X167824989Y-127991987D01*
X166214999Y-119536411D02*
X166214999Y-126381997D01*
X166820011Y-118931400D02*
X166214999Y-119536411D01*
X165990000Y-114285000D02*
X166820011Y-115115011D01*
X165415000Y-114285000D02*
X165990000Y-114285000D01*
X166820011Y-115115011D02*
X166820011Y-118931400D01*
X159089989Y-142599989D02*
X159089989Y-142750551D01*
X158230000Y-142240000D02*
X158730000Y-142240000D01*
X158730000Y-142240000D02*
X159089989Y-142599989D01*
X161605000Y-141620000D02*
X161030000Y-141620000D01*
X161030000Y-141620000D02*
X160355001Y-140945001D01*
X160355001Y-140945001D02*
X160355001Y-140509999D01*
X160355001Y-140509999D02*
X160165002Y-140320000D01*
X160165002Y-140320000D02*
X159705000Y-140320000D01*
X162040000Y-146050000D02*
X162040000Y-144260000D01*
X162040000Y-144260000D02*
X161955001Y-144175001D01*
X161955001Y-144175001D02*
X159779999Y-144175001D01*
X159779999Y-144175001D02*
X159714999Y-144110001D01*
X159714999Y-144110001D02*
X159714999Y-142589999D01*
X159714999Y-142589999D02*
X159779999Y-142524999D01*
X159779999Y-142524999D02*
X160839990Y-142524999D01*
X160839990Y-142524999D02*
X160839991Y-142413599D01*
X160839991Y-142413599D02*
X161558599Y-141694991D01*
X161558599Y-141694991D02*
X161804991Y-141694991D01*
X161804991Y-141694991D02*
X161804991Y-141620000D01*
X161804991Y-141620000D02*
X161605000Y-141620000D01*
X173089974Y-111760000D02*
X173089978Y-111759996D01*
X171958000Y-111760000D02*
X173089974Y-111760000D01*
X164665000Y-111240000D02*
X165301830Y-111876830D01*
X164465000Y-111240000D02*
X164665000Y-111240000D01*
X171081499Y-111815001D02*
X171136500Y-111760000D01*
X166089761Y-111815001D02*
X171081499Y-111815001D01*
X166027932Y-111876830D02*
X166089761Y-111815001D01*
X165301830Y-111876830D02*
X166027932Y-111876830D01*
X171136500Y-111760000D02*
X171958000Y-111760000D01*
X169725089Y-132541927D02*
X169300825Y-132541927D01*
X180660000Y-132080000D02*
X176831413Y-132080000D01*
X176831413Y-132080000D02*
X175686401Y-133225012D01*
X175686401Y-133225012D02*
X170408175Y-133225012D01*
X170408175Y-133225012D02*
X169725089Y-132541927D01*
X158730000Y-130175000D02*
X158895005Y-130340005D01*
X158895005Y-130340005D02*
X158895005Y-131935000D01*
X158730000Y-130175000D02*
X158230000Y-130175000D01*
X163831410Y-130175000D02*
X158730000Y-130175000D01*
X164466410Y-130810000D02*
X163831410Y-130175000D01*
X168160000Y-130810000D02*
X164466410Y-130810000D01*
X158230000Y-147320000D02*
X158230000Y-144895000D01*
X158230000Y-144895000D02*
X158115000Y-144780000D01*
X180660000Y-132080000D02*
X180340000Y-132080000D01*
X182560000Y-132080000D02*
X183515000Y-132080000D01*
X183515000Y-132080000D02*
X184145001Y-132710001D01*
X184145001Y-132710001D02*
X185114999Y-132710001D01*
X185114999Y-132710001D02*
X185179999Y-132775001D01*
X185179999Y-132775001D02*
X190875001Y-132775001D01*
X190875001Y-132775001D02*
X191885000Y-133785000D01*
X191885000Y-133785000D02*
X191885000Y-133985000D01*
X163790000Y-73660000D02*
X163830000Y-74292208D01*
X163830000Y-74292208D02*
X163830000Y-70600000D01*
X163830000Y-70600000D02*
X163630000Y-70600000D01*
X183135000Y-132730000D02*
X182560000Y-132730000D01*
X183630012Y-133225012D02*
X183135000Y-132730000D01*
X187150012Y-133225012D02*
X183630012Y-133225012D01*
X190385000Y-136460000D02*
X187150012Y-133225012D01*
X190385000Y-137160000D02*
X190385000Y-136460000D01*
X180660000Y-131430000D02*
X181235000Y-131430000D01*
X181235000Y-131430000D02*
X181909999Y-132104999D01*
X181909999Y-132104999D02*
X181909999Y-132654999D01*
X181909999Y-132654999D02*
X181985000Y-132730000D01*
X181985000Y-132730000D02*
X182560000Y-132730000D01*
X178308000Y-113030000D02*
X177990500Y-113030000D01*
X177990500Y-113030000D02*
X177165000Y-113855500D01*
X177165000Y-113855500D02*
X177165000Y-114935000D01*
X182130000Y-113665000D02*
X178439000Y-113665000D01*
X178308000Y-113534000D02*
X178308000Y-113030000D01*
X178439000Y-113665000D02*
X178308000Y-113534000D01*
X182130000Y-108063588D02*
X183513588Y-106680000D01*
X182130000Y-109855000D02*
X182130000Y-108063588D01*
X183513588Y-106680000D02*
X183630000Y-106680000D01*
X178308000Y-111760000D02*
X180425000Y-111760000D01*
X180425000Y-111760000D02*
X182130000Y-110055000D01*
X182130000Y-110055000D02*
X182130000Y-109855000D01*
X179705000Y-141605000D02*
X180860000Y-141605000D01*
X180660000Y-144780000D02*
X179705000Y-144780000D01*
X179565003Y-147634999D02*
X172385001Y-147634999D01*
X181310001Y-145890001D02*
X179565003Y-147634999D01*
X181310001Y-144969999D02*
X181310001Y-145890001D01*
X180784999Y-144904999D02*
X181245001Y-144904999D01*
X171430000Y-148590000D02*
X170930000Y-148590000D01*
X180660000Y-144780000D02*
X180784999Y-144904999D01*
X181245001Y-144904999D02*
X181310001Y-144969999D01*
X172385001Y-147634999D02*
X171430000Y-148590000D01*
X170930000Y-148590000D02*
X170930000Y-148390000D01*
X170930000Y-148390000D02*
X170354999Y-147814999D01*
X170354999Y-147814999D02*
X168395001Y-147814999D01*
X168395001Y-147814999D02*
X167620000Y-148590000D01*
X167620000Y-148590000D02*
X167120000Y-148590000D01*
X184150000Y-148255002D02*
X185179999Y-149285001D01*
X191309999Y-140975001D02*
X191885000Y-140400000D01*
X191885000Y-140400000D02*
X191885000Y-139700000D01*
X185179999Y-149285001D02*
X188435001Y-149285001D01*
X188435001Y-149285001D02*
X191309999Y-146410003D01*
X191309999Y-146410003D02*
X191309999Y-140975001D01*
X184150000Y-145795000D02*
X184150000Y-148255002D01*
X182560000Y-144780000D02*
X183135000Y-144780000D01*
X183135000Y-144780000D02*
X184150000Y-145795000D01*
X178550000Y-102870000D02*
X178550000Y-103964998D01*
X180340000Y-105754998D02*
X180340000Y-107605002D01*
X180340000Y-107605002D02*
X179995002Y-107950000D01*
X178550000Y-103964998D02*
X180340000Y-105754998D01*
X179995002Y-107950000D02*
X178308000Y-107950000D01*
X174740000Y-102870000D02*
X175240000Y-102870000D01*
X175240000Y-102870000D02*
X176015001Y-102094999D01*
X176015001Y-102094999D02*
X177974999Y-102094999D01*
X177974999Y-102094999D02*
X178550000Y-102670000D01*
X178550000Y-102670000D02*
X178550000Y-102870000D01*
X182130000Y-102870000D02*
X178550000Y-102870000D01*
X180860000Y-148590000D02*
X180860000Y-147005000D01*
X180860000Y-147005000D02*
X182435000Y-145430000D01*
X182435000Y-145430000D02*
X182560000Y-145430000D01*
X182560000Y-145430000D02*
X181985000Y-145430000D01*
X181235000Y-144130000D02*
X180660000Y-144130000D01*
X181985000Y-145430000D02*
X181760012Y-145205012D01*
X181760012Y-145205012D02*
X181760012Y-144655012D01*
X181760012Y-144655012D02*
X181235000Y-144130000D01*
X178308000Y-106680000D02*
X179705000Y-106680000D01*
X177050000Y-102870000D02*
X177050000Y-105739500D01*
X177050000Y-105739500D02*
X177990500Y-106680000D01*
X177990500Y-106680000D02*
X178308000Y-106680000D01*
X174740000Y-141170000D02*
X176965000Y-141170000D01*
X176965000Y-141170000D02*
X177165000Y-140970000D01*
X179135000Y-137785001D02*
X178435000Y-138485001D01*
X178435000Y-138485001D02*
X178435000Y-139065000D01*
X177800000Y-136410000D02*
X178000000Y-136410000D01*
X178000000Y-136410000D02*
X179135000Y-137545000D01*
X179135000Y-137545000D02*
X179135000Y-137785001D01*
X180660000Y-137160000D02*
X179995002Y-137160000D01*
X179995002Y-137160000D02*
X179370001Y-137785001D01*
X179370001Y-137785001D02*
X179135000Y-137785001D01*
X177800000Y-134735000D02*
X177800000Y-136410000D01*
X187440000Y-146050000D02*
X187440000Y-145350000D01*
X183145001Y-137284999D02*
X183004999Y-137284999D01*
X187440000Y-145350000D02*
X188265001Y-144524999D01*
X183210001Y-137490001D02*
X183210001Y-137349999D01*
X188265001Y-144524999D02*
X188265001Y-142589999D01*
X188265001Y-142589999D02*
X184785000Y-139109998D01*
X184785000Y-139109998D02*
X184785000Y-139065000D01*
X184785000Y-139065000D02*
X183210001Y-137490001D01*
X183210001Y-137349999D02*
X183145001Y-137284999D01*
X182880000Y-137160000D02*
X182560000Y-137160000D01*
X183004999Y-137284999D02*
X182880000Y-137160000D01*
X187440000Y-145850000D02*
X187440000Y-146050000D01*
X190385000Y-146050000D02*
X189885000Y-146050000D01*
X189885000Y-146050000D02*
X189109999Y-146825001D01*
X189109999Y-146825001D02*
X186929999Y-146825001D01*
X186450001Y-145274999D02*
X186055000Y-145274999D01*
X186055000Y-145274999D02*
X186055000Y-145050002D01*
X182560000Y-138260000D02*
X182560000Y-137810000D01*
X186929999Y-146825001D02*
X186864999Y-146760001D01*
X186864999Y-146760001D02*
X186864999Y-145589999D01*
X186515001Y-145339999D02*
X186450001Y-145274999D01*
X184150000Y-143145002D02*
X184150000Y-139850000D01*
X186864999Y-145589999D02*
X186690000Y-145415000D01*
X186690000Y-145415000D02*
X186515001Y-145415000D01*
X186515001Y-145415000D02*
X186515001Y-145339999D01*
X186055000Y-145050002D02*
X184150000Y-143145002D01*
X184150000Y-139850000D02*
X182560000Y-138260000D01*
X190385000Y-146050000D02*
X190385000Y-145635000D01*
X180660000Y-136510000D02*
X181235000Y-136510000D01*
X181235000Y-136510000D02*
X181909999Y-137184999D01*
X181909999Y-137734999D02*
X181985000Y-137810000D01*
X181909999Y-137184999D02*
X181909999Y-137734999D01*
X181985000Y-137810000D02*
X182560000Y-137810000D01*
X170654101Y-132775001D02*
X169781577Y-131902477D01*
X179534998Y-131445000D02*
X176830002Y-131445000D01*
X182560000Y-131430000D02*
X181985000Y-131430000D01*
X181985000Y-131430000D02*
X181459999Y-130904999D01*
X180074999Y-130904999D02*
X179534998Y-131445000D01*
X181459999Y-130904999D02*
X180074999Y-130904999D01*
X175500001Y-132775001D02*
X170654101Y-132775001D01*
X176830002Y-131445000D02*
X175500001Y-132775001D01*
X164338000Y-138430000D02*
X165735000Y-138430000D01*
X164338000Y-137160000D02*
X164655500Y-137160000D01*
X166700001Y-135115499D02*
X166700001Y-132775001D01*
X164655500Y-137160000D02*
X166700001Y-135115499D01*
X166700001Y-132775001D02*
X166625000Y-132700000D01*
X166625000Y-132700000D02*
X166050000Y-132700000D01*
X180074999Y-143604999D02*
X181909999Y-143604999D01*
X169791499Y-144024001D02*
X169942499Y-144175001D01*
X170688000Y-138430000D02*
X170370500Y-138430000D01*
X179504997Y-144175001D02*
X180074999Y-143604999D01*
X170370500Y-138430000D02*
X169791499Y-139009001D01*
X169942499Y-144175001D02*
X179504997Y-144175001D01*
X169791499Y-139009001D02*
X169791499Y-144024001D01*
X182435000Y-144130000D02*
X182560000Y-144130000D01*
X181909999Y-143604999D02*
X182435000Y-144130000D01*
X172720000Y-136525000D02*
X172212000Y-137033000D01*
X172212000Y-137033000D02*
X172212000Y-138493500D01*
X172212000Y-138493500D02*
X171005500Y-139700000D01*
X171005500Y-139700000D02*
X170688000Y-139700000D01*
X179534998Y-136525000D02*
X179070000Y-136525000D01*
X181985000Y-136510000D02*
X181459999Y-135984999D01*
X181459999Y-135984999D02*
X180074999Y-135984999D01*
X180074999Y-135984999D02*
X179534998Y-136525000D01*
X182560000Y-136510000D02*
X181985000Y-136510000D01*
X163080000Y-123190000D02*
X163080000Y-122490000D01*
X163080000Y-122490000D02*
X162560000Y-121970000D01*
X162560000Y-117344998D02*
X162560000Y-116990000D01*
X162560000Y-121970000D02*
X162560000Y-118875002D01*
X162560000Y-118875002D02*
X162504999Y-118820001D01*
X162504999Y-118820001D02*
X162504999Y-117399999D01*
X162504999Y-117399999D02*
X162560000Y-117344998D01*
X162560000Y-116990000D02*
X163515000Y-116035000D01*
X163515000Y-116035000D02*
X163515000Y-115585000D01*
X163080000Y-123190000D02*
X161925000Y-123190000D01*
X161925000Y-123190000D02*
X160020000Y-125095000D01*
X166050000Y-133350000D02*
X165475000Y-133350000D01*
X159299569Y-132799199D02*
X159299569Y-133223463D01*
X159385000Y-132715000D02*
X159383768Y-132715000D01*
X159383768Y-132715000D02*
X159299569Y-132799199D01*
X165475000Y-133350000D02*
X165250012Y-133125012D01*
X165250012Y-133125012D02*
X165250012Y-132230012D01*
X165250012Y-132230012D02*
X163830000Y-130810000D01*
X163830000Y-130810000D02*
X160094998Y-130810000D01*
X160094998Y-130810000D02*
X159520006Y-131384992D01*
X159520006Y-131384992D02*
X159520006Y-132579994D01*
X159520006Y-132579994D02*
X159385000Y-132715000D01*
X166050000Y-133350000D02*
X165925003Y-133225003D01*
X165735000Y-133350000D02*
X165735000Y-133225001D01*
X165735000Y-133225001D02*
X165925001Y-133225001D01*
X166050000Y-133350000D02*
X165925001Y-133225001D01*
X163511414Y-132700000D02*
X163575000Y-132700000D01*
X162978415Y-133232999D02*
X163511414Y-132700000D01*
X162259999Y-133232999D02*
X162978415Y-133232999D01*
X161934999Y-133557999D02*
X162259999Y-133232999D01*
X161934999Y-133811999D02*
X161934999Y-133557999D01*
X158204999Y-134629999D02*
X158609999Y-134224999D01*
X157790001Y-134629999D02*
X158204999Y-134629999D01*
X156730000Y-135690000D02*
X157790001Y-134629999D01*
X156730000Y-135890000D02*
X156730000Y-135690000D01*
X163575000Y-132700000D02*
X164150000Y-132700000D01*
X161521999Y-134224999D02*
X161934999Y-133811999D01*
X158609999Y-134224999D02*
X161521999Y-134224999D01*
X166050000Y-134000000D02*
X165475000Y-134000000D01*
X165475000Y-134000000D02*
X164800001Y-133325001D01*
X164800001Y-133325001D02*
X164800001Y-132775001D01*
X164800001Y-132775001D02*
X164725000Y-132700000D01*
X164725000Y-132700000D02*
X164150000Y-132700000D01*
X156730000Y-136090000D02*
X156730000Y-135890000D01*
X169290000Y-86995000D02*
X169290000Y-83440000D01*
X169290000Y-83440000D02*
X170180000Y-82550000D01*
X170180000Y-80010000D02*
X170180000Y-82550000D01*
X181189999Y-80859999D02*
X180340000Y-80010000D01*
X180340000Y-82550000D02*
X181189999Y-81700001D01*
X181189999Y-81700001D02*
X181189999Y-80859999D01*
X182625000Y-86995000D02*
X182625000Y-84835000D01*
X182625000Y-84835000D02*
X180340000Y-82550000D01*
D27*
G36*
X155844792Y-146809594D02*
X155832560Y-146870000D01*
X155832560Y-147770000D01*
X155876838Y-148005317D01*
X156015910Y-148221441D01*
X156228110Y-148366431D01*
X156480000Y-148417440D01*
X156752638Y-148417440D01*
X156827599Y-148492401D01*
X157074161Y-148657148D01*
X157281297Y-148698350D01*
X157429160Y-148797149D01*
X157719999Y-148855001D01*
X158740001Y-148855001D01*
X159030840Y-148797149D01*
X159153785Y-148715000D01*
X159385000Y-148715000D01*
X159392560Y-148713496D01*
X159392560Y-148960000D01*
X159436838Y-149195317D01*
X159575910Y-149411441D01*
X159788110Y-149556431D01*
X160040000Y-149607440D01*
X162540000Y-149607440D01*
X162775317Y-149563162D01*
X162801507Y-149546309D01*
X163230197Y-149974999D01*
X158669801Y-149974999D01*
X158415122Y-149720320D01*
X158415162Y-149674833D01*
X158273117Y-149331057D01*
X158010327Y-149067808D01*
X157666799Y-148925162D01*
X157294833Y-148924838D01*
X156951057Y-149066883D01*
X156687808Y-149329673D01*
X156545162Y-149673201D01*
X156544838Y-150045167D01*
X156686883Y-150388943D01*
X156949673Y-150652192D01*
X157293201Y-150794838D01*
X157340077Y-150794879D01*
X157817598Y-151272400D01*
X158064159Y-151437147D01*
X158112413Y-151446745D01*
X158354999Y-151494999D01*
X159392560Y-151494999D01*
X159392560Y-152060000D01*
X159436838Y-152295317D01*
X159575910Y-152511441D01*
X159788110Y-152656431D01*
X160040000Y-152707440D01*
X162540000Y-152707440D01*
X162775317Y-152663162D01*
X162991441Y-152524090D01*
X163136431Y-152311890D01*
X163187440Y-152060000D01*
X163187440Y-151494999D01*
X172092560Y-151494999D01*
X172092560Y-152060000D01*
X172109118Y-152148000D01*
X169672000Y-152148000D01*
X169381161Y-152205852D01*
X169134599Y-152370599D01*
X167917247Y-153587951D01*
X167910709Y-153585236D01*
X167371656Y-153584765D01*
X166873457Y-153790617D01*
X166491957Y-154171452D01*
X166285236Y-154669291D01*
X166284765Y-155208344D01*
X166490617Y-155706543D01*
X166871452Y-156088043D01*
X167165264Y-156210045D01*
X166873457Y-156330617D01*
X166491957Y-156711452D01*
X166285236Y-157209291D01*
X166284765Y-157748344D01*
X166490617Y-158246543D01*
X166871452Y-158628043D01*
X167165264Y-158750045D01*
X166873457Y-158870617D01*
X166491957Y-159251452D01*
X166285236Y-159749291D01*
X166284765Y-160288344D01*
X166490617Y-160786543D01*
X166871452Y-161168043D01*
X167369291Y-161374764D01*
X167908344Y-161375235D01*
X168406543Y-161169383D01*
X168788043Y-160788548D01*
X168994764Y-160290709D01*
X168994890Y-160145750D01*
X172105000Y-160145750D01*
X172105000Y-160486310D01*
X172201673Y-160719699D01*
X172380302Y-160898327D01*
X172613691Y-160995000D01*
X173704250Y-160995000D01*
X173863000Y-160836250D01*
X173863000Y-159987000D01*
X174117000Y-159987000D01*
X174117000Y-160836250D01*
X174275750Y-160995000D01*
X175366309Y-160995000D01*
X175599698Y-160898327D01*
X175778327Y-160719699D01*
X175875000Y-160486310D01*
X175875000Y-160145750D01*
X184805000Y-160145750D01*
X184805000Y-160486310D01*
X184901673Y-160719699D01*
X185080302Y-160898327D01*
X185313691Y-160995000D01*
X186404250Y-160995000D01*
X186563000Y-160836250D01*
X186563000Y-159987000D01*
X186817000Y-159987000D01*
X186817000Y-160836250D01*
X186975750Y-160995000D01*
X188066309Y-160995000D01*
X188299698Y-160898327D01*
X188478327Y-160719699D01*
X188575000Y-160486310D01*
X188575000Y-160145750D01*
X188416250Y-159987000D01*
X186817000Y-159987000D01*
X186563000Y-159987000D01*
X184963750Y-159987000D01*
X184805000Y-160145750D01*
X175875000Y-160145750D01*
X175716250Y-159987000D01*
X174117000Y-159987000D01*
X173863000Y-159987000D01*
X172263750Y-159987000D01*
X172105000Y-160145750D01*
X168994890Y-160145750D01*
X168995235Y-159751656D01*
X168789383Y-159253457D01*
X168769651Y-159233690D01*
X172105000Y-159233690D01*
X172105000Y-159574250D01*
X172263750Y-159733000D01*
X173863000Y-159733000D01*
X173863000Y-158883750D01*
X174117000Y-158883750D01*
X174117000Y-159733000D01*
X175716250Y-159733000D01*
X175875000Y-159574250D01*
X175875000Y-159233690D01*
X184805000Y-159233690D01*
X184805000Y-159574250D01*
X184963750Y-159733000D01*
X186563000Y-159733000D01*
X186563000Y-158883750D01*
X186817000Y-158883750D01*
X186817000Y-159733000D01*
X188416250Y-159733000D01*
X188575000Y-159574250D01*
X188575000Y-159233690D01*
X188478327Y-159000301D01*
X188299698Y-158821673D01*
X188066309Y-158725000D01*
X186975750Y-158725000D01*
X186817000Y-158883750D01*
X186563000Y-158883750D01*
X186404250Y-158725000D01*
X185313691Y-158725000D01*
X185080302Y-158821673D01*
X184901673Y-159000301D01*
X184805000Y-159233690D01*
X175875000Y-159233690D01*
X175778327Y-159000301D01*
X175599698Y-158821673D01*
X175366309Y-158725000D01*
X174275750Y-158725000D01*
X174117000Y-158883750D01*
X173863000Y-158883750D01*
X173704250Y-158725000D01*
X172613691Y-158725000D01*
X172380302Y-158821673D01*
X172201673Y-159000301D01*
X172105000Y-159233690D01*
X168769651Y-159233690D01*
X168408548Y-158871957D01*
X168114736Y-158749955D01*
X168406543Y-158629383D01*
X168788043Y-158248548D01*
X168994764Y-157750709D01*
X168995235Y-157211656D01*
X168789383Y-156713457D01*
X168408548Y-156331957D01*
X168114736Y-156209955D01*
X168406543Y-156089383D01*
X168788043Y-155708548D01*
X168994764Y-155210709D01*
X168995235Y-154671656D01*
X168991700Y-154663102D01*
X169986802Y-153668000D01*
X172410102Y-153668000D01*
X172086898Y-154151709D01*
X171930097Y-154940000D01*
X172086898Y-155728291D01*
X172533429Y-156396571D01*
X173201709Y-156843102D01*
X173990000Y-156999903D01*
X174778291Y-156843102D01*
X175446571Y-156396571D01*
X175893102Y-155728291D01*
X176049903Y-154940000D01*
X175893102Y-154151709D01*
X175569898Y-153668000D01*
X185110102Y-153668000D01*
X184786898Y-154151709D01*
X184630097Y-154940000D01*
X184786898Y-155728291D01*
X185233429Y-156396571D01*
X185901709Y-156843102D01*
X186690000Y-156999903D01*
X187478291Y-156843102D01*
X188146571Y-156396571D01*
X188593102Y-155728291D01*
X188749903Y-154940000D01*
X188593102Y-154151709D01*
X188149941Y-153488473D01*
X188214403Y-153445401D01*
X193670000Y-147989805D01*
X193670000Y-161412000D01*
X155580000Y-161412000D01*
X155580000Y-160145750D01*
X159405000Y-160145750D01*
X159405000Y-160486310D01*
X159501673Y-160719699D01*
X159680302Y-160898327D01*
X159913691Y-160995000D01*
X161004250Y-160995000D01*
X161163000Y-160836250D01*
X161163000Y-159987000D01*
X161417000Y-159987000D01*
X161417000Y-160836250D01*
X161575750Y-160995000D01*
X162666309Y-160995000D01*
X162899698Y-160898327D01*
X163078327Y-160719699D01*
X163175000Y-160486310D01*
X163175000Y-160145750D01*
X163016250Y-159987000D01*
X161417000Y-159987000D01*
X161163000Y-159987000D01*
X159563750Y-159987000D01*
X159405000Y-160145750D01*
X155580000Y-160145750D01*
X155580000Y-159233690D01*
X159405000Y-159233690D01*
X159405000Y-159574250D01*
X159563750Y-159733000D01*
X161163000Y-159733000D01*
X161163000Y-158883750D01*
X161417000Y-158883750D01*
X161417000Y-159733000D01*
X163016250Y-159733000D01*
X163175000Y-159574250D01*
X163175000Y-159233690D01*
X163078327Y-159000301D01*
X162899698Y-158821673D01*
X162666309Y-158725000D01*
X161575750Y-158725000D01*
X161417000Y-158883750D01*
X161163000Y-158883750D01*
X161004250Y-158725000D01*
X159913691Y-158725000D01*
X159680302Y-158821673D01*
X159501673Y-159000301D01*
X159405000Y-159233690D01*
X155580000Y-159233690D01*
X155580000Y-154940000D01*
X159230097Y-154940000D01*
X159386898Y-155728291D01*
X159833429Y-156396571D01*
X160501709Y-156843102D01*
X161290000Y-156999903D01*
X162078291Y-156843102D01*
X162746571Y-156396571D01*
X163193102Y-155728291D01*
X163349903Y-154940000D01*
X163193102Y-154151709D01*
X162746571Y-153483429D01*
X162078291Y-153036898D01*
X161290000Y-152880097D01*
X160501709Y-153036898D01*
X159833429Y-153483429D01*
X159386898Y-154151709D01*
X159230097Y-154940000D01*
X155580000Y-154940000D01*
X155580000Y-146544802D01*
X155844792Y-146809594D01*
X155844792Y-146809594D01*
G37*
X155844792Y-146809594D02*
X155832560Y-146870000D01*
X155832560Y-147770000D01*
X155876838Y-148005317D01*
X156015910Y-148221441D01*
X156228110Y-148366431D01*
X156480000Y-148417440D01*
X156752638Y-148417440D01*
X156827599Y-148492401D01*
X157074161Y-148657148D01*
X157281297Y-148698350D01*
X157429160Y-148797149D01*
X157719999Y-148855001D01*
X158740001Y-148855001D01*
X159030840Y-148797149D01*
X159153785Y-148715000D01*
X159385000Y-148715000D01*
X159392560Y-148713496D01*
X159392560Y-148960000D01*
X159436838Y-149195317D01*
X159575910Y-149411441D01*
X159788110Y-149556431D01*
X160040000Y-149607440D01*
X162540000Y-149607440D01*
X162775317Y-149563162D01*
X162801507Y-149546309D01*
X163230197Y-149974999D01*
X158669801Y-149974999D01*
X158415122Y-149720320D01*
X158415162Y-149674833D01*
X158273117Y-149331057D01*
X158010327Y-149067808D01*
X157666799Y-148925162D01*
X157294833Y-148924838D01*
X156951057Y-149066883D01*
X156687808Y-149329673D01*
X156545162Y-149673201D01*
X156544838Y-150045167D01*
X156686883Y-150388943D01*
X156949673Y-150652192D01*
X157293201Y-150794838D01*
X157340077Y-150794879D01*
X157817598Y-151272400D01*
X158064159Y-151437147D01*
X158112413Y-151446745D01*
X158354999Y-151494999D01*
X159392560Y-151494999D01*
X159392560Y-152060000D01*
X159436838Y-152295317D01*
X159575910Y-152511441D01*
X159788110Y-152656431D01*
X160040000Y-152707440D01*
X162540000Y-152707440D01*
X162775317Y-152663162D01*
X162991441Y-152524090D01*
X163136431Y-152311890D01*
X163187440Y-152060000D01*
X163187440Y-151494999D01*
X172092560Y-151494999D01*
X172092560Y-152060000D01*
X172109118Y-152148000D01*
X169672000Y-152148000D01*
X169381161Y-152205852D01*
X169134599Y-152370599D01*
X167917247Y-153587951D01*
X167910709Y-153585236D01*
X167371656Y-153584765D01*
X166873457Y-153790617D01*
X166491957Y-154171452D01*
X166285236Y-154669291D01*
X166284765Y-155208344D01*
X166490617Y-155706543D01*
X166871452Y-156088043D01*
X167165264Y-156210045D01*
X166873457Y-156330617D01*
X166491957Y-156711452D01*
X166285236Y-157209291D01*
X166284765Y-157748344D01*
X166490617Y-158246543D01*
X166871452Y-158628043D01*
X167165264Y-158750045D01*
X166873457Y-158870617D01*
X166491957Y-159251452D01*
X166285236Y-159749291D01*
X166284765Y-160288344D01*
X166490617Y-160786543D01*
X166871452Y-161168043D01*
X167369291Y-161374764D01*
X167908344Y-161375235D01*
X168406543Y-161169383D01*
X168788043Y-160788548D01*
X168994764Y-160290709D01*
X168994890Y-160145750D01*
X172105000Y-160145750D01*
X172105000Y-160486310D01*
X172201673Y-160719699D01*
X172380302Y-160898327D01*
X172613691Y-160995000D01*
X173704250Y-160995000D01*
X173863000Y-160836250D01*
X173863000Y-159987000D01*
X174117000Y-159987000D01*
X174117000Y-160836250D01*
X174275750Y-160995000D01*
X175366309Y-160995000D01*
X175599698Y-160898327D01*
X175778327Y-160719699D01*
X175875000Y-160486310D01*
X175875000Y-160145750D01*
X184805000Y-160145750D01*
X184805000Y-160486310D01*
X184901673Y-160719699D01*
X185080302Y-160898327D01*
X185313691Y-160995000D01*
X186404250Y-160995000D01*
X186563000Y-160836250D01*
X186563000Y-159987000D01*
X186817000Y-159987000D01*
X186817000Y-160836250D01*
X186975750Y-160995000D01*
X188066309Y-160995000D01*
X188299698Y-160898327D01*
X188478327Y-160719699D01*
X188575000Y-160486310D01*
X188575000Y-160145750D01*
X188416250Y-159987000D01*
X186817000Y-159987000D01*
X186563000Y-159987000D01*
X184963750Y-159987000D01*
X184805000Y-160145750D01*
X175875000Y-160145750D01*
X175716250Y-159987000D01*
X174117000Y-159987000D01*
X173863000Y-159987000D01*
X172263750Y-159987000D01*
X172105000Y-160145750D01*
X168994890Y-160145750D01*
X168995235Y-159751656D01*
X168789383Y-159253457D01*
X168769651Y-159233690D01*
X172105000Y-159233690D01*
X172105000Y-159574250D01*
X172263750Y-159733000D01*
X173863000Y-159733000D01*
X173863000Y-158883750D01*
X174117000Y-158883750D01*
X174117000Y-159733000D01*
X175716250Y-159733000D01*
X175875000Y-159574250D01*
X175875000Y-159233690D01*
X184805000Y-159233690D01*
X184805000Y-159574250D01*
X184963750Y-159733000D01*
X186563000Y-159733000D01*
X186563000Y-158883750D01*
X186817000Y-158883750D01*
X186817000Y-159733000D01*
X188416250Y-159733000D01*
X188575000Y-159574250D01*
X188575000Y-159233690D01*
X188478327Y-159000301D01*
X188299698Y-158821673D01*
X188066309Y-158725000D01*
X186975750Y-158725000D01*
X186817000Y-158883750D01*
X186563000Y-158883750D01*
X186404250Y-158725000D01*
X185313691Y-158725000D01*
X185080302Y-158821673D01*
X184901673Y-159000301D01*
X184805000Y-159233690D01*
X175875000Y-159233690D01*
X175778327Y-159000301D01*
X175599698Y-158821673D01*
X175366309Y-158725000D01*
X174275750Y-158725000D01*
X174117000Y-158883750D01*
X173863000Y-158883750D01*
X173704250Y-158725000D01*
X172613691Y-158725000D01*
X172380302Y-158821673D01*
X172201673Y-159000301D01*
X172105000Y-159233690D01*
X168769651Y-159233690D01*
X168408548Y-158871957D01*
X168114736Y-158749955D01*
X168406543Y-158629383D01*
X168788043Y-158248548D01*
X168994764Y-157750709D01*
X168995235Y-157211656D01*
X168789383Y-156713457D01*
X168408548Y-156331957D01*
X168114736Y-156209955D01*
X168406543Y-156089383D01*
X168788043Y-155708548D01*
X168994764Y-155210709D01*
X168995235Y-154671656D01*
X168991700Y-154663102D01*
X169986802Y-153668000D01*
X172410102Y-153668000D01*
X172086898Y-154151709D01*
X171930097Y-154940000D01*
X172086898Y-155728291D01*
X172533429Y-156396571D01*
X173201709Y-156843102D01*
X173990000Y-156999903D01*
X174778291Y-156843102D01*
X175446571Y-156396571D01*
X175893102Y-155728291D01*
X176049903Y-154940000D01*
X175893102Y-154151709D01*
X175569898Y-153668000D01*
X185110102Y-153668000D01*
X184786898Y-154151709D01*
X184630097Y-154940000D01*
X184786898Y-155728291D01*
X185233429Y-156396571D01*
X185901709Y-156843102D01*
X186690000Y-156999903D01*
X187478291Y-156843102D01*
X188146571Y-156396571D01*
X188593102Y-155728291D01*
X188749903Y-154940000D01*
X188593102Y-154151709D01*
X188149941Y-153488473D01*
X188214403Y-153445401D01*
X193670000Y-147989805D01*
X193670000Y-161412000D01*
X155580000Y-161412000D01*
X155580000Y-160145750D01*
X159405000Y-160145750D01*
X159405000Y-160486310D01*
X159501673Y-160719699D01*
X159680302Y-160898327D01*
X159913691Y-160995000D01*
X161004250Y-160995000D01*
X161163000Y-160836250D01*
X161163000Y-159987000D01*
X161417000Y-159987000D01*
X161417000Y-160836250D01*
X161575750Y-160995000D01*
X162666309Y-160995000D01*
X162899698Y-160898327D01*
X163078327Y-160719699D01*
X163175000Y-160486310D01*
X163175000Y-160145750D01*
X163016250Y-159987000D01*
X161417000Y-159987000D01*
X161163000Y-159987000D01*
X159563750Y-159987000D01*
X159405000Y-160145750D01*
X155580000Y-160145750D01*
X155580000Y-159233690D01*
X159405000Y-159233690D01*
X159405000Y-159574250D01*
X159563750Y-159733000D01*
X161163000Y-159733000D01*
X161163000Y-158883750D01*
X161417000Y-158883750D01*
X161417000Y-159733000D01*
X163016250Y-159733000D01*
X163175000Y-159574250D01*
X163175000Y-159233690D01*
X163078327Y-159000301D01*
X162899698Y-158821673D01*
X162666309Y-158725000D01*
X161575750Y-158725000D01*
X161417000Y-158883750D01*
X161163000Y-158883750D01*
X161004250Y-158725000D01*
X159913691Y-158725000D01*
X159680302Y-158821673D01*
X159501673Y-159000301D01*
X159405000Y-159233690D01*
X155580000Y-159233690D01*
X155580000Y-154940000D01*
X159230097Y-154940000D01*
X159386898Y-155728291D01*
X159833429Y-156396571D01*
X160501709Y-156843102D01*
X161290000Y-156999903D01*
X162078291Y-156843102D01*
X162746571Y-156396571D01*
X163193102Y-155728291D01*
X163349903Y-154940000D01*
X163193102Y-154151709D01*
X162746571Y-153483429D01*
X162078291Y-153036898D01*
X161290000Y-152880097D01*
X160501709Y-153036898D01*
X159833429Y-153483429D01*
X159386898Y-154151709D01*
X159230097Y-154940000D01*
X155580000Y-154940000D01*
X155580000Y-146544802D01*
X155844792Y-146809594D01*
G36*
X186895475Y-142295275D02*
X186817000Y-142373750D01*
X186817000Y-143223000D01*
X186837000Y-143223000D01*
X186837000Y-143477000D01*
X186817000Y-143477000D01*
X186817000Y-144326250D01*
X186975750Y-144485000D01*
X187230198Y-144485000D01*
X186993732Y-144721466D01*
X186980839Y-144712852D01*
X186937450Y-144704221D01*
X186740840Y-144572851D01*
X186616076Y-144548034D01*
X186592401Y-144512601D01*
X186484525Y-144404725D01*
X186563000Y-144326250D01*
X186563000Y-143477000D01*
X186543000Y-143477000D01*
X186543000Y-143223000D01*
X186563000Y-143223000D01*
X186563000Y-142373750D01*
X186404250Y-142215000D01*
X185313691Y-142215000D01*
X185080302Y-142311673D01*
X184910000Y-142481974D01*
X184910000Y-140309800D01*
X186895475Y-142295275D01*
X186895475Y-142295275D01*
G37*
X186895475Y-142295275D02*
X186817000Y-142373750D01*
X186817000Y-143223000D01*
X186837000Y-143223000D01*
X186837000Y-143477000D01*
X186817000Y-143477000D01*
X186817000Y-144326250D01*
X186975750Y-144485000D01*
X187230198Y-144485000D01*
X186993732Y-144721466D01*
X186980839Y-144712852D01*
X186937450Y-144704221D01*
X186740840Y-144572851D01*
X186616076Y-144548034D01*
X186592401Y-144512601D01*
X186484525Y-144404725D01*
X186563000Y-144326250D01*
X186563000Y-143477000D01*
X186543000Y-143477000D01*
X186543000Y-143223000D01*
X186563000Y-143223000D01*
X186563000Y-142373750D01*
X186404250Y-142215000D01*
X185313691Y-142215000D01*
X185080302Y-142311673D01*
X184910000Y-142481974D01*
X184910000Y-140309800D01*
X186895475Y-142295275D01*
G36*
X161417000Y-143223000D02*
X161437000Y-143223000D01*
X161437000Y-143415001D01*
X161143000Y-143415001D01*
X161143000Y-143223000D01*
X161163000Y-143223000D01*
X161163000Y-143205651D01*
X161166968Y-143203000D01*
X161417000Y-143203000D01*
X161417000Y-143223000D01*
X161417000Y-143223000D01*
G37*
X161417000Y-143223000D02*
X161437000Y-143223000D01*
X161437000Y-143415001D01*
X161143000Y-143415001D01*
X161143000Y-143223000D01*
X161163000Y-143223000D01*
X161163000Y-143205651D01*
X161166968Y-143203000D01*
X161417000Y-143203000D01*
X161417000Y-143223000D01*
G36*
X178912808Y-141074673D02*
X178770162Y-141418201D01*
X178769838Y-141790167D01*
X178911883Y-142133943D01*
X179174673Y-142397192D01*
X179518201Y-142539838D01*
X179890167Y-142540162D01*
X180109336Y-142449603D01*
X180145910Y-142506441D01*
X180358110Y-142651431D01*
X180610000Y-142702440D01*
X181110000Y-142702440D01*
X181345317Y-142658162D01*
X181561441Y-142519090D01*
X181609134Y-142449289D01*
X181645910Y-142506441D01*
X181858110Y-142651431D01*
X182110000Y-142702440D01*
X182610000Y-142702440D01*
X182755000Y-142675156D01*
X182755000Y-143282560D01*
X182662362Y-143282560D01*
X182447400Y-143067598D01*
X182200838Y-142902851D01*
X181909999Y-142844999D01*
X180074999Y-142844999D01*
X179784160Y-142902851D01*
X179537598Y-143067598D01*
X179190195Y-143415001D01*
X173843000Y-143415001D01*
X173843000Y-143223000D01*
X173863000Y-143223000D01*
X173863000Y-142373750D01*
X173714456Y-142225206D01*
X173725317Y-142223162D01*
X173941441Y-142084090D01*
X173989134Y-142014289D01*
X174025910Y-142071441D01*
X174238110Y-142216431D01*
X174268221Y-142222529D01*
X174117000Y-142373750D01*
X174117000Y-143223000D01*
X175716250Y-143223000D01*
X175875000Y-143064250D01*
X175875000Y-142723690D01*
X175778327Y-142490301D01*
X175599698Y-142311673D01*
X175366309Y-142215000D01*
X175238001Y-142215000D01*
X175441441Y-142084090D01*
X175546726Y-141930000D01*
X176965000Y-141930000D01*
X177091003Y-141904936D01*
X177350167Y-141905162D01*
X177693943Y-141763117D01*
X177957192Y-141500327D01*
X178099838Y-141156799D01*
X178099901Y-141085002D01*
X178735002Y-141085002D01*
X178944133Y-141043403D01*
X178912808Y-141074673D01*
X178912808Y-141074673D01*
G37*
X178912808Y-141074673D02*
X178770162Y-141418201D01*
X178769838Y-141790167D01*
X178911883Y-142133943D01*
X179174673Y-142397192D01*
X179518201Y-142539838D01*
X179890167Y-142540162D01*
X180109336Y-142449603D01*
X180145910Y-142506441D01*
X180358110Y-142651431D01*
X180610000Y-142702440D01*
X181110000Y-142702440D01*
X181345317Y-142658162D01*
X181561441Y-142519090D01*
X181609134Y-142449289D01*
X181645910Y-142506441D01*
X181858110Y-142651431D01*
X182110000Y-142702440D01*
X182610000Y-142702440D01*
X182755000Y-142675156D01*
X182755000Y-143282560D01*
X182662362Y-143282560D01*
X182447400Y-143067598D01*
X182200838Y-142902851D01*
X181909999Y-142844999D01*
X180074999Y-142844999D01*
X179784160Y-142902851D01*
X179537598Y-143067598D01*
X179190195Y-143415001D01*
X173843000Y-143415001D01*
X173843000Y-143223000D01*
X173863000Y-143223000D01*
X173863000Y-142373750D01*
X173714456Y-142225206D01*
X173725317Y-142223162D01*
X173941441Y-142084090D01*
X173989134Y-142014289D01*
X174025910Y-142071441D01*
X174238110Y-142216431D01*
X174268221Y-142222529D01*
X174117000Y-142373750D01*
X174117000Y-143223000D01*
X175716250Y-143223000D01*
X175875000Y-143064250D01*
X175875000Y-142723690D01*
X175778327Y-142490301D01*
X175599698Y-142311673D01*
X175366309Y-142215000D01*
X175238001Y-142215000D01*
X175441441Y-142084090D01*
X175546726Y-141930000D01*
X176965000Y-141930000D01*
X177091003Y-141904936D01*
X177350167Y-141905162D01*
X177693943Y-141763117D01*
X177957192Y-141500327D01*
X178099838Y-141156799D01*
X178099901Y-141085002D01*
X178735002Y-141085002D01*
X178944133Y-141043403D01*
X178912808Y-141074673D01*
G36*
X172092560Y-135164022D02*
X172048166Y-135172853D01*
X171801604Y-135337600D01*
X171047100Y-136092104D01*
X170882353Y-136338666D01*
X170876460Y-136368290D01*
X170815000Y-136429750D01*
X170815000Y-137033000D01*
X170824501Y-137033000D01*
X170824501Y-137090999D01*
X169856499Y-137090999D01*
X169565659Y-137148851D01*
X169319098Y-137313598D01*
X167692696Y-138940000D01*
X166535633Y-138940000D01*
X166669838Y-138616799D01*
X166670162Y-138244833D01*
X166528117Y-137901057D01*
X166265327Y-137637808D01*
X165921799Y-137495162D01*
X165549833Y-137494838D01*
X165539724Y-137499015D01*
X165556940Y-137414000D01*
X165556940Y-137333362D01*
X166110611Y-136779691D01*
X169481500Y-136779691D01*
X169481500Y-136874250D01*
X169640250Y-137033000D01*
X170561000Y-137033000D01*
X170561000Y-136429750D01*
X170402250Y-136271000D01*
X169990190Y-136271000D01*
X169756801Y-136367673D01*
X169578173Y-136546302D01*
X169481500Y-136779691D01*
X166110611Y-136779691D01*
X167237402Y-135652900D01*
X167402149Y-135406338D01*
X167460001Y-135115499D01*
X167460001Y-134896069D01*
X167658110Y-135031431D01*
X167910000Y-135082440D01*
X168410000Y-135082440D01*
X168645317Y-135038162D01*
X168861441Y-134899090D01*
X168909134Y-134829289D01*
X168945910Y-134886441D01*
X169158110Y-135031431D01*
X169410000Y-135082440D01*
X169910000Y-135082440D01*
X170145317Y-135038162D01*
X170361441Y-134899090D01*
X170466726Y-134745000D01*
X172092560Y-134745000D01*
X172092560Y-135164022D01*
X172092560Y-135164022D01*
G37*
X172092560Y-135164022D02*
X172048166Y-135172853D01*
X171801604Y-135337600D01*
X171047100Y-136092104D01*
X170882353Y-136338666D01*
X170876460Y-136368290D01*
X170815000Y-136429750D01*
X170815000Y-137033000D01*
X170824501Y-137033000D01*
X170824501Y-137090999D01*
X169856499Y-137090999D01*
X169565659Y-137148851D01*
X169319098Y-137313598D01*
X167692696Y-138940000D01*
X166535633Y-138940000D01*
X166669838Y-138616799D01*
X166670162Y-138244833D01*
X166528117Y-137901057D01*
X166265327Y-137637808D01*
X165921799Y-137495162D01*
X165549833Y-137494838D01*
X165539724Y-137499015D01*
X165556940Y-137414000D01*
X165556940Y-137333362D01*
X166110611Y-136779691D01*
X169481500Y-136779691D01*
X169481500Y-136874250D01*
X169640250Y-137033000D01*
X170561000Y-137033000D01*
X170561000Y-136429750D01*
X170402250Y-136271000D01*
X169990190Y-136271000D01*
X169756801Y-136367673D01*
X169578173Y-136546302D01*
X169481500Y-136779691D01*
X166110611Y-136779691D01*
X167237402Y-135652900D01*
X167402149Y-135406338D01*
X167460001Y-135115499D01*
X167460001Y-134896069D01*
X167658110Y-135031431D01*
X167910000Y-135082440D01*
X168410000Y-135082440D01*
X168645317Y-135038162D01*
X168861441Y-134899090D01*
X168909134Y-134829289D01*
X168945910Y-134886441D01*
X169158110Y-135031431D01*
X169410000Y-135082440D01*
X169910000Y-135082440D01*
X170145317Y-135038162D01*
X170361441Y-134899090D01*
X170466726Y-134745000D01*
X172092560Y-134745000D01*
X172092560Y-135164022D01*
G36*
X174246000Y-108182800D02*
X174246000Y-119042596D01*
X173677598Y-119610998D01*
X173512851Y-119857560D01*
X173454999Y-120148399D01*
X173454999Y-124176999D01*
X173484000Y-124322796D01*
X173484000Y-125082602D01*
X173454999Y-125228399D01*
X173454999Y-129000199D01*
X173452599Y-129002599D01*
X173287852Y-129249161D01*
X173230000Y-129540000D01*
X173230000Y-130802560D01*
X172740000Y-130802560D01*
X172504683Y-130846838D01*
X172288559Y-130985910D01*
X172143569Y-131198110D01*
X172092560Y-131450000D01*
X172092560Y-132015001D01*
X170968903Y-132015001D01*
X170716699Y-131762797D01*
X170716739Y-131717310D01*
X170574694Y-131373534D01*
X170541236Y-131340018D01*
X170557440Y-131260000D01*
X170557440Y-130360000D01*
X170513162Y-130124683D01*
X170462531Y-130046000D01*
X170887537Y-130046000D01*
X170919673Y-130078192D01*
X171263201Y-130220838D01*
X171635167Y-130221162D01*
X171978943Y-130079117D01*
X172242192Y-129816327D01*
X172384838Y-129472799D01*
X172385162Y-129100833D01*
X172243117Y-128757057D01*
X171980327Y-128493808D01*
X171636799Y-128351162D01*
X171264833Y-128350838D01*
X170921057Y-128492883D01*
X170887882Y-128526000D01*
X170441694Y-128526000D01*
X170282987Y-128367016D01*
X169939459Y-128224370D01*
X169567493Y-128224046D01*
X169223717Y-128366091D01*
X169035000Y-128554479D01*
X169035000Y-127424264D01*
X169018732Y-127342479D01*
X168977148Y-127133424D01*
X168812401Y-126886863D01*
X167911231Y-125985693D01*
X167939838Y-125916799D01*
X167940162Y-125544833D01*
X167798117Y-125201057D01*
X167535327Y-124937808D01*
X167191799Y-124795162D01*
X166974999Y-124794973D01*
X166974999Y-122931975D01*
X167045443Y-123002542D01*
X168013567Y-123404542D01*
X169061834Y-123405457D01*
X170030658Y-123005147D01*
X170772542Y-122264557D01*
X171174542Y-121296433D01*
X171175457Y-120248166D01*
X170775147Y-119279342D01*
X170034557Y-118537458D01*
X169066433Y-118135458D01*
X168018166Y-118134543D01*
X167580011Y-118315585D01*
X167580011Y-115115011D01*
X167522159Y-114824172D01*
X167357412Y-114577610D01*
X166527401Y-113747599D01*
X166280839Y-113582852D01*
X166067881Y-113540492D01*
X165991890Y-113488569D01*
X165740000Y-113437560D01*
X165090000Y-113437560D01*
X164854683Y-113481838D01*
X164638559Y-113620910D01*
X164575631Y-113713008D01*
X164380839Y-113582852D01*
X164275000Y-113561799D01*
X164275000Y-112137440D01*
X164487638Y-112137440D01*
X164764429Y-112414231D01*
X165010991Y-112578978D01*
X165301830Y-112636830D01*
X166027932Y-112636830D01*
X166318771Y-112578978D01*
X166324723Y-112575001D01*
X170779763Y-112575001D01*
X170739060Y-112776000D01*
X170739060Y-113284000D01*
X170783338Y-113519317D01*
X170877666Y-113665907D01*
X170790069Y-113794110D01*
X170748387Y-113999941D01*
X170629833Y-113999838D01*
X170286057Y-114141883D01*
X170022808Y-114404673D01*
X169880162Y-114748201D01*
X169879838Y-115120167D01*
X170021883Y-115463943D01*
X170284673Y-115727192D01*
X170628201Y-115869838D01*
X171000167Y-115870162D01*
X171343943Y-115728117D01*
X171607192Y-115465327D01*
X171647822Y-115367480D01*
X171813862Y-115201440D01*
X172529500Y-115201440D01*
X172764817Y-115157162D01*
X172980941Y-115018090D01*
X173125931Y-114805890D01*
X173176940Y-114554000D01*
X173176940Y-114046000D01*
X173132662Y-113810683D01*
X173038334Y-113664093D01*
X173125931Y-113535890D01*
X173176940Y-113284000D01*
X173176940Y-112776000D01*
X173161710Y-112695059D01*
X173275145Y-112695158D01*
X173618921Y-112553113D01*
X173882170Y-112290323D01*
X174024816Y-111946795D01*
X174025140Y-111574829D01*
X173883095Y-111231053D01*
X173620305Y-110967804D01*
X173276777Y-110825158D01*
X173160526Y-110825057D01*
X173176940Y-110744000D01*
X173176940Y-110236000D01*
X173132662Y-110000683D01*
X173041896Y-109859629D01*
X173067827Y-109833698D01*
X173164500Y-109600309D01*
X173164500Y-109505750D01*
X173005750Y-109347000D01*
X172085000Y-109347000D01*
X172085000Y-109367000D01*
X171831000Y-109367000D01*
X171831000Y-109347000D01*
X170910250Y-109347000D01*
X170751500Y-109505750D01*
X170751500Y-109600309D01*
X170805220Y-109730000D01*
X169725000Y-109730000D01*
X169434160Y-109787852D01*
X169372440Y-109829092D01*
X169372440Y-109490000D01*
X169328162Y-109254683D01*
X169189090Y-109038559D01*
X168976890Y-108893569D01*
X168725000Y-108842560D01*
X167825000Y-108842560D01*
X167716902Y-108862900D01*
X167958298Y-108621504D01*
X168004160Y-108652148D01*
X168295000Y-108710000D01*
X170805220Y-108710000D01*
X170751500Y-108839691D01*
X170751500Y-108934250D01*
X170910250Y-109093000D01*
X171831000Y-109093000D01*
X171831000Y-109073000D01*
X172085000Y-109073000D01*
X172085000Y-109093000D01*
X173005750Y-109093000D01*
X173164500Y-108934250D01*
X173164500Y-108839691D01*
X173067827Y-108606302D01*
X173041291Y-108579765D01*
X173125931Y-108455890D01*
X173141273Y-108380127D01*
X173275145Y-108380244D01*
X173618921Y-108238199D01*
X173882170Y-107975409D01*
X173928070Y-107864870D01*
X174246000Y-108182800D01*
X174246000Y-108182800D01*
G37*
X174246000Y-108182800D02*
X174246000Y-119042596D01*
X173677598Y-119610998D01*
X173512851Y-119857560D01*
X173454999Y-120148399D01*
X173454999Y-124176999D01*
X173484000Y-124322796D01*
X173484000Y-125082602D01*
X173454999Y-125228399D01*
X173454999Y-129000199D01*
X173452599Y-129002599D01*
X173287852Y-129249161D01*
X173230000Y-129540000D01*
X173230000Y-130802560D01*
X172740000Y-130802560D01*
X172504683Y-130846838D01*
X172288559Y-130985910D01*
X172143569Y-131198110D01*
X172092560Y-131450000D01*
X172092560Y-132015001D01*
X170968903Y-132015001D01*
X170716699Y-131762797D01*
X170716739Y-131717310D01*
X170574694Y-131373534D01*
X170541236Y-131340018D01*
X170557440Y-131260000D01*
X170557440Y-130360000D01*
X170513162Y-130124683D01*
X170462531Y-130046000D01*
X170887537Y-130046000D01*
X170919673Y-130078192D01*
X171263201Y-130220838D01*
X171635167Y-130221162D01*
X171978943Y-130079117D01*
X172242192Y-129816327D01*
X172384838Y-129472799D01*
X172385162Y-129100833D01*
X172243117Y-128757057D01*
X171980327Y-128493808D01*
X171636799Y-128351162D01*
X171264833Y-128350838D01*
X170921057Y-128492883D01*
X170887882Y-128526000D01*
X170441694Y-128526000D01*
X170282987Y-128367016D01*
X169939459Y-128224370D01*
X169567493Y-128224046D01*
X169223717Y-128366091D01*
X169035000Y-128554479D01*
X169035000Y-127424264D01*
X169018732Y-127342479D01*
X168977148Y-127133424D01*
X168812401Y-126886863D01*
X167911231Y-125985693D01*
X167939838Y-125916799D01*
X167940162Y-125544833D01*
X167798117Y-125201057D01*
X167535327Y-124937808D01*
X167191799Y-124795162D01*
X166974999Y-124794973D01*
X166974999Y-122931975D01*
X167045443Y-123002542D01*
X168013567Y-123404542D01*
X169061834Y-123405457D01*
X170030658Y-123005147D01*
X170772542Y-122264557D01*
X171174542Y-121296433D01*
X171175457Y-120248166D01*
X170775147Y-119279342D01*
X170034557Y-118537458D01*
X169066433Y-118135458D01*
X168018166Y-118134543D01*
X167580011Y-118315585D01*
X167580011Y-115115011D01*
X167522159Y-114824172D01*
X167357412Y-114577610D01*
X166527401Y-113747599D01*
X166280839Y-113582852D01*
X166067881Y-113540492D01*
X165991890Y-113488569D01*
X165740000Y-113437560D01*
X165090000Y-113437560D01*
X164854683Y-113481838D01*
X164638559Y-113620910D01*
X164575631Y-113713008D01*
X164380839Y-113582852D01*
X164275000Y-113561799D01*
X164275000Y-112137440D01*
X164487638Y-112137440D01*
X164764429Y-112414231D01*
X165010991Y-112578978D01*
X165301830Y-112636830D01*
X166027932Y-112636830D01*
X166318771Y-112578978D01*
X166324723Y-112575001D01*
X170779763Y-112575001D01*
X170739060Y-112776000D01*
X170739060Y-113284000D01*
X170783338Y-113519317D01*
X170877666Y-113665907D01*
X170790069Y-113794110D01*
X170748387Y-113999941D01*
X170629833Y-113999838D01*
X170286057Y-114141883D01*
X170022808Y-114404673D01*
X169880162Y-114748201D01*
X169879838Y-115120167D01*
X170021883Y-115463943D01*
X170284673Y-115727192D01*
X170628201Y-115869838D01*
X171000167Y-115870162D01*
X171343943Y-115728117D01*
X171607192Y-115465327D01*
X171647822Y-115367480D01*
X171813862Y-115201440D01*
X172529500Y-115201440D01*
X172764817Y-115157162D01*
X172980941Y-115018090D01*
X173125931Y-114805890D01*
X173176940Y-114554000D01*
X173176940Y-114046000D01*
X173132662Y-113810683D01*
X173038334Y-113664093D01*
X173125931Y-113535890D01*
X173176940Y-113284000D01*
X173176940Y-112776000D01*
X173161710Y-112695059D01*
X173275145Y-112695158D01*
X173618921Y-112553113D01*
X173882170Y-112290323D01*
X174024816Y-111946795D01*
X174025140Y-111574829D01*
X173883095Y-111231053D01*
X173620305Y-110967804D01*
X173276777Y-110825158D01*
X173160526Y-110825057D01*
X173176940Y-110744000D01*
X173176940Y-110236000D01*
X173132662Y-110000683D01*
X173041896Y-109859629D01*
X173067827Y-109833698D01*
X173164500Y-109600309D01*
X173164500Y-109505750D01*
X173005750Y-109347000D01*
X172085000Y-109347000D01*
X172085000Y-109367000D01*
X171831000Y-109367000D01*
X171831000Y-109347000D01*
X170910250Y-109347000D01*
X170751500Y-109505750D01*
X170751500Y-109600309D01*
X170805220Y-109730000D01*
X169725000Y-109730000D01*
X169434160Y-109787852D01*
X169372440Y-109829092D01*
X169372440Y-109490000D01*
X169328162Y-109254683D01*
X169189090Y-109038559D01*
X168976890Y-108893569D01*
X168725000Y-108842560D01*
X167825000Y-108842560D01*
X167716902Y-108862900D01*
X167958298Y-108621504D01*
X168004160Y-108652148D01*
X168295000Y-108710000D01*
X170805220Y-108710000D01*
X170751500Y-108839691D01*
X170751500Y-108934250D01*
X170910250Y-109093000D01*
X171831000Y-109093000D01*
X171831000Y-109073000D01*
X172085000Y-109073000D01*
X172085000Y-109093000D01*
X173005750Y-109093000D01*
X173164500Y-108934250D01*
X173164500Y-108839691D01*
X173067827Y-108606302D01*
X173041291Y-108579765D01*
X173125931Y-108455890D01*
X173141273Y-108380127D01*
X173275145Y-108380244D01*
X173618921Y-108238199D01*
X173882170Y-107975409D01*
X173928070Y-107864870D01*
X174246000Y-108182800D01*
G36*
X175999675Y-111282192D02*
X176343203Y-111424838D01*
X176715169Y-111425162D01*
X177058945Y-111283117D01*
X177092120Y-111250000D01*
X177142877Y-111250000D01*
X177140069Y-111254110D01*
X177089060Y-111506000D01*
X177089060Y-112014000D01*
X177133338Y-112249317D01*
X177227666Y-112395907D01*
X177140069Y-112524110D01*
X177089060Y-112776000D01*
X177089060Y-112856638D01*
X176627599Y-113318099D01*
X176462852Y-113564661D01*
X176405000Y-113855500D01*
X176405000Y-114372537D01*
X176372808Y-114404673D01*
X176230162Y-114748201D01*
X176229838Y-115120167D01*
X176371883Y-115463943D01*
X176634673Y-115727192D01*
X176978201Y-115869838D01*
X177350167Y-115870162D01*
X177693943Y-115728117D01*
X177957192Y-115465327D01*
X178066768Y-115201440D01*
X178879500Y-115201440D01*
X178887148Y-115200001D01*
X183054999Y-115200001D01*
X183345838Y-115142149D01*
X183592400Y-114977402D01*
X183807362Y-114762440D01*
X183880000Y-114762440D01*
X184015001Y-114737038D01*
X184015001Y-117637961D01*
X182675546Y-118977416D01*
X182646758Y-119020501D01*
X182164557Y-118537458D01*
X181196433Y-118135458D01*
X180148166Y-118134543D01*
X179179342Y-118534853D01*
X178437458Y-119275443D01*
X178035458Y-120243567D01*
X178034543Y-121291834D01*
X178434853Y-122260658D01*
X179175443Y-123002542D01*
X180143567Y-123404542D01*
X181191834Y-123405457D01*
X182160658Y-123005147D01*
X182902542Y-122264557D01*
X183304542Y-121296433D01*
X183304799Y-121001811D01*
X183398114Y-121001892D01*
X183642975Y-120900718D01*
X183642975Y-121065977D01*
X183700827Y-121356816D01*
X183865574Y-121603378D01*
X183910000Y-121647804D01*
X183910000Y-124266614D01*
X183823569Y-124393110D01*
X183772560Y-124645000D01*
X183772560Y-125545000D01*
X183816838Y-125780317D01*
X183955910Y-125996441D01*
X183969484Y-126005716D01*
X183793654Y-126181546D01*
X182114009Y-126181546D01*
X182081873Y-126149354D01*
X181738345Y-126006708D01*
X181366379Y-126006384D01*
X181022603Y-126148429D01*
X180759354Y-126411219D01*
X180616708Y-126754747D01*
X180616384Y-127126713D01*
X180758429Y-127470489D01*
X181021219Y-127733738D01*
X181364747Y-127876384D01*
X181421350Y-127876433D01*
X181385267Y-127963330D01*
X181384735Y-128573991D01*
X181617932Y-129138371D01*
X182049357Y-129570551D01*
X182613330Y-129804733D01*
X183223991Y-129805265D01*
X183788371Y-129572068D01*
X184170288Y-129190818D01*
X184549357Y-129570551D01*
X185113330Y-129804733D01*
X185723991Y-129805265D01*
X186288371Y-129572068D01*
X186720551Y-129140643D01*
X186724294Y-129131628D01*
X186839841Y-129170554D01*
X187740395Y-128270000D01*
X187726253Y-128255858D01*
X187905858Y-128076253D01*
X187920000Y-128090395D01*
X188820554Y-127189841D01*
X188734148Y-126933357D01*
X188160664Y-126723542D01*
X187550540Y-126749161D01*
X187105852Y-126933357D01*
X187019447Y-127189839D01*
X186930000Y-127100392D01*
X186930000Y-125923386D01*
X187016431Y-125796890D01*
X187067440Y-125545000D01*
X187067440Y-124645000D01*
X187023162Y-124409683D01*
X186884090Y-124193559D01*
X186671890Y-124048569D01*
X186420000Y-123997560D01*
X186320831Y-123997560D01*
X187994677Y-122323714D01*
X187995929Y-122321841D01*
X188675443Y-123002542D01*
X189643567Y-123404542D01*
X190691834Y-123405457D01*
X191660658Y-123005147D01*
X192402542Y-122264557D01*
X192580007Y-121837174D01*
X192580007Y-125735191D01*
X189271409Y-129043789D01*
X189466458Y-128510664D01*
X189440839Y-127900540D01*
X189256643Y-127455852D01*
X189000159Y-127369446D01*
X188099605Y-128270000D01*
X188113748Y-128284143D01*
X187934143Y-128463748D01*
X187920000Y-128449605D01*
X187019446Y-129350159D01*
X187105852Y-129606643D01*
X187679336Y-129816458D01*
X188289460Y-129790839D01*
X188690458Y-129624740D01*
X187512638Y-130802560D01*
X185440000Y-130802560D01*
X185204683Y-130846838D01*
X184988559Y-130985910D01*
X184843569Y-131198110D01*
X184792560Y-131450000D01*
X184792560Y-131950001D01*
X184459803Y-131950001D01*
X184052401Y-131542599D01*
X183805839Y-131377852D01*
X183532440Y-131323469D01*
X183532440Y-131230000D01*
X183488162Y-130994683D01*
X183349090Y-130778559D01*
X183136890Y-130633569D01*
X182885000Y-130582560D01*
X182235000Y-130582560D01*
X182215947Y-130586145D01*
X181997400Y-130367598D01*
X181750838Y-130202851D01*
X181459999Y-130144999D01*
X180074999Y-130144999D01*
X179784160Y-130202851D01*
X179726947Y-130241080D01*
X179514037Y-130027798D01*
X179170509Y-129885152D01*
X179123633Y-129885111D01*
X178112214Y-128873692D01*
X177865652Y-128708945D01*
X177574813Y-128651093D01*
X177317470Y-128651093D01*
X177285334Y-128618901D01*
X176941806Y-128476255D01*
X176569840Y-128475931D01*
X176226064Y-128617976D01*
X175962815Y-128880766D01*
X175820169Y-129224294D01*
X175819845Y-129596260D01*
X175961890Y-129940036D01*
X176224680Y-130203285D01*
X176568208Y-130345931D01*
X176940174Y-130346255D01*
X177283950Y-130204210D01*
X177288543Y-130199625D01*
X177773918Y-130685000D01*
X176830002Y-130685000D01*
X176587416Y-130733254D01*
X176539162Y-130742852D01*
X176292601Y-130907599D01*
X175865706Y-131334494D01*
X175843162Y-131214683D01*
X175704090Y-130998559D01*
X175491890Y-130853569D01*
X175240000Y-130802560D01*
X174750000Y-130802560D01*
X174750000Y-129854802D01*
X174752400Y-129852402D01*
X174917147Y-129605840D01*
X174974999Y-129315001D01*
X174974999Y-127066445D01*
X175062342Y-127097333D01*
X175600644Y-127068892D01*
X175965869Y-126917611D01*
X176030169Y-126679774D01*
X175260000Y-125909605D01*
X175245858Y-125923748D01*
X175066253Y-125744143D01*
X175080395Y-125730000D01*
X175439605Y-125730000D01*
X176209774Y-126500169D01*
X176447611Y-126435869D01*
X176627333Y-125927658D01*
X176598892Y-125389356D01*
X176447611Y-125024131D01*
X176209774Y-124959831D01*
X175439605Y-125730000D01*
X175080395Y-125730000D01*
X175066253Y-125715858D01*
X175245858Y-125536253D01*
X175260000Y-125550395D01*
X176030169Y-124780226D01*
X175965869Y-124542389D01*
X175733828Y-124460331D01*
X176026543Y-124339383D01*
X176408043Y-123958548D01*
X176614764Y-123460709D01*
X176615235Y-122921656D01*
X176409383Y-122423457D01*
X176028548Y-122041957D01*
X175734736Y-121919955D01*
X176026543Y-121799383D01*
X176408043Y-121418548D01*
X176614764Y-120920709D01*
X176615235Y-120381656D01*
X176409383Y-119883457D01*
X176028548Y-119501957D01*
X175759470Y-119390226D01*
X175766000Y-119357398D01*
X175766000Y-111048109D01*
X175999675Y-111282192D01*
X175999675Y-111282192D01*
G37*
X175999675Y-111282192D02*
X176343203Y-111424838D01*
X176715169Y-111425162D01*
X177058945Y-111283117D01*
X177092120Y-111250000D01*
X177142877Y-111250000D01*
X177140069Y-111254110D01*
X177089060Y-111506000D01*
X177089060Y-112014000D01*
X177133338Y-112249317D01*
X177227666Y-112395907D01*
X177140069Y-112524110D01*
X177089060Y-112776000D01*
X177089060Y-112856638D01*
X176627599Y-113318099D01*
X176462852Y-113564661D01*
X176405000Y-113855500D01*
X176405000Y-114372537D01*
X176372808Y-114404673D01*
X176230162Y-114748201D01*
X176229838Y-115120167D01*
X176371883Y-115463943D01*
X176634673Y-115727192D01*
X176978201Y-115869838D01*
X177350167Y-115870162D01*
X177693943Y-115728117D01*
X177957192Y-115465327D01*
X178066768Y-115201440D01*
X178879500Y-115201440D01*
X178887148Y-115200001D01*
X183054999Y-115200001D01*
X183345838Y-115142149D01*
X183592400Y-114977402D01*
X183807362Y-114762440D01*
X183880000Y-114762440D01*
X184015001Y-114737038D01*
X184015001Y-117637961D01*
X182675546Y-118977416D01*
X182646758Y-119020501D01*
X182164557Y-118537458D01*
X181196433Y-118135458D01*
X180148166Y-118134543D01*
X179179342Y-118534853D01*
X178437458Y-119275443D01*
X178035458Y-120243567D01*
X178034543Y-121291834D01*
X178434853Y-122260658D01*
X179175443Y-123002542D01*
X180143567Y-123404542D01*
X181191834Y-123405457D01*
X182160658Y-123005147D01*
X182902542Y-122264557D01*
X183304542Y-121296433D01*
X183304799Y-121001811D01*
X183398114Y-121001892D01*
X183642975Y-120900718D01*
X183642975Y-121065977D01*
X183700827Y-121356816D01*
X183865574Y-121603378D01*
X183910000Y-121647804D01*
X183910000Y-124266614D01*
X183823569Y-124393110D01*
X183772560Y-124645000D01*
X183772560Y-125545000D01*
X183816838Y-125780317D01*
X183955910Y-125996441D01*
X183969484Y-126005716D01*
X183793654Y-126181546D01*
X182114009Y-126181546D01*
X182081873Y-126149354D01*
X181738345Y-126006708D01*
X181366379Y-126006384D01*
X181022603Y-126148429D01*
X180759354Y-126411219D01*
X180616708Y-126754747D01*
X180616384Y-127126713D01*
X180758429Y-127470489D01*
X181021219Y-127733738D01*
X181364747Y-127876384D01*
X181421350Y-127876433D01*
X181385267Y-127963330D01*
X181384735Y-128573991D01*
X181617932Y-129138371D01*
X182049357Y-129570551D01*
X182613330Y-129804733D01*
X183223991Y-129805265D01*
X183788371Y-129572068D01*
X184170288Y-129190818D01*
X184549357Y-129570551D01*
X185113330Y-129804733D01*
X185723991Y-129805265D01*
X186288371Y-129572068D01*
X186720551Y-129140643D01*
X186724294Y-129131628D01*
X186839841Y-129170554D01*
X187740395Y-128270000D01*
X187726253Y-128255858D01*
X187905858Y-128076253D01*
X187920000Y-128090395D01*
X188820554Y-127189841D01*
X188734148Y-126933357D01*
X188160664Y-126723542D01*
X187550540Y-126749161D01*
X187105852Y-126933357D01*
X187019447Y-127189839D01*
X186930000Y-127100392D01*
X186930000Y-125923386D01*
X187016431Y-125796890D01*
X187067440Y-125545000D01*
X187067440Y-124645000D01*
X187023162Y-124409683D01*
X186884090Y-124193559D01*
X186671890Y-124048569D01*
X186420000Y-123997560D01*
X186320831Y-123997560D01*
X187994677Y-122323714D01*
X187995929Y-122321841D01*
X188675443Y-123002542D01*
X189643567Y-123404542D01*
X190691834Y-123405457D01*
X191660658Y-123005147D01*
X192402542Y-122264557D01*
X192580007Y-121837174D01*
X192580007Y-125735191D01*
X189271409Y-129043789D01*
X189466458Y-128510664D01*
X189440839Y-127900540D01*
X189256643Y-127455852D01*
X189000159Y-127369446D01*
X188099605Y-128270000D01*
X188113748Y-128284143D01*
X187934143Y-128463748D01*
X187920000Y-128449605D01*
X187019446Y-129350159D01*
X187105852Y-129606643D01*
X187679336Y-129816458D01*
X188289460Y-129790839D01*
X188690458Y-129624740D01*
X187512638Y-130802560D01*
X185440000Y-130802560D01*
X185204683Y-130846838D01*
X184988559Y-130985910D01*
X184843569Y-131198110D01*
X184792560Y-131450000D01*
X184792560Y-131950001D01*
X184459803Y-131950001D01*
X184052401Y-131542599D01*
X183805839Y-131377852D01*
X183532440Y-131323469D01*
X183532440Y-131230000D01*
X183488162Y-130994683D01*
X183349090Y-130778559D01*
X183136890Y-130633569D01*
X182885000Y-130582560D01*
X182235000Y-130582560D01*
X182215947Y-130586145D01*
X181997400Y-130367598D01*
X181750838Y-130202851D01*
X181459999Y-130144999D01*
X180074999Y-130144999D01*
X179784160Y-130202851D01*
X179726947Y-130241080D01*
X179514037Y-130027798D01*
X179170509Y-129885152D01*
X179123633Y-129885111D01*
X178112214Y-128873692D01*
X177865652Y-128708945D01*
X177574813Y-128651093D01*
X177317470Y-128651093D01*
X177285334Y-128618901D01*
X176941806Y-128476255D01*
X176569840Y-128475931D01*
X176226064Y-128617976D01*
X175962815Y-128880766D01*
X175820169Y-129224294D01*
X175819845Y-129596260D01*
X175961890Y-129940036D01*
X176224680Y-130203285D01*
X176568208Y-130345931D01*
X176940174Y-130346255D01*
X177283950Y-130204210D01*
X177288543Y-130199625D01*
X177773918Y-130685000D01*
X176830002Y-130685000D01*
X176587416Y-130733254D01*
X176539162Y-130742852D01*
X176292601Y-130907599D01*
X175865706Y-131334494D01*
X175843162Y-131214683D01*
X175704090Y-130998559D01*
X175491890Y-130853569D01*
X175240000Y-130802560D01*
X174750000Y-130802560D01*
X174750000Y-129854802D01*
X174752400Y-129852402D01*
X174917147Y-129605840D01*
X174974999Y-129315001D01*
X174974999Y-127066445D01*
X175062342Y-127097333D01*
X175600644Y-127068892D01*
X175965869Y-126917611D01*
X176030169Y-126679774D01*
X175260000Y-125909605D01*
X175245858Y-125923748D01*
X175066253Y-125744143D01*
X175080395Y-125730000D01*
X175439605Y-125730000D01*
X176209774Y-126500169D01*
X176447611Y-126435869D01*
X176627333Y-125927658D01*
X176598892Y-125389356D01*
X176447611Y-125024131D01*
X176209774Y-124959831D01*
X175439605Y-125730000D01*
X175080395Y-125730000D01*
X175066253Y-125715858D01*
X175245858Y-125536253D01*
X175260000Y-125550395D01*
X176030169Y-124780226D01*
X175965869Y-124542389D01*
X175733828Y-124460331D01*
X176026543Y-124339383D01*
X176408043Y-123958548D01*
X176614764Y-123460709D01*
X176615235Y-122921656D01*
X176409383Y-122423457D01*
X176028548Y-122041957D01*
X175734736Y-121919955D01*
X176026543Y-121799383D01*
X176408043Y-121418548D01*
X176614764Y-120920709D01*
X176615235Y-120381656D01*
X176409383Y-119883457D01*
X176028548Y-119501957D01*
X175759470Y-119390226D01*
X175766000Y-119357398D01*
X175766000Y-111048109D01*
X175999675Y-111282192D01*
G36*
X166483748Y-128255858D02*
X166469605Y-128270000D01*
X166483748Y-128284143D01*
X166304143Y-128463748D01*
X166290000Y-128449605D01*
X166275858Y-128463748D01*
X166096253Y-128284143D01*
X166110395Y-128270000D01*
X166096253Y-128255858D01*
X166275858Y-128076253D01*
X166290000Y-128090395D01*
X166304143Y-128076253D01*
X166483748Y-128255858D01*
X166483748Y-128255858D01*
G37*
X166483748Y-128255858D02*
X166469605Y-128270000D01*
X166483748Y-128284143D01*
X166304143Y-128463748D01*
X166290000Y-128449605D01*
X166275858Y-128463748D01*
X166096253Y-128284143D01*
X166110395Y-128270000D01*
X166096253Y-128255858D01*
X166275858Y-128076253D01*
X166290000Y-128090395D01*
X166304143Y-128076253D01*
X166483748Y-128255858D01*
G36*
X164705000Y-117983000D02*
X164727000Y-117983000D01*
X164727000Y-118237000D01*
X164705000Y-118237000D01*
X164705000Y-118257000D01*
X164455000Y-118257000D01*
X164455000Y-118237000D01*
X164433000Y-118237000D01*
X164433000Y-117983000D01*
X164455000Y-117983000D01*
X164455000Y-117963000D01*
X164705000Y-117963000D01*
X164705000Y-117983000D01*
X164705000Y-117983000D01*
G37*
X164705000Y-117983000D02*
X164727000Y-117983000D01*
X164727000Y-118237000D01*
X164705000Y-118237000D01*
X164705000Y-118257000D01*
X164455000Y-118257000D01*
X164455000Y-118237000D01*
X164433000Y-118237000D01*
X164433000Y-117983000D01*
X164455000Y-117983000D01*
X164455000Y-117963000D01*
X164705000Y-117963000D01*
X164705000Y-117983000D01*
G36*
X163897711Y-108459669D02*
X163755065Y-108803197D01*
X163754972Y-108910388D01*
X163655301Y-108951673D01*
X163476673Y-109130302D01*
X163380000Y-109363691D01*
X163380000Y-109456250D01*
X163538750Y-109615000D01*
X163992680Y-109615000D01*
X164107479Y-109730000D01*
X163830000Y-109730000D01*
X163539161Y-109787852D01*
X163292599Y-109952599D01*
X163127852Y-110199161D01*
X163119221Y-110242550D01*
X162987851Y-110439160D01*
X162929999Y-110729999D01*
X162929999Y-110973838D01*
X162812852Y-111149161D01*
X162755000Y-111440000D01*
X162755000Y-113610331D01*
X162738559Y-113620910D01*
X162593569Y-113833110D01*
X162542560Y-114085000D01*
X162542560Y-114304080D01*
X162402599Y-114397599D01*
X161850197Y-114950001D01*
X159988000Y-114950001D01*
X159988000Y-114808000D01*
X160010000Y-114808000D01*
X160010000Y-114008750D01*
X160260000Y-114008750D01*
X160260000Y-114808000D01*
X160861250Y-114808000D01*
X161020000Y-114649250D01*
X161020000Y-114358690D01*
X160923327Y-114125301D01*
X160744698Y-113946673D01*
X160511309Y-113850000D01*
X160418750Y-113850000D01*
X160260000Y-114008750D01*
X160010000Y-114008750D01*
X159851250Y-113850000D01*
X159758691Y-113850000D01*
X159525302Y-113946673D01*
X159395000Y-114076974D01*
X159395000Y-112951802D01*
X164019362Y-108327440D01*
X164030171Y-108327440D01*
X163897711Y-108459669D01*
X163897711Y-108459669D01*
G37*
X163897711Y-108459669D02*
X163755065Y-108803197D01*
X163754972Y-108910388D01*
X163655301Y-108951673D01*
X163476673Y-109130302D01*
X163380000Y-109363691D01*
X163380000Y-109456250D01*
X163538750Y-109615000D01*
X163992680Y-109615000D01*
X164107479Y-109730000D01*
X163830000Y-109730000D01*
X163539161Y-109787852D01*
X163292599Y-109952599D01*
X163127852Y-110199161D01*
X163119221Y-110242550D01*
X162987851Y-110439160D01*
X162929999Y-110729999D01*
X162929999Y-110973838D01*
X162812852Y-111149161D01*
X162755000Y-111440000D01*
X162755000Y-113610331D01*
X162738559Y-113620910D01*
X162593569Y-113833110D01*
X162542560Y-114085000D01*
X162542560Y-114304080D01*
X162402599Y-114397599D01*
X161850197Y-114950001D01*
X159988000Y-114950001D01*
X159988000Y-114808000D01*
X160010000Y-114808000D01*
X160010000Y-114008750D01*
X160260000Y-114008750D01*
X160260000Y-114808000D01*
X160861250Y-114808000D01*
X161020000Y-114649250D01*
X161020000Y-114358690D01*
X160923327Y-114125301D01*
X160744698Y-113946673D01*
X160511309Y-113850000D01*
X160418750Y-113850000D01*
X160260000Y-114008750D01*
X160010000Y-114008750D01*
X159851250Y-113850000D01*
X159758691Y-113850000D01*
X159525302Y-113946673D01*
X159395000Y-114076974D01*
X159395000Y-112951802D01*
X164019362Y-108327440D01*
X164030171Y-108327440D01*
X163897711Y-108459669D01*
G36*
X176152560Y-103320000D02*
X176196838Y-103555317D01*
X176290000Y-103700095D01*
X176290000Y-105739500D01*
X176347852Y-106030339D01*
X176512599Y-106276901D01*
X177089060Y-106853362D01*
X177089060Y-106934000D01*
X177133338Y-107169317D01*
X177227666Y-107315907D01*
X177140069Y-107444110D01*
X177089060Y-107696000D01*
X177089060Y-108204000D01*
X177133338Y-108439317D01*
X177224104Y-108580371D01*
X177198173Y-108606302D01*
X177101500Y-108839691D01*
X177101500Y-108934250D01*
X177260250Y-109093000D01*
X178181000Y-109093000D01*
X178181000Y-109073000D01*
X178435000Y-109073000D01*
X178435000Y-109093000D01*
X179355750Y-109093000D01*
X179514500Y-108934250D01*
X179514500Y-108839691D01*
X179460780Y-108710000D01*
X179995002Y-108710000D01*
X180215000Y-108666239D01*
X180215000Y-109292537D01*
X180182808Y-109324673D01*
X180040162Y-109668201D01*
X180039838Y-110040167D01*
X180181883Y-110383943D01*
X180444673Y-110647192D01*
X180457627Y-110652571D01*
X180110198Y-111000000D01*
X179473123Y-111000000D01*
X179475931Y-110995890D01*
X179526940Y-110744000D01*
X179526940Y-110236000D01*
X179482662Y-110000683D01*
X179391896Y-109859629D01*
X179417827Y-109833698D01*
X179514500Y-109600309D01*
X179514500Y-109505750D01*
X179355750Y-109347000D01*
X178435000Y-109347000D01*
X178435000Y-109367000D01*
X178181000Y-109367000D01*
X178181000Y-109347000D01*
X177260250Y-109347000D01*
X177101500Y-109505750D01*
X177101500Y-109600309D01*
X177155220Y-109730000D01*
X177092465Y-109730000D01*
X177060329Y-109697808D01*
X176716801Y-109555162D01*
X176669925Y-109555121D01*
X176216011Y-109101207D01*
X176216011Y-107681598D01*
X176158159Y-107390759D01*
X175993412Y-107144197D01*
X174924999Y-106075784D01*
X174924999Y-103967440D01*
X174990000Y-103967440D01*
X175225317Y-103923162D01*
X175441441Y-103784090D01*
X175586431Y-103571890D01*
X175595070Y-103529230D01*
X175777401Y-103407401D01*
X176152560Y-103032242D01*
X176152560Y-103320000D01*
X176152560Y-103320000D01*
G37*
X176152560Y-103320000D02*
X176196838Y-103555317D01*
X176290000Y-103700095D01*
X176290000Y-105739500D01*
X176347852Y-106030339D01*
X176512599Y-106276901D01*
X177089060Y-106853362D01*
X177089060Y-106934000D01*
X177133338Y-107169317D01*
X177227666Y-107315907D01*
X177140069Y-107444110D01*
X177089060Y-107696000D01*
X177089060Y-108204000D01*
X177133338Y-108439317D01*
X177224104Y-108580371D01*
X177198173Y-108606302D01*
X177101500Y-108839691D01*
X177101500Y-108934250D01*
X177260250Y-109093000D01*
X178181000Y-109093000D01*
X178181000Y-109073000D01*
X178435000Y-109073000D01*
X178435000Y-109093000D01*
X179355750Y-109093000D01*
X179514500Y-108934250D01*
X179514500Y-108839691D01*
X179460780Y-108710000D01*
X179995002Y-108710000D01*
X180215000Y-108666239D01*
X180215000Y-109292537D01*
X180182808Y-109324673D01*
X180040162Y-109668201D01*
X180039838Y-110040167D01*
X180181883Y-110383943D01*
X180444673Y-110647192D01*
X180457627Y-110652571D01*
X180110198Y-111000000D01*
X179473123Y-111000000D01*
X179475931Y-110995890D01*
X179526940Y-110744000D01*
X179526940Y-110236000D01*
X179482662Y-110000683D01*
X179391896Y-109859629D01*
X179417827Y-109833698D01*
X179514500Y-109600309D01*
X179514500Y-109505750D01*
X179355750Y-109347000D01*
X178435000Y-109347000D01*
X178435000Y-109367000D01*
X178181000Y-109367000D01*
X178181000Y-109347000D01*
X177260250Y-109347000D01*
X177101500Y-109505750D01*
X177101500Y-109600309D01*
X177155220Y-109730000D01*
X177092465Y-109730000D01*
X177060329Y-109697808D01*
X176716801Y-109555162D01*
X176669925Y-109555121D01*
X176216011Y-109101207D01*
X176216011Y-107681598D01*
X176158159Y-107390759D01*
X175993412Y-107144197D01*
X174924999Y-106075784D01*
X174924999Y-103967440D01*
X174990000Y-103967440D01*
X175225317Y-103923162D01*
X175441441Y-103784090D01*
X175586431Y-103571890D01*
X175595070Y-103529230D01*
X175777401Y-103407401D01*
X176152560Y-103032242D01*
X176152560Y-103320000D01*
G36*
X193670000Y-76392920D02*
X193577401Y-76254335D01*
X188921665Y-71598599D01*
X188675103Y-71433852D01*
X188384264Y-71376000D01*
X185023504Y-71376000D01*
X184732665Y-71433852D01*
X184486103Y-71598599D01*
X183732703Y-72351999D01*
X183186670Y-72125267D01*
X182576009Y-72124735D01*
X182449295Y-72177092D01*
X182270840Y-72057853D01*
X181980001Y-72000001D01*
X178600000Y-72000001D01*
X178600000Y-71110750D01*
X178441250Y-70952000D01*
X177292000Y-70952000D01*
X177292000Y-70972000D01*
X177038000Y-70972000D01*
X177038000Y-70952000D01*
X175888750Y-70952000D01*
X175730000Y-71110750D01*
X175730000Y-72000001D01*
X172897440Y-72000001D01*
X172897440Y-69325000D01*
X172873674Y-69198691D01*
X175730000Y-69198691D01*
X175730000Y-70539250D01*
X175888750Y-70698000D01*
X177038000Y-70698000D01*
X177038000Y-68848750D01*
X177292000Y-68848750D01*
X177292000Y-70698000D01*
X178441250Y-70698000D01*
X178600000Y-70539250D01*
X178600000Y-69198691D01*
X178503327Y-68965302D01*
X178324699Y-68786673D01*
X178091310Y-68690000D01*
X177450750Y-68690000D01*
X177292000Y-68848750D01*
X177038000Y-68848750D01*
X176879250Y-68690000D01*
X176238690Y-68690000D01*
X176005301Y-68786673D01*
X175826673Y-68965302D01*
X175730000Y-69198691D01*
X172873674Y-69198691D01*
X172853162Y-69089683D01*
X172714090Y-68873559D01*
X172501890Y-68728569D01*
X172250000Y-68677560D01*
X170650000Y-68677560D01*
X170414683Y-68721838D01*
X170198559Y-68860910D01*
X170053569Y-69073110D01*
X170002560Y-69325000D01*
X170002560Y-69352758D01*
X169333152Y-68683350D01*
X170030658Y-68395147D01*
X170772542Y-67654557D01*
X171174542Y-66686433D01*
X171174546Y-66681834D01*
X177994543Y-66681834D01*
X178394853Y-67650658D01*
X179135443Y-68392542D01*
X180103567Y-68794542D01*
X181151834Y-68795457D01*
X182120658Y-68395147D01*
X182862542Y-67654557D01*
X183264542Y-66686433D01*
X183264546Y-66681834D01*
X187494543Y-66681834D01*
X187894853Y-67650658D01*
X188635443Y-68392542D01*
X189603567Y-68794542D01*
X190651834Y-68795457D01*
X191620658Y-68395147D01*
X192362542Y-67654557D01*
X192764542Y-66686433D01*
X192765457Y-65638166D01*
X192365147Y-64669342D01*
X191624557Y-63927458D01*
X190656433Y-63525458D01*
X189608166Y-63524543D01*
X188639342Y-63924853D01*
X187897458Y-64665443D01*
X187495458Y-65633567D01*
X187494543Y-66681834D01*
X183264546Y-66681834D01*
X183265457Y-65638166D01*
X182865147Y-64669342D01*
X182124557Y-63927458D01*
X181156433Y-63525458D01*
X180108166Y-63524543D01*
X179139342Y-63924853D01*
X178397458Y-64665443D01*
X177995458Y-65633567D01*
X177994543Y-66681834D01*
X171174546Y-66681834D01*
X171175457Y-65638166D01*
X170775147Y-64669342D01*
X170034557Y-63927458D01*
X169066433Y-63525458D01*
X168018166Y-63524543D01*
X167049342Y-63924853D01*
X166307458Y-64665443D01*
X165905458Y-65633567D01*
X165904543Y-66681834D01*
X166304853Y-67650658D01*
X166418995Y-67764999D01*
X163119999Y-67764999D01*
X162877413Y-67813253D01*
X162829159Y-67822851D01*
X162582598Y-67987598D01*
X160752599Y-69817597D01*
X160587852Y-70064159D01*
X160530000Y-70354998D01*
X160530000Y-72313154D01*
X160421629Y-72357932D01*
X159989449Y-72789357D01*
X159755267Y-73353330D01*
X159754735Y-73963991D01*
X159987932Y-74528371D01*
X160419357Y-74960551D01*
X160983330Y-75194733D01*
X161593991Y-75195265D01*
X162158371Y-74962068D01*
X162540288Y-74580818D01*
X162919357Y-74960551D01*
X163483330Y-75194733D01*
X164093991Y-75195265D01*
X164295001Y-75112209D01*
X164295001Y-78845207D01*
X162032597Y-81107611D01*
X161867850Y-81354173D01*
X161809998Y-81645012D01*
X161809998Y-95057198D01*
X159482599Y-97384597D01*
X159317852Y-97631159D01*
X159260000Y-97921998D01*
X159260000Y-100330000D01*
X159304999Y-100556223D01*
X159304999Y-101553001D01*
X159362851Y-101843840D01*
X159527598Y-102090402D01*
X163039218Y-105602022D01*
X163062852Y-105720839D01*
X163227599Y-105967401D01*
X163367560Y-106107362D01*
X163367560Y-106180000D01*
X163373811Y-106213220D01*
X163217598Y-106317598D01*
X163152598Y-106382598D01*
X162987851Y-106629160D01*
X162929999Y-106919999D01*
X162929999Y-107267199D01*
X160786957Y-109410241D01*
X160602243Y-108963200D01*
X160198923Y-108559176D01*
X159671691Y-108340250D01*
X159100813Y-108339752D01*
X158573200Y-108557757D01*
X158169176Y-108961077D01*
X157950250Y-109488309D01*
X157949752Y-110059187D01*
X157972049Y-110113149D01*
X157577599Y-110507599D01*
X157474999Y-110661151D01*
X157474999Y-107759803D01*
X159046546Y-106188256D01*
X159098309Y-106209750D01*
X159669187Y-106210248D01*
X160196800Y-105992243D01*
X160600824Y-105588923D01*
X160819750Y-105061691D01*
X160820248Y-104490813D01*
X160602243Y-103963200D01*
X160198923Y-103559176D01*
X159671691Y-103340250D01*
X159100813Y-103339752D01*
X158573200Y-103557757D01*
X158169176Y-103961077D01*
X157950250Y-104488309D01*
X157949752Y-105059187D01*
X157972049Y-105113149D01*
X156970000Y-106115198D01*
X156970000Y-95121094D01*
X157545443Y-95697542D01*
X158513567Y-96099542D01*
X159561834Y-96100457D01*
X160530658Y-95700147D01*
X161272542Y-94959557D01*
X161674542Y-93991433D01*
X161675457Y-92943166D01*
X161275147Y-91974342D01*
X160534557Y-91232458D01*
X159566433Y-90830458D01*
X158518166Y-90829543D01*
X157549342Y-91229853D01*
X156970000Y-91808185D01*
X156970000Y-86594802D01*
X158411546Y-85153256D01*
X158463309Y-85174750D01*
X159034187Y-85175248D01*
X159561800Y-84957243D01*
X159965824Y-84553923D01*
X160184750Y-84026691D01*
X160185248Y-83455813D01*
X159967243Y-82928200D01*
X159563923Y-82524176D01*
X159036691Y-82305250D01*
X158465813Y-82304752D01*
X157938200Y-82522757D01*
X157534176Y-82926077D01*
X157315250Y-83453309D01*
X157314752Y-84024187D01*
X157337049Y-84078149D01*
X156335000Y-85080198D01*
X156335000Y-82229802D01*
X158411546Y-80153256D01*
X158463309Y-80174750D01*
X159034187Y-80175248D01*
X159561800Y-79957243D01*
X159965824Y-79553923D01*
X160184750Y-79026691D01*
X160185248Y-78455813D01*
X159967243Y-77928200D01*
X159563923Y-77524176D01*
X159036691Y-77305250D01*
X158465813Y-77304752D01*
X157938200Y-77522757D01*
X157534176Y-77926077D01*
X157315250Y-78453309D01*
X157314752Y-79024187D01*
X157337049Y-79078149D01*
X155580000Y-80835198D01*
X155580000Y-66681834D01*
X156404543Y-66681834D01*
X156804853Y-67650658D01*
X157545443Y-68392542D01*
X158513567Y-68794542D01*
X159561834Y-68795457D01*
X160530658Y-68395147D01*
X161272542Y-67654557D01*
X161674542Y-66686433D01*
X161675457Y-65638166D01*
X161275147Y-64669342D01*
X160534557Y-63927458D01*
X159566433Y-63525458D01*
X158518166Y-63524543D01*
X157549342Y-63924853D01*
X156807458Y-64665443D01*
X156405458Y-65633567D01*
X156404543Y-66681834D01*
X155580000Y-66681834D01*
X155580000Y-62997000D01*
X193670000Y-62997000D01*
X193670000Y-76392920D01*
X193670000Y-76392920D01*
G37*
X193670000Y-76392920D02*
X193577401Y-76254335D01*
X188921665Y-71598599D01*
X188675103Y-71433852D01*
X188384264Y-71376000D01*
X185023504Y-71376000D01*
X184732665Y-71433852D01*
X184486103Y-71598599D01*
X183732703Y-72351999D01*
X183186670Y-72125267D01*
X182576009Y-72124735D01*
X182449295Y-72177092D01*
X182270840Y-72057853D01*
X181980001Y-72000001D01*
X178600000Y-72000001D01*
X178600000Y-71110750D01*
X178441250Y-70952000D01*
X177292000Y-70952000D01*
X177292000Y-70972000D01*
X177038000Y-70972000D01*
X177038000Y-70952000D01*
X175888750Y-70952000D01*
X175730000Y-71110750D01*
X175730000Y-72000001D01*
X172897440Y-72000001D01*
X172897440Y-69325000D01*
X172873674Y-69198691D01*
X175730000Y-69198691D01*
X175730000Y-70539250D01*
X175888750Y-70698000D01*
X177038000Y-70698000D01*
X177038000Y-68848750D01*
X177292000Y-68848750D01*
X177292000Y-70698000D01*
X178441250Y-70698000D01*
X178600000Y-70539250D01*
X178600000Y-69198691D01*
X178503327Y-68965302D01*
X178324699Y-68786673D01*
X178091310Y-68690000D01*
X177450750Y-68690000D01*
X177292000Y-68848750D01*
X177038000Y-68848750D01*
X176879250Y-68690000D01*
X176238690Y-68690000D01*
X176005301Y-68786673D01*
X175826673Y-68965302D01*
X175730000Y-69198691D01*
X172873674Y-69198691D01*
X172853162Y-69089683D01*
X172714090Y-68873559D01*
X172501890Y-68728569D01*
X172250000Y-68677560D01*
X170650000Y-68677560D01*
X170414683Y-68721838D01*
X170198559Y-68860910D01*
X170053569Y-69073110D01*
X170002560Y-69325000D01*
X170002560Y-69352758D01*
X169333152Y-68683350D01*
X170030658Y-68395147D01*
X170772542Y-67654557D01*
X171174542Y-66686433D01*
X171174546Y-66681834D01*
X177994543Y-66681834D01*
X178394853Y-67650658D01*
X179135443Y-68392542D01*
X180103567Y-68794542D01*
X181151834Y-68795457D01*
X182120658Y-68395147D01*
X182862542Y-67654557D01*
X183264542Y-66686433D01*
X183264546Y-66681834D01*
X187494543Y-66681834D01*
X187894853Y-67650658D01*
X188635443Y-68392542D01*
X189603567Y-68794542D01*
X190651834Y-68795457D01*
X191620658Y-68395147D01*
X192362542Y-67654557D01*
X192764542Y-66686433D01*
X192765457Y-65638166D01*
X192365147Y-64669342D01*
X191624557Y-63927458D01*
X190656433Y-63525458D01*
X189608166Y-63524543D01*
X188639342Y-63924853D01*
X187897458Y-64665443D01*
X187495458Y-65633567D01*
X187494543Y-66681834D01*
X183264546Y-66681834D01*
X183265457Y-65638166D01*
X182865147Y-64669342D01*
X182124557Y-63927458D01*
X181156433Y-63525458D01*
X180108166Y-63524543D01*
X179139342Y-63924853D01*
X178397458Y-64665443D01*
X177995458Y-65633567D01*
X177994543Y-66681834D01*
X171174546Y-66681834D01*
X171175457Y-65638166D01*
X170775147Y-64669342D01*
X170034557Y-63927458D01*
X169066433Y-63525458D01*
X168018166Y-63524543D01*
X167049342Y-63924853D01*
X166307458Y-64665443D01*
X165905458Y-65633567D01*
X165904543Y-66681834D01*
X166304853Y-67650658D01*
X166418995Y-67764999D01*
X163119999Y-67764999D01*
X162877413Y-67813253D01*
X162829159Y-67822851D01*
X162582598Y-67987598D01*
X160752599Y-69817597D01*
X160587852Y-70064159D01*
X160530000Y-70354998D01*
X160530000Y-72313154D01*
X160421629Y-72357932D01*
X159989449Y-72789357D01*
X159755267Y-73353330D01*
X159754735Y-73963991D01*
X159987932Y-74528371D01*
X160419357Y-74960551D01*
X160983330Y-75194733D01*
X161593991Y-75195265D01*
X162158371Y-74962068D01*
X162540288Y-74580818D01*
X162919357Y-74960551D01*
X163483330Y-75194733D01*
X164093991Y-75195265D01*
X164295001Y-75112209D01*
X164295001Y-78845207D01*
X162032597Y-81107611D01*
X161867850Y-81354173D01*
X161809998Y-81645012D01*
X161809998Y-95057198D01*
X159482599Y-97384597D01*
X159317852Y-97631159D01*
X159260000Y-97921998D01*
X159260000Y-100330000D01*
X159304999Y-100556223D01*
X159304999Y-101553001D01*
X159362851Y-101843840D01*
X159527598Y-102090402D01*
X163039218Y-105602022D01*
X163062852Y-105720839D01*
X163227599Y-105967401D01*
X163367560Y-106107362D01*
X163367560Y-106180000D01*
X163373811Y-106213220D01*
X163217598Y-106317598D01*
X163152598Y-106382598D01*
X162987851Y-106629160D01*
X162929999Y-106919999D01*
X162929999Y-107267199D01*
X160786957Y-109410241D01*
X160602243Y-108963200D01*
X160198923Y-108559176D01*
X159671691Y-108340250D01*
X159100813Y-108339752D01*
X158573200Y-108557757D01*
X158169176Y-108961077D01*
X157950250Y-109488309D01*
X157949752Y-110059187D01*
X157972049Y-110113149D01*
X157577599Y-110507599D01*
X157474999Y-110661151D01*
X157474999Y-107759803D01*
X159046546Y-106188256D01*
X159098309Y-106209750D01*
X159669187Y-106210248D01*
X160196800Y-105992243D01*
X160600824Y-105588923D01*
X160819750Y-105061691D01*
X160820248Y-104490813D01*
X160602243Y-103963200D01*
X160198923Y-103559176D01*
X159671691Y-103340250D01*
X159100813Y-103339752D01*
X158573200Y-103557757D01*
X158169176Y-103961077D01*
X157950250Y-104488309D01*
X157949752Y-105059187D01*
X157972049Y-105113149D01*
X156970000Y-106115198D01*
X156970000Y-95121094D01*
X157545443Y-95697542D01*
X158513567Y-96099542D01*
X159561834Y-96100457D01*
X160530658Y-95700147D01*
X161272542Y-94959557D01*
X161674542Y-93991433D01*
X161675457Y-92943166D01*
X161275147Y-91974342D01*
X160534557Y-91232458D01*
X159566433Y-90830458D01*
X158518166Y-90829543D01*
X157549342Y-91229853D01*
X156970000Y-91808185D01*
X156970000Y-86594802D01*
X158411546Y-85153256D01*
X158463309Y-85174750D01*
X159034187Y-85175248D01*
X159561800Y-84957243D01*
X159965824Y-84553923D01*
X160184750Y-84026691D01*
X160185248Y-83455813D01*
X159967243Y-82928200D01*
X159563923Y-82524176D01*
X159036691Y-82305250D01*
X158465813Y-82304752D01*
X157938200Y-82522757D01*
X157534176Y-82926077D01*
X157315250Y-83453309D01*
X157314752Y-84024187D01*
X157337049Y-84078149D01*
X156335000Y-85080198D01*
X156335000Y-82229802D01*
X158411546Y-80153256D01*
X158463309Y-80174750D01*
X159034187Y-80175248D01*
X159561800Y-79957243D01*
X159965824Y-79553923D01*
X160184750Y-79026691D01*
X160185248Y-78455813D01*
X159967243Y-77928200D01*
X159563923Y-77524176D01*
X159036691Y-77305250D01*
X158465813Y-77304752D01*
X157938200Y-77522757D01*
X157534176Y-77926077D01*
X157315250Y-78453309D01*
X157314752Y-79024187D01*
X157337049Y-79078149D01*
X155580000Y-80835198D01*
X155580000Y-66681834D01*
X156404543Y-66681834D01*
X156804853Y-67650658D01*
X157545443Y-68392542D01*
X158513567Y-68794542D01*
X159561834Y-68795457D01*
X160530658Y-68395147D01*
X161272542Y-67654557D01*
X161674542Y-66686433D01*
X161675457Y-65638166D01*
X161275147Y-64669342D01*
X160534557Y-63927458D01*
X159566433Y-63525458D01*
X158518166Y-63524543D01*
X157549342Y-63924853D01*
X156807458Y-64665443D01*
X156405458Y-65633567D01*
X156404543Y-66681834D01*
X155580000Y-66681834D01*
X155580000Y-62997000D01*
X193670000Y-62997000D01*
X193670000Y-76392920D01*
G36*
X184620000Y-105900200D02*
X184489870Y-106030330D01*
X184483162Y-105994683D01*
X184344090Y-105778559D01*
X184131890Y-105633569D01*
X183880000Y-105582560D01*
X183380000Y-105582560D01*
X183144683Y-105626838D01*
X182928559Y-105765910D01*
X182882031Y-105834006D01*
X182739698Y-105691673D01*
X182506309Y-105595000D01*
X182413750Y-105595000D01*
X182255000Y-105753750D01*
X182255000Y-106553000D01*
X182277000Y-106553000D01*
X182277000Y-106807000D01*
X182255000Y-106807000D01*
X182255000Y-106827000D01*
X182005000Y-106827000D01*
X182005000Y-106807000D01*
X181983000Y-106807000D01*
X181983000Y-106553000D01*
X182005000Y-106553000D01*
X182005000Y-105753750D01*
X181846250Y-105595000D01*
X181753691Y-105595000D01*
X181735000Y-105602742D01*
X181735000Y-104067463D01*
X181767192Y-104035327D01*
X181801945Y-103951633D01*
X181880000Y-103967440D01*
X182380000Y-103967440D01*
X182615317Y-103923162D01*
X182831441Y-103784090D01*
X182879134Y-103714289D01*
X182915910Y-103771441D01*
X183128110Y-103916431D01*
X183380000Y-103967440D01*
X183880000Y-103967440D01*
X184115317Y-103923162D01*
X184331441Y-103784090D01*
X184476431Y-103571890D01*
X184527440Y-103320000D01*
X184527440Y-102847362D01*
X184620000Y-102754802D01*
X184620000Y-105900200D01*
X184620000Y-105900200D01*
G37*
X184620000Y-105900200D02*
X184489870Y-106030330D01*
X184483162Y-105994683D01*
X184344090Y-105778559D01*
X184131890Y-105633569D01*
X183880000Y-105582560D01*
X183380000Y-105582560D01*
X183144683Y-105626838D01*
X182928559Y-105765910D01*
X182882031Y-105834006D01*
X182739698Y-105691673D01*
X182506309Y-105595000D01*
X182413750Y-105595000D01*
X182255000Y-105753750D01*
X182255000Y-106553000D01*
X182277000Y-106553000D01*
X182277000Y-106807000D01*
X182255000Y-106807000D01*
X182255000Y-106827000D01*
X182005000Y-106827000D01*
X182005000Y-106807000D01*
X181983000Y-106807000D01*
X181983000Y-106553000D01*
X182005000Y-106553000D01*
X182005000Y-105753750D01*
X181846250Y-105595000D01*
X181753691Y-105595000D01*
X181735000Y-105602742D01*
X181735000Y-104067463D01*
X181767192Y-104035327D01*
X181801945Y-103951633D01*
X181880000Y-103967440D01*
X182380000Y-103967440D01*
X182615317Y-103923162D01*
X182831441Y-103784090D01*
X182879134Y-103714289D01*
X182915910Y-103771441D01*
X183128110Y-103916431D01*
X183380000Y-103967440D01*
X183880000Y-103967440D01*
X184115317Y-103923162D01*
X184331441Y-103784090D01*
X184476431Y-103571890D01*
X184527440Y-103320000D01*
X184527440Y-102847362D01*
X184620000Y-102754802D01*
X184620000Y-105900200D01*
G36*
X186692000Y-96103998D02*
X186749852Y-96394837D01*
X186914599Y-96641399D01*
X188425001Y-98151801D01*
X188425001Y-99529887D01*
X188120664Y-99418542D01*
X187510540Y-99444161D01*
X187065852Y-99628357D01*
X186979446Y-99884841D01*
X187880000Y-100785395D01*
X187894143Y-100771253D01*
X188073748Y-100950858D01*
X188059605Y-100965000D01*
X188073748Y-100979143D01*
X187894143Y-101158748D01*
X187880000Y-101144605D01*
X186979446Y-102045159D01*
X187065852Y-102301643D01*
X187639336Y-102511458D01*
X188249460Y-102485839D01*
X188425576Y-102412889D01*
X188470000Y-102636224D01*
X188470000Y-103240198D01*
X186140000Y-105570198D01*
X186140000Y-102311846D01*
X186248371Y-102267068D01*
X186680551Y-101835643D01*
X186684294Y-101826628D01*
X186799841Y-101865554D01*
X187700395Y-100965000D01*
X186799841Y-100064446D01*
X186684786Y-100103207D01*
X186682068Y-100096629D01*
X186250643Y-99664449D01*
X185686670Y-99430267D01*
X185076009Y-99429735D01*
X184890000Y-99506592D01*
X184890000Y-96449092D01*
X186044399Y-95294693D01*
X186089886Y-95294733D01*
X186433662Y-95152688D01*
X186692000Y-94894800D01*
X186692000Y-96103998D01*
X186692000Y-96103998D01*
G37*
X186692000Y-96103998D02*
X186749852Y-96394837D01*
X186914599Y-96641399D01*
X188425001Y-98151801D01*
X188425001Y-99529887D01*
X188120664Y-99418542D01*
X187510540Y-99444161D01*
X187065852Y-99628357D01*
X186979446Y-99884841D01*
X187880000Y-100785395D01*
X187894143Y-100771253D01*
X188073748Y-100950858D01*
X188059605Y-100965000D01*
X188073748Y-100979143D01*
X187894143Y-101158748D01*
X187880000Y-101144605D01*
X186979446Y-102045159D01*
X187065852Y-102301643D01*
X187639336Y-102511458D01*
X188249460Y-102485839D01*
X188425576Y-102412889D01*
X188470000Y-102636224D01*
X188470000Y-103240198D01*
X186140000Y-105570198D01*
X186140000Y-102311846D01*
X186248371Y-102267068D01*
X186680551Y-101835643D01*
X186684294Y-101826628D01*
X186799841Y-101865554D01*
X187700395Y-100965000D01*
X186799841Y-100064446D01*
X186684786Y-100103207D01*
X186682068Y-100096629D01*
X186250643Y-99664449D01*
X185686670Y-99430267D01*
X185076009Y-99429735D01*
X184890000Y-99506592D01*
X184890000Y-96449092D01*
X186044399Y-95294693D01*
X186089886Y-95294733D01*
X186433662Y-95152688D01*
X186692000Y-94894800D01*
X186692000Y-96103998D01*
G36*
X165230000Y-85802891D02*
X164995327Y-85567808D01*
X164651799Y-85425162D01*
X164279833Y-85424838D01*
X163936057Y-85566883D01*
X163672808Y-85829673D01*
X163530162Y-86173201D01*
X163529838Y-86545167D01*
X163671883Y-86888943D01*
X163934673Y-87152192D01*
X164278201Y-87294838D01*
X164325077Y-87294879D01*
X164562599Y-87532401D01*
X164809161Y-87697148D01*
X164915771Y-87718354D01*
X164936838Y-87830317D01*
X165075910Y-88046441D01*
X165288110Y-88191431D01*
X165540000Y-88242440D01*
X166440000Y-88242440D01*
X166675317Y-88198162D01*
X166762354Y-88142156D01*
X167077600Y-88457402D01*
X167324162Y-88622149D01*
X167615001Y-88680001D01*
X171034999Y-88680001D01*
X171325838Y-88622149D01*
X171572400Y-88457402D01*
X171687331Y-88342471D01*
X171769162Y-88397149D01*
X172060001Y-88455001D01*
X175919999Y-88455001D01*
X176210838Y-88397149D01*
X176457400Y-88232402D01*
X176672362Y-88017440D01*
X177045000Y-88017440D01*
X177280317Y-87973162D01*
X177496441Y-87834090D01*
X177641431Y-87621890D01*
X177692440Y-87370000D01*
X177692440Y-86905000D01*
X178227560Y-86905000D01*
X178227560Y-87167638D01*
X173627598Y-91767600D01*
X173462851Y-92014162D01*
X173404999Y-92305001D01*
X173404999Y-101772560D01*
X172990000Y-101772560D01*
X172754683Y-101816838D01*
X172538559Y-101955910D01*
X172393569Y-102168110D01*
X172342560Y-102420000D01*
X172342560Y-103320000D01*
X172386838Y-103555317D01*
X172525910Y-103771441D01*
X172738110Y-103916431D01*
X172990000Y-103967440D01*
X173404999Y-103967440D01*
X173404999Y-105192195D01*
X171561403Y-103348599D01*
X171314841Y-103183852D01*
X171024002Y-103126000D01*
X164525802Y-103126000D01*
X163899898Y-102500096D01*
X164093991Y-102500265D01*
X164658371Y-102267068D01*
X164880668Y-102045159D01*
X165389446Y-102045159D01*
X165475852Y-102301643D01*
X166049336Y-102511458D01*
X166659460Y-102485839D01*
X167104148Y-102301643D01*
X167190554Y-102045159D01*
X166290000Y-101144605D01*
X165389446Y-102045159D01*
X164880668Y-102045159D01*
X165090551Y-101835643D01*
X165094294Y-101826628D01*
X165209841Y-101865554D01*
X166110395Y-100965000D01*
X166469605Y-100965000D01*
X167370159Y-101865554D01*
X167626643Y-101779148D01*
X167836458Y-101205664D01*
X167810839Y-100595540D01*
X167626643Y-100150852D01*
X167370159Y-100064446D01*
X166469605Y-100965000D01*
X166110395Y-100965000D01*
X165209841Y-100064446D01*
X165094786Y-100103207D01*
X165092068Y-100096629D01*
X164880650Y-99884841D01*
X165389446Y-99884841D01*
X166290000Y-100785395D01*
X167190554Y-99884841D01*
X167104148Y-99628357D01*
X166530664Y-99418542D01*
X165920540Y-99444161D01*
X165475852Y-99628357D01*
X165389446Y-99884841D01*
X164880650Y-99884841D01*
X164660643Y-99664449D01*
X164096670Y-99430267D01*
X163486009Y-99429735D01*
X162921629Y-99662932D01*
X162539712Y-100044182D01*
X162160643Y-99664449D01*
X161596670Y-99430267D01*
X160986009Y-99429735D01*
X160780000Y-99514856D01*
X160780000Y-98236800D01*
X163107399Y-95909401D01*
X163272146Y-95662839D01*
X163329998Y-95372000D01*
X163329998Y-93986834D01*
X165904543Y-93986834D01*
X166304853Y-94955658D01*
X167045443Y-95697542D01*
X168013567Y-96099542D01*
X169061834Y-96100457D01*
X170030658Y-95700147D01*
X170772542Y-94959557D01*
X171174542Y-93991433D01*
X171175457Y-92943166D01*
X170775147Y-91974342D01*
X170034557Y-91232458D01*
X169066433Y-90830458D01*
X168018166Y-90829543D01*
X167049342Y-91229853D01*
X166307458Y-91970443D01*
X165905458Y-92938567D01*
X165904543Y-93986834D01*
X163329998Y-93986834D01*
X163329998Y-81959814D01*
X165230000Y-80059812D01*
X165230000Y-85802891D01*
X165230000Y-85802891D01*
G37*
X165230000Y-85802891D02*
X164995327Y-85567808D01*
X164651799Y-85425162D01*
X164279833Y-85424838D01*
X163936057Y-85566883D01*
X163672808Y-85829673D01*
X163530162Y-86173201D01*
X163529838Y-86545167D01*
X163671883Y-86888943D01*
X163934673Y-87152192D01*
X164278201Y-87294838D01*
X164325077Y-87294879D01*
X164562599Y-87532401D01*
X164809161Y-87697148D01*
X164915771Y-87718354D01*
X164936838Y-87830317D01*
X165075910Y-88046441D01*
X165288110Y-88191431D01*
X165540000Y-88242440D01*
X166440000Y-88242440D01*
X166675317Y-88198162D01*
X166762354Y-88142156D01*
X167077600Y-88457402D01*
X167324162Y-88622149D01*
X167615001Y-88680001D01*
X171034999Y-88680001D01*
X171325838Y-88622149D01*
X171572400Y-88457402D01*
X171687331Y-88342471D01*
X171769162Y-88397149D01*
X172060001Y-88455001D01*
X175919999Y-88455001D01*
X176210838Y-88397149D01*
X176457400Y-88232402D01*
X176672362Y-88017440D01*
X177045000Y-88017440D01*
X177280317Y-87973162D01*
X177496441Y-87834090D01*
X177641431Y-87621890D01*
X177692440Y-87370000D01*
X177692440Y-86905000D01*
X178227560Y-86905000D01*
X178227560Y-87167638D01*
X173627598Y-91767600D01*
X173462851Y-92014162D01*
X173404999Y-92305001D01*
X173404999Y-101772560D01*
X172990000Y-101772560D01*
X172754683Y-101816838D01*
X172538559Y-101955910D01*
X172393569Y-102168110D01*
X172342560Y-102420000D01*
X172342560Y-103320000D01*
X172386838Y-103555317D01*
X172525910Y-103771441D01*
X172738110Y-103916431D01*
X172990000Y-103967440D01*
X173404999Y-103967440D01*
X173404999Y-105192195D01*
X171561403Y-103348599D01*
X171314841Y-103183852D01*
X171024002Y-103126000D01*
X164525802Y-103126000D01*
X163899898Y-102500096D01*
X164093991Y-102500265D01*
X164658371Y-102267068D01*
X164880668Y-102045159D01*
X165389446Y-102045159D01*
X165475852Y-102301643D01*
X166049336Y-102511458D01*
X166659460Y-102485839D01*
X167104148Y-102301643D01*
X167190554Y-102045159D01*
X166290000Y-101144605D01*
X165389446Y-102045159D01*
X164880668Y-102045159D01*
X165090551Y-101835643D01*
X165094294Y-101826628D01*
X165209841Y-101865554D01*
X166110395Y-100965000D01*
X166469605Y-100965000D01*
X167370159Y-101865554D01*
X167626643Y-101779148D01*
X167836458Y-101205664D01*
X167810839Y-100595540D01*
X167626643Y-100150852D01*
X167370159Y-100064446D01*
X166469605Y-100965000D01*
X166110395Y-100965000D01*
X165209841Y-100064446D01*
X165094786Y-100103207D01*
X165092068Y-100096629D01*
X164880650Y-99884841D01*
X165389446Y-99884841D01*
X166290000Y-100785395D01*
X167190554Y-99884841D01*
X167104148Y-99628357D01*
X166530664Y-99418542D01*
X165920540Y-99444161D01*
X165475852Y-99628357D01*
X165389446Y-99884841D01*
X164880650Y-99884841D01*
X164660643Y-99664449D01*
X164096670Y-99430267D01*
X163486009Y-99429735D01*
X162921629Y-99662932D01*
X162539712Y-100044182D01*
X162160643Y-99664449D01*
X161596670Y-99430267D01*
X160986009Y-99429735D01*
X160780000Y-99514856D01*
X160780000Y-98236800D01*
X163107399Y-95909401D01*
X163272146Y-95662839D01*
X163329998Y-95372000D01*
X163329998Y-93986834D01*
X165904543Y-93986834D01*
X166304853Y-94955658D01*
X167045443Y-95697542D01*
X168013567Y-96099542D01*
X169061834Y-96100457D01*
X170030658Y-95700147D01*
X170772542Y-94959557D01*
X171174542Y-93991433D01*
X171175457Y-92943166D01*
X170775147Y-91974342D01*
X170034557Y-91232458D01*
X169066433Y-90830458D01*
X168018166Y-90829543D01*
X167049342Y-91229853D01*
X166307458Y-91970443D01*
X165905458Y-92938567D01*
X165904543Y-93986834D01*
X163329998Y-93986834D01*
X163329998Y-81959814D01*
X165230000Y-80059812D01*
X165230000Y-85802891D01*
G36*
X188073748Y-73645858D02*
X188059605Y-73660000D01*
X188960159Y-74560554D01*
X189216643Y-74474148D01*
X189332082Y-74158620D01*
X192280000Y-77106538D01*
X192280000Y-84445198D01*
X191913256Y-84078454D01*
X191934750Y-84026691D01*
X191935248Y-83455813D01*
X191717243Y-82928200D01*
X191313923Y-82524176D01*
X190786691Y-82305250D01*
X190215813Y-82304752D01*
X189688200Y-82522757D01*
X189284176Y-82926077D01*
X189065250Y-83453309D01*
X189064752Y-84024187D01*
X189282757Y-84551800D01*
X189686077Y-84955824D01*
X190213309Y-85174750D01*
X190784187Y-85175248D01*
X190838149Y-85152951D01*
X191775001Y-86089803D01*
X191775001Y-91383165D01*
X191624557Y-91232458D01*
X190656433Y-90830458D01*
X189608166Y-90829543D01*
X188639342Y-91229853D01*
X188212000Y-91656450D01*
X188212000Y-82102802D01*
X190161546Y-80153256D01*
X190213309Y-80174750D01*
X190784187Y-80175248D01*
X191311800Y-79957243D01*
X191715824Y-79553923D01*
X191934750Y-79026691D01*
X191935248Y-78455813D01*
X191717243Y-77928200D01*
X191313923Y-77524176D01*
X190786691Y-77305250D01*
X190215813Y-77304752D01*
X189688200Y-77522757D01*
X189284176Y-77926077D01*
X189065250Y-78453309D01*
X189064752Y-79024187D01*
X189087049Y-79078149D01*
X186914599Y-81250599D01*
X186749852Y-81497161D01*
X186692000Y-81788000D01*
X186692000Y-93824782D01*
X186435046Y-93567379D01*
X186140000Y-93444865D01*
X186140000Y-75006846D01*
X186248371Y-74962068D01*
X186470668Y-74740159D01*
X186979446Y-74740159D01*
X187065852Y-74996643D01*
X187639336Y-75206458D01*
X188249460Y-75180839D01*
X188694148Y-74996643D01*
X188780554Y-74740159D01*
X187880000Y-73839605D01*
X186979446Y-74740159D01*
X186470668Y-74740159D01*
X186680551Y-74530643D01*
X186684294Y-74521628D01*
X186799841Y-74560554D01*
X187700395Y-73660000D01*
X187686253Y-73645858D01*
X187865858Y-73466253D01*
X187880000Y-73480395D01*
X187894143Y-73466253D01*
X188073748Y-73645858D01*
X188073748Y-73645858D01*
G37*
X188073748Y-73645858D02*
X188059605Y-73660000D01*
X188960159Y-74560554D01*
X189216643Y-74474148D01*
X189332082Y-74158620D01*
X192280000Y-77106538D01*
X192280000Y-84445198D01*
X191913256Y-84078454D01*
X191934750Y-84026691D01*
X191935248Y-83455813D01*
X191717243Y-82928200D01*
X191313923Y-82524176D01*
X190786691Y-82305250D01*
X190215813Y-82304752D01*
X189688200Y-82522757D01*
X189284176Y-82926077D01*
X189065250Y-83453309D01*
X189064752Y-84024187D01*
X189282757Y-84551800D01*
X189686077Y-84955824D01*
X190213309Y-85174750D01*
X190784187Y-85175248D01*
X190838149Y-85152951D01*
X191775001Y-86089803D01*
X191775001Y-91383165D01*
X191624557Y-91232458D01*
X190656433Y-90830458D01*
X189608166Y-90829543D01*
X188639342Y-91229853D01*
X188212000Y-91656450D01*
X188212000Y-82102802D01*
X190161546Y-80153256D01*
X190213309Y-80174750D01*
X190784187Y-80175248D01*
X191311800Y-79957243D01*
X191715824Y-79553923D01*
X191934750Y-79026691D01*
X191935248Y-78455813D01*
X191717243Y-77928200D01*
X191313923Y-77524176D01*
X190786691Y-77305250D01*
X190215813Y-77304752D01*
X189688200Y-77522757D01*
X189284176Y-77926077D01*
X189065250Y-78453309D01*
X189064752Y-79024187D01*
X189087049Y-79078149D01*
X186914599Y-81250599D01*
X186749852Y-81497161D01*
X186692000Y-81788000D01*
X186692000Y-93824782D01*
X186435046Y-93567379D01*
X186140000Y-93444865D01*
X186140000Y-75006846D01*
X186248371Y-74962068D01*
X186470668Y-74740159D01*
X186979446Y-74740159D01*
X187065852Y-74996643D01*
X187639336Y-75206458D01*
X188249460Y-75180839D01*
X188694148Y-74996643D01*
X188780554Y-74740159D01*
X187880000Y-73839605D01*
X186979446Y-74740159D01*
X186470668Y-74740159D01*
X186680551Y-74530643D01*
X186684294Y-74521628D01*
X186799841Y-74560554D01*
X187700395Y-73660000D01*
X187686253Y-73645858D01*
X187865858Y-73466253D01*
X187880000Y-73480395D01*
X187894143Y-73466253D01*
X188073748Y-73645858D01*
G36*
X170002560Y-76725000D02*
X170046838Y-76960317D01*
X170185910Y-77176441D01*
X170398110Y-77321431D01*
X170650000Y-77372440D01*
X172250000Y-77372440D01*
X172485317Y-77328162D01*
X172701441Y-77189090D01*
X172846431Y-76976890D01*
X172897440Y-76725000D01*
X172897440Y-76436242D01*
X174324878Y-77863680D01*
X174324838Y-77909167D01*
X174466883Y-78252943D01*
X174729673Y-78516192D01*
X174879376Y-78578354D01*
X174493076Y-78738355D01*
X174064817Y-79128642D01*
X173990000Y-79287954D01*
X173915183Y-79128642D01*
X173486924Y-78738355D01*
X173076890Y-78568524D01*
X172847000Y-78689845D01*
X172847000Y-79883000D01*
X175133000Y-79883000D01*
X175133000Y-79863000D01*
X175387000Y-79863000D01*
X175387000Y-79883000D01*
X177673000Y-79883000D01*
X177673000Y-78689845D01*
X177443110Y-78568524D01*
X177033076Y-78738355D01*
X176604817Y-79128642D01*
X176530000Y-79287954D01*
X176455183Y-79128642D01*
X176026924Y-78738355D01*
X175640680Y-78578378D01*
X175788943Y-78517117D01*
X176052192Y-78254327D01*
X176194838Y-77910799D01*
X176195162Y-77538833D01*
X176102274Y-77314027D01*
X176113110Y-77321431D01*
X176365000Y-77372440D01*
X177965000Y-77372440D01*
X178200317Y-77328162D01*
X178310000Y-77257583D01*
X178310000Y-78631940D01*
X178156890Y-78568524D01*
X177927000Y-78689845D01*
X177927000Y-79883000D01*
X177947000Y-79883000D01*
X177947000Y-80137000D01*
X177927000Y-80137000D01*
X177927000Y-82423000D01*
X177947000Y-82423000D01*
X177947000Y-82677000D01*
X177927000Y-82677000D01*
X177927000Y-82697000D01*
X177673000Y-82697000D01*
X177673000Y-82677000D01*
X175387000Y-82677000D01*
X175387000Y-83870155D01*
X175616890Y-83991476D01*
X176026924Y-83821645D01*
X176455183Y-83431358D01*
X176530000Y-83272046D01*
X176604817Y-83431358D01*
X177033076Y-83821645D01*
X177199586Y-83890612D01*
X175117638Y-85972560D01*
X174745000Y-85972560D01*
X174509683Y-86016838D01*
X174293559Y-86155910D01*
X174239519Y-86235000D01*
X173741844Y-86235000D01*
X173699090Y-86168559D01*
X173486890Y-86023569D01*
X173235000Y-85972560D01*
X172435000Y-85972560D01*
X172199683Y-86016838D01*
X172085022Y-86090620D01*
X171986890Y-86023569D01*
X171735000Y-85972560D01*
X170935000Y-85972560D01*
X170699683Y-86016838D01*
X170483559Y-86155910D01*
X170372920Y-86317835D01*
X170343162Y-86159683D01*
X170204090Y-85943559D01*
X170050000Y-85838274D01*
X170050000Y-84047440D01*
X171030000Y-84047440D01*
X171265317Y-84003162D01*
X171481441Y-83864090D01*
X171626431Y-83651890D01*
X171648301Y-83543893D01*
X171953076Y-83821645D01*
X172363110Y-83991476D01*
X172593000Y-83870155D01*
X172593000Y-82677000D01*
X172847000Y-82677000D01*
X172847000Y-83870155D01*
X173076890Y-83991476D01*
X173486924Y-83821645D01*
X173915183Y-83431358D01*
X173990000Y-83272046D01*
X174064817Y-83431358D01*
X174493076Y-83821645D01*
X174903110Y-83991476D01*
X175133000Y-83870155D01*
X175133000Y-82677000D01*
X172847000Y-82677000D01*
X172593000Y-82677000D01*
X172573000Y-82677000D01*
X172573000Y-82423000D01*
X172593000Y-82423000D01*
X172593000Y-80137000D01*
X172847000Y-80137000D01*
X172847000Y-82423000D01*
X175133000Y-82423000D01*
X175133000Y-80137000D01*
X175387000Y-80137000D01*
X175387000Y-82423000D01*
X177673000Y-82423000D01*
X177673000Y-80137000D01*
X175387000Y-80137000D01*
X175133000Y-80137000D01*
X172847000Y-80137000D01*
X172593000Y-80137000D01*
X172573000Y-80137000D01*
X172573000Y-79883000D01*
X172593000Y-79883000D01*
X172593000Y-78689845D01*
X172363110Y-78568524D01*
X171953076Y-78738355D01*
X171524817Y-79128642D01*
X171457702Y-79271553D01*
X171230054Y-78930853D01*
X170748285Y-78608946D01*
X170180000Y-78495907D01*
X169611715Y-78608946D01*
X169129946Y-78930853D01*
X168808039Y-79412622D01*
X168695000Y-79980907D01*
X168695000Y-80039093D01*
X168808039Y-80607378D01*
X169129946Y-81089147D01*
X169131179Y-81089971D01*
X169094683Y-81096838D01*
X168878559Y-81235910D01*
X168733569Y-81448110D01*
X168682560Y-81700000D01*
X168682560Y-83007420D01*
X168587852Y-83149161D01*
X168530000Y-83440000D01*
X168530000Y-85839895D01*
X168388559Y-85930910D01*
X168243569Y-86143110D01*
X168192560Y-86395000D01*
X168192560Y-87160001D01*
X167929803Y-87160001D01*
X167227401Y-86457599D01*
X167080785Y-86359634D01*
X167043162Y-86159683D01*
X166904090Y-85943559D01*
X166750000Y-85838274D01*
X166750000Y-78114800D01*
X170002560Y-74862240D01*
X170002560Y-76725000D01*
X170002560Y-76725000D01*
G37*
X170002560Y-76725000D02*
X170046838Y-76960317D01*
X170185910Y-77176441D01*
X170398110Y-77321431D01*
X170650000Y-77372440D01*
X172250000Y-77372440D01*
X172485317Y-77328162D01*
X172701441Y-77189090D01*
X172846431Y-76976890D01*
X172897440Y-76725000D01*
X172897440Y-76436242D01*
X174324878Y-77863680D01*
X174324838Y-77909167D01*
X174466883Y-78252943D01*
X174729673Y-78516192D01*
X174879376Y-78578354D01*
X174493076Y-78738355D01*
X174064817Y-79128642D01*
X173990000Y-79287954D01*
X173915183Y-79128642D01*
X173486924Y-78738355D01*
X173076890Y-78568524D01*
X172847000Y-78689845D01*
X172847000Y-79883000D01*
X175133000Y-79883000D01*
X175133000Y-79863000D01*
X175387000Y-79863000D01*
X175387000Y-79883000D01*
X177673000Y-79883000D01*
X177673000Y-78689845D01*
X177443110Y-78568524D01*
X177033076Y-78738355D01*
X176604817Y-79128642D01*
X176530000Y-79287954D01*
X176455183Y-79128642D01*
X176026924Y-78738355D01*
X175640680Y-78578378D01*
X175788943Y-78517117D01*
X176052192Y-78254327D01*
X176194838Y-77910799D01*
X176195162Y-77538833D01*
X176102274Y-77314027D01*
X176113110Y-77321431D01*
X176365000Y-77372440D01*
X177965000Y-77372440D01*
X178200317Y-77328162D01*
X178310000Y-77257583D01*
X178310000Y-78631940D01*
X178156890Y-78568524D01*
X177927000Y-78689845D01*
X177927000Y-79883000D01*
X177947000Y-79883000D01*
X177947000Y-80137000D01*
X177927000Y-80137000D01*
X177927000Y-82423000D01*
X177947000Y-82423000D01*
X177947000Y-82677000D01*
X177927000Y-82677000D01*
X177927000Y-82697000D01*
X177673000Y-82697000D01*
X177673000Y-82677000D01*
X175387000Y-82677000D01*
X175387000Y-83870155D01*
X175616890Y-83991476D01*
X176026924Y-83821645D01*
X176455183Y-83431358D01*
X176530000Y-83272046D01*
X176604817Y-83431358D01*
X177033076Y-83821645D01*
X177199586Y-83890612D01*
X175117638Y-85972560D01*
X174745000Y-85972560D01*
X174509683Y-86016838D01*
X174293559Y-86155910D01*
X174239519Y-86235000D01*
X173741844Y-86235000D01*
X173699090Y-86168559D01*
X173486890Y-86023569D01*
X173235000Y-85972560D01*
X172435000Y-85972560D01*
X172199683Y-86016838D01*
X172085022Y-86090620D01*
X171986890Y-86023569D01*
X171735000Y-85972560D01*
X170935000Y-85972560D01*
X170699683Y-86016838D01*
X170483559Y-86155910D01*
X170372920Y-86317835D01*
X170343162Y-86159683D01*
X170204090Y-85943559D01*
X170050000Y-85838274D01*
X170050000Y-84047440D01*
X171030000Y-84047440D01*
X171265317Y-84003162D01*
X171481441Y-83864090D01*
X171626431Y-83651890D01*
X171648301Y-83543893D01*
X171953076Y-83821645D01*
X172363110Y-83991476D01*
X172593000Y-83870155D01*
X172593000Y-82677000D01*
X172847000Y-82677000D01*
X172847000Y-83870155D01*
X173076890Y-83991476D01*
X173486924Y-83821645D01*
X173915183Y-83431358D01*
X173990000Y-83272046D01*
X174064817Y-83431358D01*
X174493076Y-83821645D01*
X174903110Y-83991476D01*
X175133000Y-83870155D01*
X175133000Y-82677000D01*
X172847000Y-82677000D01*
X172593000Y-82677000D01*
X172573000Y-82677000D01*
X172573000Y-82423000D01*
X172593000Y-82423000D01*
X172593000Y-80137000D01*
X172847000Y-80137000D01*
X172847000Y-82423000D01*
X175133000Y-82423000D01*
X175133000Y-80137000D01*
X175387000Y-80137000D01*
X175387000Y-82423000D01*
X177673000Y-82423000D01*
X177673000Y-80137000D01*
X175387000Y-80137000D01*
X175133000Y-80137000D01*
X172847000Y-80137000D01*
X172593000Y-80137000D01*
X172573000Y-80137000D01*
X172573000Y-79883000D01*
X172593000Y-79883000D01*
X172593000Y-78689845D01*
X172363110Y-78568524D01*
X171953076Y-78738355D01*
X171524817Y-79128642D01*
X171457702Y-79271553D01*
X171230054Y-78930853D01*
X170748285Y-78608946D01*
X170180000Y-78495907D01*
X169611715Y-78608946D01*
X169129946Y-78930853D01*
X168808039Y-79412622D01*
X168695000Y-79980907D01*
X168695000Y-80039093D01*
X168808039Y-80607378D01*
X169129946Y-81089147D01*
X169131179Y-81089971D01*
X169094683Y-81096838D01*
X168878559Y-81235910D01*
X168733569Y-81448110D01*
X168682560Y-81700000D01*
X168682560Y-83007420D01*
X168587852Y-83149161D01*
X168530000Y-83440000D01*
X168530000Y-85839895D01*
X168388559Y-85930910D01*
X168243569Y-86143110D01*
X168192560Y-86395000D01*
X168192560Y-87160001D01*
X167929803Y-87160001D01*
X167227401Y-86457599D01*
X167080785Y-86359634D01*
X167043162Y-86159683D01*
X166904090Y-85943559D01*
X166750000Y-85838274D01*
X166750000Y-78114800D01*
X170002560Y-74862240D01*
X170002560Y-76725000D01*
G36*
X169862599Y-71362401D02*
X170002560Y-71455920D01*
X170002560Y-72325000D01*
X170046838Y-72560317D01*
X170089140Y-72626056D01*
X165815001Y-76900195D01*
X165815001Y-75120724D01*
X166049336Y-75206458D01*
X166659460Y-75180839D01*
X167104148Y-74996643D01*
X167190554Y-74740159D01*
X166290000Y-73839605D01*
X166275858Y-73853748D01*
X166096253Y-73674143D01*
X166110395Y-73660000D01*
X166469605Y-73660000D01*
X167370159Y-74560554D01*
X167626643Y-74474148D01*
X167836458Y-73900664D01*
X167810839Y-73290540D01*
X167626643Y-72845852D01*
X167370159Y-72759446D01*
X166469605Y-73660000D01*
X166110395Y-73660000D01*
X166096253Y-73645858D01*
X166275858Y-73466253D01*
X166290000Y-73480395D01*
X167190554Y-72579841D01*
X167104148Y-72323357D01*
X166530664Y-72113542D01*
X165920540Y-72139161D01*
X165815001Y-72182877D01*
X165815001Y-70125001D01*
X165779481Y-69946431D01*
X165757149Y-69834161D01*
X165592402Y-69587600D01*
X165289801Y-69284999D01*
X167785197Y-69284999D01*
X169862599Y-71362401D01*
X169862599Y-71362401D01*
G37*
X169862599Y-71362401D02*
X170002560Y-71455920D01*
X170002560Y-72325000D01*
X170046838Y-72560317D01*
X170089140Y-72626056D01*
X165815001Y-76900195D01*
X165815001Y-75120724D01*
X166049336Y-75206458D01*
X166659460Y-75180839D01*
X167104148Y-74996643D01*
X167190554Y-74740159D01*
X166290000Y-73839605D01*
X166275858Y-73853748D01*
X166096253Y-73674143D01*
X166110395Y-73660000D01*
X166469605Y-73660000D01*
X167370159Y-74560554D01*
X167626643Y-74474148D01*
X167836458Y-73900664D01*
X167810839Y-73290540D01*
X167626643Y-72845852D01*
X167370159Y-72759446D01*
X166469605Y-73660000D01*
X166110395Y-73660000D01*
X166096253Y-73645858D01*
X166275858Y-73466253D01*
X166290000Y-73480395D01*
X167190554Y-72579841D01*
X167104148Y-72323357D01*
X166530664Y-72113542D01*
X165920540Y-72139161D01*
X165815001Y-72182877D01*
X165815001Y-70125001D01*
X165779481Y-69946431D01*
X165757149Y-69834161D01*
X165592402Y-69587600D01*
X165289801Y-69284999D01*
X167785197Y-69284999D01*
X169862599Y-71362401D01*
M02*
