G04 #@! TF.FileFunction,Copper,L2,Bot,Signal*
%FSLAX46Y46*%
G04 Gerber Fmt 4.6, Leading zero omitted, Abs format (unit mm)*
G04 Created by KiCad (PCBNEW 4.0.6) date Tuesday, December 12, 2017 'AMt' 12:19:16 AM*
%MOMM*%
%LPD*%
G01*
G04 APERTURE LIST*
%ADD10C,0.100000*%
%ADD11C,0.600000*%
%ADD12R,1.600000X3.000000*%
%ADD13R,2.500000X1.000000*%
%ADD14R,0.900000X0.500000*%
%ADD15R,0.500000X0.900000*%
%ADD16C,1.440000*%
%ADD17R,1.700000X1.700000*%
%ADD18O,1.700000X1.700000*%
%ADD19C,1.600000*%
%ADD20C,1.800000*%
%ADD21C,4.000000*%
%ADD22C,0.250000*%
%ADD23C,0.254000*%
G04 APERTURE END LIST*
D10*
D11*
X175387000Y-68072000D03*
X172720000Y-118110000D03*
X168910000Y-137160000D03*
X169545000Y-109220000D03*
X169545000Y-127635000D03*
X180340000Y-109220000D03*
D12*
X163830000Y-83480000D03*
X163830000Y-79080000D03*
X185420000Y-83480000D03*
X185420000Y-79080000D03*
D13*
X186690000Y-159860000D03*
X186690000Y-151560000D03*
X186690000Y-148460000D03*
X173990000Y-159860000D03*
X173990000Y-151560000D03*
X173990000Y-148460000D03*
X161290000Y-143350000D03*
X161290000Y-135050000D03*
X161290000Y-131950000D03*
X186690000Y-143350000D03*
X186690000Y-135050000D03*
X186690000Y-131950000D03*
X173990000Y-143350000D03*
X173990000Y-135050000D03*
X173990000Y-131950000D03*
X161290000Y-159860000D03*
X161290000Y-151560000D03*
X161290000Y-148460000D03*
D14*
X160655000Y-112280000D03*
X160655000Y-113780000D03*
D15*
X174510000Y-112395000D03*
X176010000Y-112395000D03*
D14*
X163830000Y-113780000D03*
X163830000Y-112280000D03*
X182880000Y-113780000D03*
X182880000Y-112280000D03*
X167640000Y-113780000D03*
X167640000Y-112280000D03*
X186690000Y-113780000D03*
X186690000Y-112280000D03*
D15*
X174510000Y-109220000D03*
X176010000Y-109220000D03*
X176010000Y-115570000D03*
X174510000Y-115570000D03*
D14*
X191135000Y-113780000D03*
X191135000Y-112280000D03*
D16*
X175260000Y-120650000D03*
X175260000Y-123190000D03*
X175260000Y-125730000D03*
X167640000Y-160020000D03*
X167640000Y-157480000D03*
X167640000Y-154940000D03*
D17*
X170180000Y-82550000D03*
D18*
X170180000Y-80010000D03*
X172720000Y-82550000D03*
X172720000Y-80010000D03*
X175260000Y-82550000D03*
X175260000Y-80010000D03*
X177800000Y-82550000D03*
X177800000Y-80010000D03*
X180340000Y-82550000D03*
X180340000Y-80010000D03*
D19*
X159385000Y-104775000D03*
X159385000Y-109775000D03*
X158750000Y-78740000D03*
X158750000Y-83740000D03*
X191135000Y-109855000D03*
X191135000Y-104855000D03*
X190500000Y-78740000D03*
X190500000Y-83740000D03*
D20*
X187920000Y-128270000D03*
X185420000Y-128270000D03*
X182920000Y-128270000D03*
D21*
X190170000Y-120770000D03*
X180670000Y-120770000D03*
D20*
X166290000Y-128270000D03*
X163790000Y-128270000D03*
X161290000Y-128270000D03*
D21*
X168540000Y-120770000D03*
X159040000Y-120770000D03*
D20*
X187880000Y-73660000D03*
X185380000Y-73660000D03*
X182880000Y-73660000D03*
D21*
X190130000Y-66160000D03*
X180630000Y-66160000D03*
D20*
X187880000Y-100965000D03*
X185380000Y-100965000D03*
X182880000Y-100965000D03*
D21*
X190130000Y-93465000D03*
X180630000Y-93465000D03*
D20*
X166290000Y-100965000D03*
X163790000Y-100965000D03*
X161290000Y-100965000D03*
D21*
X168540000Y-93465000D03*
X159040000Y-93465000D03*
D20*
X166290000Y-73660000D03*
X163790000Y-73660000D03*
X161290000Y-73660000D03*
D21*
X168540000Y-66160000D03*
X159040000Y-66160000D03*
D11*
X182245000Y-105410000D03*
X159385000Y-139619960D03*
X165735000Y-142240000D03*
X161309989Y-133400011D03*
X163830000Y-135890000D03*
X158750000Y-127000008D03*
X163195000Y-131445000D03*
X179070000Y-84074002D03*
X164465000Y-146050000D03*
X176530002Y-110490000D03*
X165727930Y-111251828D03*
X164465000Y-86360000D03*
X159385000Y-146050000D03*
X179705000Y-132715000D03*
X178983710Y-130819990D03*
X176755007Y-129411093D03*
X158092516Y-125854345D03*
X173089978Y-109220000D03*
X176760002Y-109220000D03*
X188722000Y-109474000D03*
X175260000Y-77724000D03*
X184150000Y-112395000D03*
X187960000Y-111125000D03*
X185904719Y-94359571D03*
X181551546Y-126941546D03*
X176530000Y-138430000D03*
X176849997Y-135255000D03*
X171956055Y-149566504D03*
X172085000Y-143510000D03*
X185166000Y-120904000D03*
X179705000Y-146050000D03*
X183212947Y-120066730D03*
X172466000Y-140833010D03*
X185927998Y-119634000D03*
X179749346Y-135451531D03*
X180548366Y-133932988D03*
X179465000Y-138430000D03*
X171450000Y-129286000D03*
X169752660Y-129159208D03*
X163350023Y-125730000D03*
X165100000Y-130175000D03*
X193040008Y-112776000D03*
X167364988Y-150109989D03*
X165849449Y-118224449D03*
X172720000Y-133985000D03*
X170815000Y-114935000D03*
X183515000Y-141605000D03*
X188061950Y-141503050D03*
X167005000Y-125730000D03*
X173089978Y-107445082D03*
X164689903Y-108989996D03*
X184785000Y-109220000D03*
X162550010Y-125730000D03*
X158115000Y-137159976D03*
X158115000Y-140969994D03*
X157480000Y-149860000D03*
X157480008Y-140335000D03*
X180975000Y-102235000D03*
X180975000Y-103505000D03*
X180975000Y-109855000D03*
X182880000Y-111125000D03*
X162560000Y-133858000D03*
X167660000Y-133285000D03*
X159089989Y-142750551D03*
X173089978Y-111759996D03*
X169300825Y-132541927D03*
X158895005Y-131935000D03*
X158115000Y-144780000D03*
X177165000Y-114935000D03*
X179705000Y-141605000D03*
X179705000Y-144780000D03*
X179705000Y-106680000D03*
X177165000Y-140970000D03*
X178435000Y-139065000D03*
X169781577Y-131902477D03*
X165735000Y-138430000D03*
X179070000Y-136525000D03*
X172720000Y-136525000D03*
X159299569Y-133223463D03*
X160020000Y-125095000D03*
D22*
X159385000Y-139619960D02*
X162005040Y-142240000D01*
X162005040Y-142240000D02*
X165735000Y-142240000D01*
X159794998Y-135890000D02*
X159714999Y-135810001D01*
X159714999Y-135810001D02*
X159714999Y-134289999D01*
X159714999Y-134289999D02*
X159779999Y-134224999D01*
X161009990Y-133700010D02*
X161309989Y-133400011D01*
X159779999Y-134224999D02*
X160485001Y-134224999D01*
X160485001Y-134224999D02*
X161009990Y-133700010D01*
X163830000Y-135890000D02*
X159794998Y-135890000D01*
X158750000Y-127635000D02*
X158750000Y-127000008D01*
X160655000Y-129540000D02*
X158750000Y-127635000D01*
X161290000Y-129540000D02*
X160655000Y-129540000D01*
X163195000Y-131445000D02*
X161290000Y-129540000D01*
X176010000Y-109220000D02*
X176010000Y-109969998D01*
X176010000Y-109969998D02*
X176530002Y-110490000D01*
X164465000Y-146050000D02*
X164465000Y-151765000D01*
X164465000Y-151765000D02*
X167640000Y-154940000D01*
X159476998Y-100965000D02*
X165727930Y-107215932D01*
X156714999Y-100965000D02*
X159476998Y-100965000D01*
X165727930Y-107215932D02*
X165727930Y-110827564D01*
X165727930Y-110827564D02*
X165727930Y-111251828D01*
X161673233Y-152783233D02*
X166370000Y-157480000D01*
X166370000Y-157480000D02*
X166370000Y-158750000D01*
X166370000Y-158750000D02*
X167640000Y-160020000D01*
X159385000Y-152783233D02*
X161673233Y-152783233D01*
X164465000Y-86360000D02*
X163830000Y-85725000D01*
X163830000Y-85725000D02*
X163830000Y-83480000D01*
X156714999Y-89545001D02*
X156714999Y-100965000D01*
X156714999Y-100965000D02*
X156714999Y-119017589D01*
X156714999Y-150113232D02*
X159385000Y-152783233D01*
X156714999Y-141130001D02*
X156714999Y-150113232D01*
X156219999Y-130798591D02*
X156219999Y-140635001D01*
X156219999Y-140635001D02*
X156714999Y-141130001D01*
X156264988Y-119467599D02*
X156264988Y-130753602D01*
X156264988Y-130753602D02*
X156219999Y-130798591D01*
X156714999Y-119017589D02*
X156264988Y-119467599D01*
X162780000Y-83480000D02*
X156714999Y-89545001D01*
X163830000Y-83480000D02*
X162780000Y-83480000D01*
X159385000Y-146050000D02*
X159385000Y-152783233D01*
X179705000Y-131541280D02*
X179705000Y-132715000D01*
X178983710Y-130819990D02*
X179705000Y-131541280D01*
X158092516Y-125854345D02*
X158092516Y-125462480D01*
X158092516Y-125462480D02*
X159094996Y-124460000D01*
X159094996Y-124460000D02*
X160655000Y-124460000D01*
X160655000Y-124460000D02*
X161925000Y-125730000D01*
X161925000Y-125730000D02*
X161925000Y-126365000D01*
X161925000Y-126365000D02*
X173989996Y-126365000D01*
X173989996Y-126365000D02*
X176755007Y-129130011D01*
X176755007Y-129130011D02*
X176755007Y-129411093D01*
X168910000Y-140462000D02*
X170688000Y-142240000D01*
X170688000Y-142240000D02*
X173630000Y-142240000D01*
X168910000Y-137160000D02*
X168910000Y-140462000D01*
X173630000Y-142240000D02*
X172593000Y-142240000D01*
X172593000Y-142240000D02*
X172466000Y-142113000D01*
X173990000Y-143350000D02*
X173990000Y-142600000D01*
X173990000Y-142600000D02*
X173630000Y-142240000D01*
X170377670Y-134874000D02*
X170377670Y-132231386D01*
X168910000Y-137160000D02*
X169209999Y-136860001D01*
X169209999Y-136860001D02*
X169209999Y-136041671D01*
X169209999Y-136041671D02*
X170377670Y-134874000D01*
X176760002Y-109220000D02*
X176760002Y-108795736D01*
X176760002Y-108795736D02*
X176409265Y-108444999D01*
X173864979Y-108444999D02*
X173389977Y-108920001D01*
X173389977Y-108920001D02*
X173089978Y-109220000D01*
X176409265Y-108444999D02*
X173864979Y-108444999D01*
X172466000Y-142113000D02*
X172753000Y-142113000D01*
X170377670Y-132231386D02*
X170406578Y-132202478D01*
X170406578Y-132202478D02*
X170406578Y-128496578D01*
X170406578Y-128496578D02*
X169545000Y-127635000D01*
X184234999Y-100296999D02*
X184154999Y-100376999D01*
X184154999Y-100376999D02*
X184154999Y-104906999D01*
X184154999Y-104906999D02*
X188422001Y-109174001D01*
X188422001Y-109174001D02*
X188722000Y-109474000D01*
X185420000Y-79780000D02*
X184234999Y-80965001D01*
X184234999Y-80965001D02*
X184234999Y-100296999D01*
X185420000Y-79080000D02*
X185420000Y-79780000D01*
X184370000Y-79080000D02*
X183014000Y-77724000D01*
X183014000Y-77724000D02*
X175260000Y-77724000D01*
X185420000Y-79080000D02*
X184370000Y-79080000D01*
X187960000Y-111125000D02*
X185420000Y-111125000D01*
X185420000Y-111125000D02*
X184150000Y-112395000D01*
X185420000Y-78380000D02*
X185420000Y-79080000D01*
X185420000Y-93874852D02*
X185904719Y-94359571D01*
X185420000Y-83480000D02*
X185420000Y-93874852D01*
X176849997Y-135255000D02*
X176849997Y-131760003D01*
X181251547Y-127241545D02*
X181551546Y-126941546D01*
X181251547Y-127358453D02*
X181251547Y-127241545D01*
X176849997Y-131760003D02*
X181251547Y-127358453D01*
X176530000Y-148255002D02*
X176530000Y-138430000D01*
X175218498Y-149566504D02*
X176530000Y-148255002D01*
X171956055Y-149566504D02*
X175218498Y-149566504D01*
X172085000Y-149437559D02*
X171956055Y-149566504D01*
X172085000Y-143510000D02*
X172085000Y-149437559D01*
X186690000Y-128853002D02*
X186690000Y-122428000D01*
X186690000Y-122428000D02*
X185465999Y-121203999D01*
X185465999Y-121203999D02*
X185166000Y-120904000D01*
X188250002Y-142240000D02*
X188686951Y-141803051D01*
X183515000Y-142240000D02*
X188250002Y-142240000D01*
X188686951Y-141803051D02*
X188686951Y-130849953D01*
X188686951Y-130849953D02*
X186690000Y-128853002D01*
X179705000Y-146050000D02*
X183515000Y-142240000D01*
X182995001Y-120284676D02*
X183212947Y-120066730D01*
X176079989Y-132205011D02*
X176079989Y-131893596D01*
X176079989Y-131893596D02*
X177499999Y-130473586D01*
X182995001Y-121901176D02*
X182995001Y-120284676D01*
X174925002Y-133359998D02*
X176079989Y-132205011D01*
X177499999Y-127396178D02*
X182995001Y-121901176D01*
X177499999Y-130473586D02*
X177499999Y-127396178D01*
X172094998Y-140462008D02*
X172094998Y-133684998D01*
X172094998Y-133684998D02*
X172419998Y-133359998D01*
X172466000Y-140833010D02*
X172094998Y-140462008D01*
X172419998Y-133359998D02*
X174925002Y-133359998D01*
X183445012Y-120718563D02*
X184529575Y-119634000D01*
X184529575Y-119634000D02*
X185503734Y-119634000D01*
X185503734Y-119634000D02*
X185927998Y-119634000D01*
X183445012Y-122249090D02*
X183445012Y-120718563D01*
X182235003Y-123459099D02*
X183445012Y-122249090D01*
X182235003Y-127141995D02*
X182235003Y-123459099D01*
X180548366Y-128828632D02*
X182235003Y-127141995D01*
X180548366Y-133932988D02*
X180548366Y-128828632D01*
X179749346Y-137721390D02*
X179749346Y-135451531D01*
X179465000Y-138430000D02*
X179465000Y-138005736D01*
X179465000Y-138005736D02*
X179749346Y-137721390D01*
X192945012Y-141454988D02*
X186690000Y-147710000D01*
X191493001Y-112855001D02*
X192945012Y-114307012D01*
X186857897Y-120259003D02*
X190359999Y-116756901D01*
X190359999Y-113269999D02*
X190774997Y-112855001D01*
X190774997Y-112855001D02*
X191493001Y-112855001D01*
X190359999Y-116756901D02*
X190359999Y-113269999D01*
X184540982Y-120259003D02*
X186857897Y-120259003D01*
X182920000Y-128270000D02*
X183895023Y-127294977D01*
X183895023Y-127294977D02*
X183895023Y-120904962D01*
X192945012Y-114307012D02*
X192945012Y-141454988D01*
X183895023Y-120904962D02*
X184540982Y-120259003D01*
X186690000Y-147710000D02*
X186690000Y-148460000D01*
X171450000Y-140742012D02*
X171450000Y-129286000D01*
X161290000Y-128270000D02*
X162560000Y-129540000D01*
X162560000Y-129540000D02*
X169371868Y-129540000D01*
X169371868Y-129540000D02*
X169752660Y-129159208D01*
X175565001Y-142589999D02*
X174433013Y-141458011D01*
X175565001Y-146134999D02*
X175565001Y-142589999D01*
X173990000Y-147710000D02*
X175565001Y-146134999D01*
X173990000Y-148460000D02*
X173990000Y-147710000D01*
X174433013Y-141458011D02*
X172165999Y-141458011D01*
X172165999Y-141458011D02*
X171450000Y-140742012D01*
X163350023Y-125305736D02*
X163350023Y-125730000D01*
X163054999Y-125010712D02*
X163350023Y-125305736D01*
X163630000Y-112280000D02*
X163054999Y-112855001D01*
X163830000Y-112280000D02*
X163630000Y-112280000D01*
X163054999Y-112855001D02*
X163054999Y-125010712D01*
X162790000Y-131950000D02*
X161290000Y-131950000D01*
X162910001Y-132070001D02*
X162790000Y-131950000D01*
X163629263Y-132070001D02*
X162910001Y-132070001D01*
X165100000Y-130599264D02*
X163629263Y-132070001D01*
X165100000Y-130175000D02*
X165100000Y-130599264D01*
X192740009Y-112476001D02*
X193040008Y-112776000D01*
X182880000Y-100965000D02*
X182880000Y-104557002D01*
X182880000Y-104557002D02*
X188421999Y-110099001D01*
X188421999Y-110099001D02*
X188640995Y-110099001D01*
X188640995Y-110099001D02*
X190047996Y-111506002D01*
X190047996Y-111506002D02*
X191770010Y-111506002D01*
X191770010Y-111506002D02*
X192740009Y-112476001D01*
X191135000Y-113780000D02*
X191135000Y-118293998D01*
X191135000Y-118293998D02*
X192495001Y-119653999D01*
X192495001Y-119653999D02*
X192495001Y-141268589D01*
X192495001Y-141268589D02*
X186239991Y-147523599D01*
X186239991Y-147523599D02*
X186239991Y-147634999D01*
X186239991Y-147634999D02*
X185179999Y-147634999D01*
X185179999Y-147634999D02*
X185114999Y-147699999D01*
X185114999Y-147699999D02*
X185114999Y-148895001D01*
X185114999Y-148895001D02*
X183600012Y-150409988D01*
X183600012Y-150409988D02*
X167664987Y-150409988D01*
X167664987Y-150409988D02*
X167364988Y-150109989D01*
X174510000Y-115570000D02*
X168503898Y-115570000D01*
X165849449Y-124574449D02*
X165849449Y-118224449D01*
X167005000Y-125730000D02*
X165849449Y-124574449D01*
X168503898Y-115570000D02*
X165849449Y-118224449D01*
X175254982Y-133985000D02*
X176224978Y-134954996D01*
X179395000Y-134620000D02*
X180174357Y-134620000D01*
X176224978Y-135894978D02*
X176229998Y-135899998D01*
X176229998Y-135899998D02*
X178115002Y-135899998D01*
X183515000Y-137960643D02*
X183515000Y-141605000D01*
X176224978Y-134954996D02*
X176224978Y-135894978D01*
X180174357Y-134620000D02*
X183515000Y-137960643D01*
X172720000Y-133985000D02*
X175254982Y-133985000D01*
X178115002Y-135899998D02*
X179395000Y-134620000D01*
X171450000Y-115570000D02*
X170815000Y-114935000D01*
X174510000Y-115570000D02*
X171450000Y-115570000D01*
X183616950Y-141503050D02*
X183515000Y-141605000D01*
X188061950Y-141503050D02*
X183616950Y-141503050D01*
X183010082Y-107445082D02*
X173514242Y-107445082D01*
X173514242Y-107445082D02*
X173089978Y-107445082D01*
X184785000Y-109220000D02*
X183010082Y-107445082D01*
X164389904Y-109289995D02*
X164689903Y-108989996D01*
X160655000Y-112280000D02*
X161399899Y-112280000D01*
X161399899Y-112280000D02*
X164389904Y-109289995D01*
X162560000Y-116185000D02*
X162560000Y-125295746D01*
X160655000Y-113780000D02*
X160655000Y-114280000D01*
X160655000Y-114280000D02*
X162560000Y-116185000D01*
X162550010Y-125305736D02*
X162550010Y-125730000D01*
X162560000Y-125295746D02*
X162550010Y-125305736D01*
X158115000Y-140969994D02*
X158115000Y-137159976D01*
X157480000Y-141604994D02*
X158115000Y-140969994D01*
X157480000Y-149860000D02*
X157480000Y-141604994D01*
X161619999Y-113204999D02*
X159944999Y-113204999D01*
X164030000Y-113780000D02*
X164605001Y-113204999D01*
X164605001Y-113204999D02*
X164605001Y-111769999D01*
X164605001Y-111769999D02*
X164540001Y-111704999D01*
X164540001Y-111704999D02*
X163119999Y-111704999D01*
X163119999Y-111704999D02*
X161619999Y-113204999D01*
X159944999Y-113204999D02*
X159879999Y-113269999D01*
X159879999Y-113269999D02*
X159879999Y-116488999D01*
X159879999Y-116488999D02*
X156714999Y-119653999D01*
X156714999Y-119653999D02*
X156714999Y-139569991D01*
X156714999Y-139569991D02*
X157480008Y-140335000D01*
X163830000Y-113780000D02*
X164030000Y-113780000D01*
X167640000Y-113780000D02*
X163830000Y-113780000D01*
X182880000Y-113780000D02*
X185190000Y-113780000D01*
X185190000Y-113780000D02*
X185990000Y-112980000D01*
X185990000Y-112980000D02*
X185990000Y-112780000D01*
X185990000Y-112780000D02*
X186490000Y-112280000D01*
X186490000Y-112280000D02*
X186690000Y-112280000D01*
X174510000Y-112395000D02*
X174510000Y-112595000D01*
X174510000Y-112595000D02*
X175695000Y-113780000D01*
X175695000Y-113780000D02*
X182880000Y-113780000D01*
X174510000Y-112395000D02*
X169025000Y-112395000D01*
X168340000Y-113080000D02*
X168340000Y-113280000D01*
X169025000Y-112395000D02*
X168340000Y-113080000D01*
X167840000Y-113780000D02*
X167640000Y-113780000D01*
X168340000Y-113280000D02*
X167840000Y-113780000D01*
X180975000Y-103505000D02*
X180975000Y-102235000D01*
X176010000Y-112395000D02*
X178435000Y-112395000D01*
X178435000Y-112395000D02*
X180975000Y-109855000D01*
X176010000Y-112195000D02*
X176010000Y-112395000D01*
X182880000Y-112280000D02*
X182880000Y-111125000D01*
X167640000Y-111780000D02*
X167640000Y-112280000D01*
X163790000Y-100965000D02*
X167640000Y-104815000D01*
X167640000Y-104815000D02*
X167640000Y-111780000D01*
X167660000Y-133285000D02*
X163133000Y-133285000D01*
X163133000Y-133285000D02*
X162560000Y-133858000D01*
X175260000Y-120650000D02*
X180975000Y-114935000D01*
X180975000Y-114935000D02*
X184835000Y-114935000D01*
X184835000Y-114935000D02*
X185990000Y-113780000D01*
X185990000Y-113780000D02*
X186690000Y-113780000D01*
X175260000Y-123190000D02*
X175260000Y-120650000D01*
X159089989Y-143851400D02*
X159089989Y-142750551D01*
X164014989Y-148776400D02*
X159089989Y-143851400D01*
X164014989Y-153854989D02*
X164014989Y-148776400D01*
X167640000Y-157480000D02*
X164014989Y-153854989D01*
X174510000Y-110339974D02*
X173389977Y-111459997D01*
X173389977Y-111459997D02*
X173089978Y-111759996D01*
X174510000Y-109220000D02*
X174510000Y-110339974D01*
X159464268Y-132504264D02*
X159735005Y-132775001D01*
X159735005Y-132775001D02*
X167244997Y-132775001D01*
X167244997Y-132775001D02*
X167478071Y-132541927D01*
X168876561Y-132541927D02*
X169300825Y-132541927D01*
X167478071Y-132541927D02*
X168876561Y-132541927D01*
X158750000Y-139329986D02*
X159264988Y-138814998D01*
X158115000Y-144780000D02*
X158115000Y-142800536D01*
X160010009Y-133650001D02*
X160010009Y-133050005D01*
X160010009Y-133050005D02*
X159464268Y-132504264D01*
X158115000Y-142800536D02*
X158750000Y-142165536D01*
X159593599Y-133774988D02*
X159885022Y-133774988D01*
X159885022Y-133774988D02*
X160010009Y-133650001D01*
X159264988Y-134103599D02*
X159593599Y-133774988D01*
X158750000Y-142165536D02*
X158750000Y-139329986D01*
X159264988Y-138814998D02*
X159264988Y-134103599D01*
X159464268Y-132504264D02*
X159195004Y-132234999D01*
X159195004Y-132234999D02*
X158895005Y-131935000D01*
X177165000Y-114935000D02*
X176645000Y-114935000D01*
X176645000Y-114935000D02*
X176010000Y-115570000D01*
X179705000Y-144780000D02*
X179705000Y-141605000D01*
X190093585Y-112280000D02*
X188362597Y-110549012D01*
X188235599Y-110549012D02*
X184366587Y-106680000D01*
X191135000Y-112280000D02*
X190093585Y-112280000D01*
X184366587Y-106680000D02*
X180129264Y-106680000D01*
X180129264Y-106680000D02*
X179705000Y-106680000D01*
X188362597Y-110549012D02*
X188235599Y-110549012D01*
X178435000Y-139700000D02*
X177165000Y-140970000D01*
X178435000Y-139065000D02*
X178435000Y-139700000D01*
X169927659Y-132048559D02*
X169781577Y-131902477D01*
X169927659Y-134237341D02*
X169927659Y-132048559D01*
X165735000Y-138430000D02*
X169927659Y-134237341D01*
X172720000Y-136525000D02*
X179070000Y-136525000D01*
X160020000Y-125095000D02*
X159776865Y-125095000D01*
X159776865Y-125095000D02*
X158392518Y-126479347D01*
X158392518Y-126479347D02*
X158124999Y-126479347D01*
X158124999Y-126479347D02*
X158124999Y-132048893D01*
X158124999Y-132048893D02*
X159299569Y-133223463D01*
D23*
G36*
X170690000Y-140742012D02*
X170747852Y-141032851D01*
X170912599Y-141279413D01*
X171628597Y-141995412D01*
X171717528Y-142054833D01*
X171875160Y-142160159D01*
X172165999Y-142218011D01*
X172606422Y-142218011D01*
X172380302Y-142311673D01*
X172201673Y-142490301D01*
X172166560Y-142575070D01*
X171899833Y-142574838D01*
X171556057Y-142716883D01*
X171292808Y-142979673D01*
X171150162Y-143323201D01*
X171149838Y-143695167D01*
X171291883Y-144038943D01*
X171325000Y-144072118D01*
X171325000Y-148875321D01*
X171163863Y-149036177D01*
X171021217Y-149379705D01*
X171020982Y-149649988D01*
X168186591Y-149649988D01*
X168158105Y-149581046D01*
X167895315Y-149317797D01*
X167551787Y-149175151D01*
X167179821Y-149174827D01*
X166836045Y-149316872D01*
X166572796Y-149579662D01*
X166430150Y-149923190D01*
X166429826Y-150295156D01*
X166571871Y-150638932D01*
X166834661Y-150902181D01*
X167178189Y-151044827D01*
X167273537Y-151044910D01*
X167374148Y-151112136D01*
X167664987Y-151169988D01*
X172092560Y-151169988D01*
X172092560Y-152060000D01*
X172136838Y-152295317D01*
X172275910Y-152511441D01*
X172488110Y-152656431D01*
X172740000Y-152707440D01*
X175240000Y-152707440D01*
X175475317Y-152663162D01*
X175691441Y-152524090D01*
X175836431Y-152311890D01*
X175887440Y-152060000D01*
X175887440Y-151169988D01*
X183600012Y-151169988D01*
X183890851Y-151112136D01*
X183968878Y-151060000D01*
X184792560Y-151060000D01*
X184792560Y-152060000D01*
X184836838Y-152295317D01*
X184975910Y-152511441D01*
X185188110Y-152656431D01*
X185440000Y-152707440D01*
X187940000Y-152707440D01*
X188175317Y-152663162D01*
X188391441Y-152524090D01*
X188536431Y-152311890D01*
X188587440Y-152060000D01*
X188587440Y-151060000D01*
X188543162Y-150824683D01*
X188404090Y-150608559D01*
X188191890Y-150463569D01*
X187940000Y-150412560D01*
X185440000Y-150412560D01*
X185204683Y-150456838D01*
X184988559Y-150595910D01*
X184843569Y-150808110D01*
X184792560Y-151060000D01*
X183968878Y-151060000D01*
X184137413Y-150947389D01*
X185477362Y-149607440D01*
X187940000Y-149607440D01*
X188175317Y-149563162D01*
X188391441Y-149424090D01*
X188536431Y-149211890D01*
X188587440Y-148960000D01*
X188587440Y-147960000D01*
X188543162Y-147724683D01*
X188404090Y-147508559D01*
X188191890Y-147363569D01*
X188124816Y-147349986D01*
X193482413Y-141992389D01*
X193647160Y-141745827D01*
X193670000Y-141631004D01*
X193670000Y-161412000D01*
X155580000Y-161412000D01*
X155580000Y-160145750D01*
X159405000Y-160145750D01*
X159405000Y-160486310D01*
X159501673Y-160719699D01*
X159680302Y-160898327D01*
X159913691Y-160995000D01*
X161004250Y-160995000D01*
X161163000Y-160836250D01*
X161163000Y-159987000D01*
X161417000Y-159987000D01*
X161417000Y-160836250D01*
X161575750Y-160995000D01*
X162666309Y-160995000D01*
X162899698Y-160898327D01*
X163078327Y-160719699D01*
X163175000Y-160486310D01*
X163175000Y-160145750D01*
X163016250Y-159987000D01*
X161417000Y-159987000D01*
X161163000Y-159987000D01*
X159563750Y-159987000D01*
X159405000Y-160145750D01*
X155580000Y-160145750D01*
X155580000Y-159233690D01*
X159405000Y-159233690D01*
X159405000Y-159574250D01*
X159563750Y-159733000D01*
X161163000Y-159733000D01*
X161163000Y-158883750D01*
X161417000Y-158883750D01*
X161417000Y-159733000D01*
X163016250Y-159733000D01*
X163175000Y-159574250D01*
X163175000Y-159233690D01*
X163078327Y-159000301D01*
X162899698Y-158821673D01*
X162666309Y-158725000D01*
X161575750Y-158725000D01*
X161417000Y-158883750D01*
X161163000Y-158883750D01*
X161004250Y-158725000D01*
X159913691Y-158725000D01*
X159680302Y-158821673D01*
X159501673Y-159000301D01*
X159405000Y-159233690D01*
X155580000Y-159233690D01*
X155580000Y-141018853D01*
X155682598Y-141172402D01*
X155954999Y-141444803D01*
X155954999Y-150113232D01*
X156012851Y-150404071D01*
X156177598Y-150650633D01*
X158847599Y-153320634D01*
X159094161Y-153485381D01*
X159385000Y-153543233D01*
X159793469Y-153543233D01*
X159386898Y-154151709D01*
X159230097Y-154940000D01*
X159386898Y-155728291D01*
X159833429Y-156396571D01*
X160501709Y-156843102D01*
X161290000Y-156999903D01*
X162078291Y-156843102D01*
X162746571Y-156396571D01*
X163193102Y-155728291D01*
X163251235Y-155436037D01*
X165610000Y-157794802D01*
X165610000Y-158750000D01*
X165667852Y-159040839D01*
X165832599Y-159287401D01*
X166287951Y-159742753D01*
X166285236Y-159749291D01*
X166284765Y-160288344D01*
X166490617Y-160786543D01*
X166871452Y-161168043D01*
X167369291Y-161374764D01*
X167908344Y-161375235D01*
X168406543Y-161169383D01*
X168788043Y-160788548D01*
X168994764Y-160290709D01*
X168994890Y-160145750D01*
X172105000Y-160145750D01*
X172105000Y-160486310D01*
X172201673Y-160719699D01*
X172380302Y-160898327D01*
X172613691Y-160995000D01*
X173704250Y-160995000D01*
X173863000Y-160836250D01*
X173863000Y-159987000D01*
X174117000Y-159987000D01*
X174117000Y-160836250D01*
X174275750Y-160995000D01*
X175366309Y-160995000D01*
X175599698Y-160898327D01*
X175778327Y-160719699D01*
X175875000Y-160486310D01*
X175875000Y-160145750D01*
X184805000Y-160145750D01*
X184805000Y-160486310D01*
X184901673Y-160719699D01*
X185080302Y-160898327D01*
X185313691Y-160995000D01*
X186404250Y-160995000D01*
X186563000Y-160836250D01*
X186563000Y-159987000D01*
X186817000Y-159987000D01*
X186817000Y-160836250D01*
X186975750Y-160995000D01*
X188066309Y-160995000D01*
X188299698Y-160898327D01*
X188478327Y-160719699D01*
X188575000Y-160486310D01*
X188575000Y-160145750D01*
X188416250Y-159987000D01*
X186817000Y-159987000D01*
X186563000Y-159987000D01*
X184963750Y-159987000D01*
X184805000Y-160145750D01*
X175875000Y-160145750D01*
X175716250Y-159987000D01*
X174117000Y-159987000D01*
X173863000Y-159987000D01*
X172263750Y-159987000D01*
X172105000Y-160145750D01*
X168994890Y-160145750D01*
X168995235Y-159751656D01*
X168789383Y-159253457D01*
X168769651Y-159233690D01*
X172105000Y-159233690D01*
X172105000Y-159574250D01*
X172263750Y-159733000D01*
X173863000Y-159733000D01*
X173863000Y-158883750D01*
X174117000Y-158883750D01*
X174117000Y-159733000D01*
X175716250Y-159733000D01*
X175875000Y-159574250D01*
X175875000Y-159233690D01*
X184805000Y-159233690D01*
X184805000Y-159574250D01*
X184963750Y-159733000D01*
X186563000Y-159733000D01*
X186563000Y-158883750D01*
X186817000Y-158883750D01*
X186817000Y-159733000D01*
X188416250Y-159733000D01*
X188575000Y-159574250D01*
X188575000Y-159233690D01*
X188478327Y-159000301D01*
X188299698Y-158821673D01*
X188066309Y-158725000D01*
X186975750Y-158725000D01*
X186817000Y-158883750D01*
X186563000Y-158883750D01*
X186404250Y-158725000D01*
X185313691Y-158725000D01*
X185080302Y-158821673D01*
X184901673Y-159000301D01*
X184805000Y-159233690D01*
X175875000Y-159233690D01*
X175778327Y-159000301D01*
X175599698Y-158821673D01*
X175366309Y-158725000D01*
X174275750Y-158725000D01*
X174117000Y-158883750D01*
X173863000Y-158883750D01*
X173704250Y-158725000D01*
X172613691Y-158725000D01*
X172380302Y-158821673D01*
X172201673Y-159000301D01*
X172105000Y-159233690D01*
X168769651Y-159233690D01*
X168408548Y-158871957D01*
X168114736Y-158749955D01*
X168406543Y-158629383D01*
X168788043Y-158248548D01*
X168994764Y-157750709D01*
X168995235Y-157211656D01*
X168789383Y-156713457D01*
X168408548Y-156331957D01*
X168114736Y-156209955D01*
X168406543Y-156089383D01*
X168788043Y-155708548D01*
X168994764Y-155210709D01*
X168995000Y-154940000D01*
X171930097Y-154940000D01*
X172086898Y-155728291D01*
X172533429Y-156396571D01*
X173201709Y-156843102D01*
X173990000Y-156999903D01*
X174778291Y-156843102D01*
X175446571Y-156396571D01*
X175893102Y-155728291D01*
X176049903Y-154940000D01*
X184630097Y-154940000D01*
X184786898Y-155728291D01*
X185233429Y-156396571D01*
X185901709Y-156843102D01*
X186690000Y-156999903D01*
X187478291Y-156843102D01*
X188146571Y-156396571D01*
X188593102Y-155728291D01*
X188749903Y-154940000D01*
X188593102Y-154151709D01*
X188146571Y-153483429D01*
X187478291Y-153036898D01*
X186690000Y-152880097D01*
X185901709Y-153036898D01*
X185233429Y-153483429D01*
X184786898Y-154151709D01*
X184630097Y-154940000D01*
X176049903Y-154940000D01*
X175893102Y-154151709D01*
X175446571Y-153483429D01*
X174778291Y-153036898D01*
X173990000Y-152880097D01*
X173201709Y-153036898D01*
X172533429Y-153483429D01*
X172086898Y-154151709D01*
X171930097Y-154940000D01*
X168995000Y-154940000D01*
X168995235Y-154671656D01*
X168789383Y-154173457D01*
X168408548Y-153791957D01*
X167910709Y-153585236D01*
X167371656Y-153584765D01*
X167363102Y-153588300D01*
X165225000Y-151450198D01*
X165225000Y-146612463D01*
X165257192Y-146580327D01*
X165399838Y-146236799D01*
X165400162Y-145864833D01*
X165258117Y-145521057D01*
X164995327Y-145257808D01*
X164651799Y-145115162D01*
X164279833Y-145114838D01*
X163936057Y-145256883D01*
X163672808Y-145519673D01*
X163530162Y-145863201D01*
X163529838Y-146235167D01*
X163671883Y-146578943D01*
X163705000Y-146612118D01*
X163705000Y-147391609D01*
X160798391Y-144485000D01*
X161004250Y-144485000D01*
X161163000Y-144326250D01*
X161163000Y-143477000D01*
X161417000Y-143477000D01*
X161417000Y-144326250D01*
X161575750Y-144485000D01*
X162666309Y-144485000D01*
X162899698Y-144388327D01*
X163078327Y-144209699D01*
X163175000Y-143976310D01*
X163175000Y-143635750D01*
X163016250Y-143477000D01*
X161417000Y-143477000D01*
X161163000Y-143477000D01*
X161143000Y-143477000D01*
X161143000Y-143223000D01*
X161163000Y-143223000D01*
X161163000Y-143203000D01*
X161417000Y-143203000D01*
X161417000Y-143223000D01*
X163016250Y-143223000D01*
X163175000Y-143064250D01*
X163175000Y-143000000D01*
X165172537Y-143000000D01*
X165204673Y-143032192D01*
X165548201Y-143174838D01*
X165920167Y-143175162D01*
X166263943Y-143033117D01*
X166527192Y-142770327D01*
X166669838Y-142426799D01*
X166670162Y-142054833D01*
X166528117Y-141711057D01*
X166265327Y-141447808D01*
X165921799Y-141305162D01*
X165549833Y-141304838D01*
X165206057Y-141446883D01*
X165172882Y-141480000D01*
X162319842Y-141480000D01*
X161323151Y-140483309D01*
X162078291Y-140333102D01*
X162746571Y-139886571D01*
X163193102Y-139218291D01*
X163349903Y-138430000D01*
X163193102Y-137641709D01*
X162746571Y-136973429D01*
X162262526Y-136650000D01*
X163267537Y-136650000D01*
X163299673Y-136682192D01*
X163643201Y-136824838D01*
X164015167Y-136825162D01*
X164358943Y-136683117D01*
X164622192Y-136420327D01*
X164764838Y-136076799D01*
X164765162Y-135704833D01*
X164623117Y-135361057D01*
X164360327Y-135097808D01*
X164016799Y-134955162D01*
X163644833Y-134954838D01*
X163301057Y-135096883D01*
X163267882Y-135130000D01*
X163187440Y-135130000D01*
X163187440Y-134552792D01*
X163352192Y-134388327D01*
X163494755Y-134045000D01*
X167097537Y-134045000D01*
X167129673Y-134077192D01*
X167473201Y-134219838D01*
X167845167Y-134220162D01*
X168188943Y-134078117D01*
X168452192Y-133815327D01*
X168594838Y-133471799D01*
X168594986Y-133301927D01*
X168738362Y-133301927D01*
X168770498Y-133334119D01*
X169114026Y-133476765D01*
X169167659Y-133476812D01*
X169167659Y-133922539D01*
X165595320Y-137494878D01*
X165549833Y-137494838D01*
X165206057Y-137636883D01*
X164942808Y-137899673D01*
X164800162Y-138243201D01*
X164799838Y-138615167D01*
X164941883Y-138958943D01*
X165204673Y-139222192D01*
X165548201Y-139364838D01*
X165920167Y-139365162D01*
X166263943Y-139223117D01*
X166527192Y-138960327D01*
X166669838Y-138616799D01*
X166669879Y-138569923D01*
X170465060Y-134774742D01*
X170629807Y-134528181D01*
X170687659Y-134237341D01*
X170687659Y-132158528D01*
X170690000Y-132152890D01*
X170690000Y-140742012D01*
X170690000Y-140742012D01*
G37*
X170690000Y-140742012D02*
X170747852Y-141032851D01*
X170912599Y-141279413D01*
X171628597Y-141995412D01*
X171717528Y-142054833D01*
X171875160Y-142160159D01*
X172165999Y-142218011D01*
X172606422Y-142218011D01*
X172380302Y-142311673D01*
X172201673Y-142490301D01*
X172166560Y-142575070D01*
X171899833Y-142574838D01*
X171556057Y-142716883D01*
X171292808Y-142979673D01*
X171150162Y-143323201D01*
X171149838Y-143695167D01*
X171291883Y-144038943D01*
X171325000Y-144072118D01*
X171325000Y-148875321D01*
X171163863Y-149036177D01*
X171021217Y-149379705D01*
X171020982Y-149649988D01*
X168186591Y-149649988D01*
X168158105Y-149581046D01*
X167895315Y-149317797D01*
X167551787Y-149175151D01*
X167179821Y-149174827D01*
X166836045Y-149316872D01*
X166572796Y-149579662D01*
X166430150Y-149923190D01*
X166429826Y-150295156D01*
X166571871Y-150638932D01*
X166834661Y-150902181D01*
X167178189Y-151044827D01*
X167273537Y-151044910D01*
X167374148Y-151112136D01*
X167664987Y-151169988D01*
X172092560Y-151169988D01*
X172092560Y-152060000D01*
X172136838Y-152295317D01*
X172275910Y-152511441D01*
X172488110Y-152656431D01*
X172740000Y-152707440D01*
X175240000Y-152707440D01*
X175475317Y-152663162D01*
X175691441Y-152524090D01*
X175836431Y-152311890D01*
X175887440Y-152060000D01*
X175887440Y-151169988D01*
X183600012Y-151169988D01*
X183890851Y-151112136D01*
X183968878Y-151060000D01*
X184792560Y-151060000D01*
X184792560Y-152060000D01*
X184836838Y-152295317D01*
X184975910Y-152511441D01*
X185188110Y-152656431D01*
X185440000Y-152707440D01*
X187940000Y-152707440D01*
X188175317Y-152663162D01*
X188391441Y-152524090D01*
X188536431Y-152311890D01*
X188587440Y-152060000D01*
X188587440Y-151060000D01*
X188543162Y-150824683D01*
X188404090Y-150608559D01*
X188191890Y-150463569D01*
X187940000Y-150412560D01*
X185440000Y-150412560D01*
X185204683Y-150456838D01*
X184988559Y-150595910D01*
X184843569Y-150808110D01*
X184792560Y-151060000D01*
X183968878Y-151060000D01*
X184137413Y-150947389D01*
X185477362Y-149607440D01*
X187940000Y-149607440D01*
X188175317Y-149563162D01*
X188391441Y-149424090D01*
X188536431Y-149211890D01*
X188587440Y-148960000D01*
X188587440Y-147960000D01*
X188543162Y-147724683D01*
X188404090Y-147508559D01*
X188191890Y-147363569D01*
X188124816Y-147349986D01*
X193482413Y-141992389D01*
X193647160Y-141745827D01*
X193670000Y-141631004D01*
X193670000Y-161412000D01*
X155580000Y-161412000D01*
X155580000Y-160145750D01*
X159405000Y-160145750D01*
X159405000Y-160486310D01*
X159501673Y-160719699D01*
X159680302Y-160898327D01*
X159913691Y-160995000D01*
X161004250Y-160995000D01*
X161163000Y-160836250D01*
X161163000Y-159987000D01*
X161417000Y-159987000D01*
X161417000Y-160836250D01*
X161575750Y-160995000D01*
X162666309Y-160995000D01*
X162899698Y-160898327D01*
X163078327Y-160719699D01*
X163175000Y-160486310D01*
X163175000Y-160145750D01*
X163016250Y-159987000D01*
X161417000Y-159987000D01*
X161163000Y-159987000D01*
X159563750Y-159987000D01*
X159405000Y-160145750D01*
X155580000Y-160145750D01*
X155580000Y-159233690D01*
X159405000Y-159233690D01*
X159405000Y-159574250D01*
X159563750Y-159733000D01*
X161163000Y-159733000D01*
X161163000Y-158883750D01*
X161417000Y-158883750D01*
X161417000Y-159733000D01*
X163016250Y-159733000D01*
X163175000Y-159574250D01*
X163175000Y-159233690D01*
X163078327Y-159000301D01*
X162899698Y-158821673D01*
X162666309Y-158725000D01*
X161575750Y-158725000D01*
X161417000Y-158883750D01*
X161163000Y-158883750D01*
X161004250Y-158725000D01*
X159913691Y-158725000D01*
X159680302Y-158821673D01*
X159501673Y-159000301D01*
X159405000Y-159233690D01*
X155580000Y-159233690D01*
X155580000Y-141018853D01*
X155682598Y-141172402D01*
X155954999Y-141444803D01*
X155954999Y-150113232D01*
X156012851Y-150404071D01*
X156177598Y-150650633D01*
X158847599Y-153320634D01*
X159094161Y-153485381D01*
X159385000Y-153543233D01*
X159793469Y-153543233D01*
X159386898Y-154151709D01*
X159230097Y-154940000D01*
X159386898Y-155728291D01*
X159833429Y-156396571D01*
X160501709Y-156843102D01*
X161290000Y-156999903D01*
X162078291Y-156843102D01*
X162746571Y-156396571D01*
X163193102Y-155728291D01*
X163251235Y-155436037D01*
X165610000Y-157794802D01*
X165610000Y-158750000D01*
X165667852Y-159040839D01*
X165832599Y-159287401D01*
X166287951Y-159742753D01*
X166285236Y-159749291D01*
X166284765Y-160288344D01*
X166490617Y-160786543D01*
X166871452Y-161168043D01*
X167369291Y-161374764D01*
X167908344Y-161375235D01*
X168406543Y-161169383D01*
X168788043Y-160788548D01*
X168994764Y-160290709D01*
X168994890Y-160145750D01*
X172105000Y-160145750D01*
X172105000Y-160486310D01*
X172201673Y-160719699D01*
X172380302Y-160898327D01*
X172613691Y-160995000D01*
X173704250Y-160995000D01*
X173863000Y-160836250D01*
X173863000Y-159987000D01*
X174117000Y-159987000D01*
X174117000Y-160836250D01*
X174275750Y-160995000D01*
X175366309Y-160995000D01*
X175599698Y-160898327D01*
X175778327Y-160719699D01*
X175875000Y-160486310D01*
X175875000Y-160145750D01*
X184805000Y-160145750D01*
X184805000Y-160486310D01*
X184901673Y-160719699D01*
X185080302Y-160898327D01*
X185313691Y-160995000D01*
X186404250Y-160995000D01*
X186563000Y-160836250D01*
X186563000Y-159987000D01*
X186817000Y-159987000D01*
X186817000Y-160836250D01*
X186975750Y-160995000D01*
X188066309Y-160995000D01*
X188299698Y-160898327D01*
X188478327Y-160719699D01*
X188575000Y-160486310D01*
X188575000Y-160145750D01*
X188416250Y-159987000D01*
X186817000Y-159987000D01*
X186563000Y-159987000D01*
X184963750Y-159987000D01*
X184805000Y-160145750D01*
X175875000Y-160145750D01*
X175716250Y-159987000D01*
X174117000Y-159987000D01*
X173863000Y-159987000D01*
X172263750Y-159987000D01*
X172105000Y-160145750D01*
X168994890Y-160145750D01*
X168995235Y-159751656D01*
X168789383Y-159253457D01*
X168769651Y-159233690D01*
X172105000Y-159233690D01*
X172105000Y-159574250D01*
X172263750Y-159733000D01*
X173863000Y-159733000D01*
X173863000Y-158883750D01*
X174117000Y-158883750D01*
X174117000Y-159733000D01*
X175716250Y-159733000D01*
X175875000Y-159574250D01*
X175875000Y-159233690D01*
X184805000Y-159233690D01*
X184805000Y-159574250D01*
X184963750Y-159733000D01*
X186563000Y-159733000D01*
X186563000Y-158883750D01*
X186817000Y-158883750D01*
X186817000Y-159733000D01*
X188416250Y-159733000D01*
X188575000Y-159574250D01*
X188575000Y-159233690D01*
X188478327Y-159000301D01*
X188299698Y-158821673D01*
X188066309Y-158725000D01*
X186975750Y-158725000D01*
X186817000Y-158883750D01*
X186563000Y-158883750D01*
X186404250Y-158725000D01*
X185313691Y-158725000D01*
X185080302Y-158821673D01*
X184901673Y-159000301D01*
X184805000Y-159233690D01*
X175875000Y-159233690D01*
X175778327Y-159000301D01*
X175599698Y-158821673D01*
X175366309Y-158725000D01*
X174275750Y-158725000D01*
X174117000Y-158883750D01*
X173863000Y-158883750D01*
X173704250Y-158725000D01*
X172613691Y-158725000D01*
X172380302Y-158821673D01*
X172201673Y-159000301D01*
X172105000Y-159233690D01*
X168769651Y-159233690D01*
X168408548Y-158871957D01*
X168114736Y-158749955D01*
X168406543Y-158629383D01*
X168788043Y-158248548D01*
X168994764Y-157750709D01*
X168995235Y-157211656D01*
X168789383Y-156713457D01*
X168408548Y-156331957D01*
X168114736Y-156209955D01*
X168406543Y-156089383D01*
X168788043Y-155708548D01*
X168994764Y-155210709D01*
X168995000Y-154940000D01*
X171930097Y-154940000D01*
X172086898Y-155728291D01*
X172533429Y-156396571D01*
X173201709Y-156843102D01*
X173990000Y-156999903D01*
X174778291Y-156843102D01*
X175446571Y-156396571D01*
X175893102Y-155728291D01*
X176049903Y-154940000D01*
X184630097Y-154940000D01*
X184786898Y-155728291D01*
X185233429Y-156396571D01*
X185901709Y-156843102D01*
X186690000Y-156999903D01*
X187478291Y-156843102D01*
X188146571Y-156396571D01*
X188593102Y-155728291D01*
X188749903Y-154940000D01*
X188593102Y-154151709D01*
X188146571Y-153483429D01*
X187478291Y-153036898D01*
X186690000Y-152880097D01*
X185901709Y-153036898D01*
X185233429Y-153483429D01*
X184786898Y-154151709D01*
X184630097Y-154940000D01*
X176049903Y-154940000D01*
X175893102Y-154151709D01*
X175446571Y-153483429D01*
X174778291Y-153036898D01*
X173990000Y-152880097D01*
X173201709Y-153036898D01*
X172533429Y-153483429D01*
X172086898Y-154151709D01*
X171930097Y-154940000D01*
X168995000Y-154940000D01*
X168995235Y-154671656D01*
X168789383Y-154173457D01*
X168408548Y-153791957D01*
X167910709Y-153585236D01*
X167371656Y-153584765D01*
X167363102Y-153588300D01*
X165225000Y-151450198D01*
X165225000Y-146612463D01*
X165257192Y-146580327D01*
X165399838Y-146236799D01*
X165400162Y-145864833D01*
X165258117Y-145521057D01*
X164995327Y-145257808D01*
X164651799Y-145115162D01*
X164279833Y-145114838D01*
X163936057Y-145256883D01*
X163672808Y-145519673D01*
X163530162Y-145863201D01*
X163529838Y-146235167D01*
X163671883Y-146578943D01*
X163705000Y-146612118D01*
X163705000Y-147391609D01*
X160798391Y-144485000D01*
X161004250Y-144485000D01*
X161163000Y-144326250D01*
X161163000Y-143477000D01*
X161417000Y-143477000D01*
X161417000Y-144326250D01*
X161575750Y-144485000D01*
X162666309Y-144485000D01*
X162899698Y-144388327D01*
X163078327Y-144209699D01*
X163175000Y-143976310D01*
X163175000Y-143635750D01*
X163016250Y-143477000D01*
X161417000Y-143477000D01*
X161163000Y-143477000D01*
X161143000Y-143477000D01*
X161143000Y-143223000D01*
X161163000Y-143223000D01*
X161163000Y-143203000D01*
X161417000Y-143203000D01*
X161417000Y-143223000D01*
X163016250Y-143223000D01*
X163175000Y-143064250D01*
X163175000Y-143000000D01*
X165172537Y-143000000D01*
X165204673Y-143032192D01*
X165548201Y-143174838D01*
X165920167Y-143175162D01*
X166263943Y-143033117D01*
X166527192Y-142770327D01*
X166669838Y-142426799D01*
X166670162Y-142054833D01*
X166528117Y-141711057D01*
X166265327Y-141447808D01*
X165921799Y-141305162D01*
X165549833Y-141304838D01*
X165206057Y-141446883D01*
X165172882Y-141480000D01*
X162319842Y-141480000D01*
X161323151Y-140483309D01*
X162078291Y-140333102D01*
X162746571Y-139886571D01*
X163193102Y-139218291D01*
X163349903Y-138430000D01*
X163193102Y-137641709D01*
X162746571Y-136973429D01*
X162262526Y-136650000D01*
X163267537Y-136650000D01*
X163299673Y-136682192D01*
X163643201Y-136824838D01*
X164015167Y-136825162D01*
X164358943Y-136683117D01*
X164622192Y-136420327D01*
X164764838Y-136076799D01*
X164765162Y-135704833D01*
X164623117Y-135361057D01*
X164360327Y-135097808D01*
X164016799Y-134955162D01*
X163644833Y-134954838D01*
X163301057Y-135096883D01*
X163267882Y-135130000D01*
X163187440Y-135130000D01*
X163187440Y-134552792D01*
X163352192Y-134388327D01*
X163494755Y-134045000D01*
X167097537Y-134045000D01*
X167129673Y-134077192D01*
X167473201Y-134219838D01*
X167845167Y-134220162D01*
X168188943Y-134078117D01*
X168452192Y-133815327D01*
X168594838Y-133471799D01*
X168594986Y-133301927D01*
X168738362Y-133301927D01*
X168770498Y-133334119D01*
X169114026Y-133476765D01*
X169167659Y-133476812D01*
X169167659Y-133922539D01*
X165595320Y-137494878D01*
X165549833Y-137494838D01*
X165206057Y-137636883D01*
X164942808Y-137899673D01*
X164800162Y-138243201D01*
X164799838Y-138615167D01*
X164941883Y-138958943D01*
X165204673Y-139222192D01*
X165548201Y-139364838D01*
X165920167Y-139365162D01*
X166263943Y-139223117D01*
X166527192Y-138960327D01*
X166669838Y-138616799D01*
X166669879Y-138569923D01*
X170465060Y-134774742D01*
X170629807Y-134528181D01*
X170687659Y-134237341D01*
X170687659Y-132158528D01*
X170690000Y-132152890D01*
X170690000Y-140742012D01*
G36*
X187534543Y-121291834D02*
X187934853Y-122260658D01*
X188675443Y-123002542D01*
X189643567Y-123404542D01*
X190691834Y-123405457D01*
X191660658Y-123005147D01*
X191735001Y-122930934D01*
X191735001Y-140953787D01*
X185813789Y-146874999D01*
X185179999Y-146874999D01*
X184889160Y-146932851D01*
X184642598Y-147097598D01*
X184577598Y-147162598D01*
X184412851Y-147409160D01*
X184354999Y-147699999D01*
X184354999Y-148580199D01*
X183285210Y-149649988D01*
X176209816Y-149649988D01*
X177067401Y-148792403D01*
X177232148Y-148545841D01*
X177290000Y-148255002D01*
X177290000Y-141905110D01*
X177350167Y-141905162D01*
X177693943Y-141763117D01*
X177957192Y-141500327D01*
X178099838Y-141156799D01*
X178099879Y-141109923D01*
X178972401Y-140237401D01*
X179137148Y-139990840D01*
X179195000Y-139700000D01*
X179195000Y-139627463D01*
X179227192Y-139595327D01*
X179322884Y-139364877D01*
X179650167Y-139365162D01*
X179993943Y-139223117D01*
X180257192Y-138960327D01*
X180399838Y-138616799D01*
X180400162Y-138244833D01*
X180360390Y-138148577D01*
X180451494Y-138012229D01*
X180509346Y-137721390D01*
X180509346Y-136029791D01*
X182755000Y-138275445D01*
X182755000Y-141042537D01*
X182722808Y-141074673D01*
X182580162Y-141418201D01*
X182579838Y-141790167D01*
X182670533Y-142009665D01*
X180465000Y-144215198D01*
X180465000Y-142167463D01*
X180497192Y-142135327D01*
X180639838Y-141791799D01*
X180640162Y-141419833D01*
X180498117Y-141076057D01*
X180235327Y-140812808D01*
X179891799Y-140670162D01*
X179519833Y-140669838D01*
X179176057Y-140811883D01*
X178912808Y-141074673D01*
X178770162Y-141418201D01*
X178769838Y-141790167D01*
X178911883Y-142133943D01*
X178945000Y-142167118D01*
X178945000Y-144217537D01*
X178912808Y-144249673D01*
X178770162Y-144593201D01*
X178769838Y-144965167D01*
X178911883Y-145308943D01*
X179017710Y-145414954D01*
X178912808Y-145519673D01*
X178770162Y-145863201D01*
X178769838Y-146235167D01*
X178911883Y-146578943D01*
X179174673Y-146842192D01*
X179518201Y-146984838D01*
X179890167Y-146985162D01*
X180233943Y-146843117D01*
X180497192Y-146580327D01*
X180639838Y-146236799D01*
X180639879Y-146189923D01*
X183194052Y-143635750D01*
X184805000Y-143635750D01*
X184805000Y-143976310D01*
X184901673Y-144209699D01*
X185080302Y-144388327D01*
X185313691Y-144485000D01*
X186404250Y-144485000D01*
X186563000Y-144326250D01*
X186563000Y-143477000D01*
X186817000Y-143477000D01*
X186817000Y-144326250D01*
X186975750Y-144485000D01*
X188066309Y-144485000D01*
X188299698Y-144388327D01*
X188478327Y-144209699D01*
X188575000Y-143976310D01*
X188575000Y-143635750D01*
X188416250Y-143477000D01*
X186817000Y-143477000D01*
X186563000Y-143477000D01*
X184963750Y-143477000D01*
X184805000Y-143635750D01*
X183194052Y-143635750D01*
X183829802Y-143000000D01*
X184805000Y-143000000D01*
X184805000Y-143064250D01*
X184963750Y-143223000D01*
X186563000Y-143223000D01*
X186563000Y-143203000D01*
X186817000Y-143203000D01*
X186817000Y-143223000D01*
X188416250Y-143223000D01*
X188575000Y-143064250D01*
X188575000Y-142919324D01*
X188787403Y-142777401D01*
X189224352Y-142340452D01*
X189389099Y-142093891D01*
X189446951Y-141803051D01*
X189446951Y-130849953D01*
X189433291Y-130781280D01*
X189389099Y-130559113D01*
X189224352Y-130312552D01*
X188581622Y-129669822D01*
X188734148Y-129606643D01*
X188820554Y-129350159D01*
X187920000Y-128449605D01*
X187905858Y-128463748D01*
X187726253Y-128284143D01*
X187740395Y-128270000D01*
X188099605Y-128270000D01*
X189000159Y-129170554D01*
X189256643Y-129084148D01*
X189466458Y-128510664D01*
X189440839Y-127900540D01*
X189256643Y-127455852D01*
X189000159Y-127369446D01*
X188099605Y-128270000D01*
X187740395Y-128270000D01*
X187726253Y-128255858D01*
X187905858Y-128076253D01*
X187920000Y-128090395D01*
X188820554Y-127189841D01*
X188734148Y-126933357D01*
X188160664Y-126723542D01*
X187550540Y-126749161D01*
X187450000Y-126790806D01*
X187450000Y-122428000D01*
X187392148Y-122137161D01*
X187227401Y-121890599D01*
X186355805Y-121019003D01*
X186857897Y-121019003D01*
X187148736Y-120961151D01*
X187395298Y-120796404D01*
X187535097Y-120656605D01*
X187534543Y-121291834D01*
X187534543Y-121291834D01*
G37*
X187534543Y-121291834D02*
X187934853Y-122260658D01*
X188675443Y-123002542D01*
X189643567Y-123404542D01*
X190691834Y-123405457D01*
X191660658Y-123005147D01*
X191735001Y-122930934D01*
X191735001Y-140953787D01*
X185813789Y-146874999D01*
X185179999Y-146874999D01*
X184889160Y-146932851D01*
X184642598Y-147097598D01*
X184577598Y-147162598D01*
X184412851Y-147409160D01*
X184354999Y-147699999D01*
X184354999Y-148580199D01*
X183285210Y-149649988D01*
X176209816Y-149649988D01*
X177067401Y-148792403D01*
X177232148Y-148545841D01*
X177290000Y-148255002D01*
X177290000Y-141905110D01*
X177350167Y-141905162D01*
X177693943Y-141763117D01*
X177957192Y-141500327D01*
X178099838Y-141156799D01*
X178099879Y-141109923D01*
X178972401Y-140237401D01*
X179137148Y-139990840D01*
X179195000Y-139700000D01*
X179195000Y-139627463D01*
X179227192Y-139595327D01*
X179322884Y-139364877D01*
X179650167Y-139365162D01*
X179993943Y-139223117D01*
X180257192Y-138960327D01*
X180399838Y-138616799D01*
X180400162Y-138244833D01*
X180360390Y-138148577D01*
X180451494Y-138012229D01*
X180509346Y-137721390D01*
X180509346Y-136029791D01*
X182755000Y-138275445D01*
X182755000Y-141042537D01*
X182722808Y-141074673D01*
X182580162Y-141418201D01*
X182579838Y-141790167D01*
X182670533Y-142009665D01*
X180465000Y-144215198D01*
X180465000Y-142167463D01*
X180497192Y-142135327D01*
X180639838Y-141791799D01*
X180640162Y-141419833D01*
X180498117Y-141076057D01*
X180235327Y-140812808D01*
X179891799Y-140670162D01*
X179519833Y-140669838D01*
X179176057Y-140811883D01*
X178912808Y-141074673D01*
X178770162Y-141418201D01*
X178769838Y-141790167D01*
X178911883Y-142133943D01*
X178945000Y-142167118D01*
X178945000Y-144217537D01*
X178912808Y-144249673D01*
X178770162Y-144593201D01*
X178769838Y-144965167D01*
X178911883Y-145308943D01*
X179017710Y-145414954D01*
X178912808Y-145519673D01*
X178770162Y-145863201D01*
X178769838Y-146235167D01*
X178911883Y-146578943D01*
X179174673Y-146842192D01*
X179518201Y-146984838D01*
X179890167Y-146985162D01*
X180233943Y-146843117D01*
X180497192Y-146580327D01*
X180639838Y-146236799D01*
X180639879Y-146189923D01*
X183194052Y-143635750D01*
X184805000Y-143635750D01*
X184805000Y-143976310D01*
X184901673Y-144209699D01*
X185080302Y-144388327D01*
X185313691Y-144485000D01*
X186404250Y-144485000D01*
X186563000Y-144326250D01*
X186563000Y-143477000D01*
X186817000Y-143477000D01*
X186817000Y-144326250D01*
X186975750Y-144485000D01*
X188066309Y-144485000D01*
X188299698Y-144388327D01*
X188478327Y-144209699D01*
X188575000Y-143976310D01*
X188575000Y-143635750D01*
X188416250Y-143477000D01*
X186817000Y-143477000D01*
X186563000Y-143477000D01*
X184963750Y-143477000D01*
X184805000Y-143635750D01*
X183194052Y-143635750D01*
X183829802Y-143000000D01*
X184805000Y-143000000D01*
X184805000Y-143064250D01*
X184963750Y-143223000D01*
X186563000Y-143223000D01*
X186563000Y-143203000D01*
X186817000Y-143203000D01*
X186817000Y-143223000D01*
X188416250Y-143223000D01*
X188575000Y-143064250D01*
X188575000Y-142919324D01*
X188787403Y-142777401D01*
X189224352Y-142340452D01*
X189389099Y-142093891D01*
X189446951Y-141803051D01*
X189446951Y-130849953D01*
X189433291Y-130781280D01*
X189389099Y-130559113D01*
X189224352Y-130312552D01*
X188581622Y-129669822D01*
X188734148Y-129606643D01*
X188820554Y-129350159D01*
X187920000Y-128449605D01*
X187905858Y-128463748D01*
X187726253Y-128284143D01*
X187740395Y-128270000D01*
X188099605Y-128270000D01*
X189000159Y-129170554D01*
X189256643Y-129084148D01*
X189466458Y-128510664D01*
X189440839Y-127900540D01*
X189256643Y-127455852D01*
X189000159Y-127369446D01*
X188099605Y-128270000D01*
X187740395Y-128270000D01*
X187726253Y-128255858D01*
X187905858Y-128076253D01*
X187920000Y-128090395D01*
X188820554Y-127189841D01*
X188734148Y-126933357D01*
X188160664Y-126723542D01*
X187550540Y-126749161D01*
X187450000Y-126790806D01*
X187450000Y-122428000D01*
X187392148Y-122137161D01*
X187227401Y-121890599D01*
X186355805Y-121019003D01*
X186857897Y-121019003D01*
X187148736Y-120961151D01*
X187395298Y-120796404D01*
X187535097Y-120656605D01*
X187534543Y-121291834D01*
G36*
X174117000Y-143223000D02*
X174137000Y-143223000D01*
X174137000Y-143477000D01*
X174117000Y-143477000D01*
X174117000Y-144326250D01*
X174275750Y-144485000D01*
X174805001Y-144485000D01*
X174805001Y-145820197D01*
X173452599Y-147172599D01*
X173359080Y-147312560D01*
X172845000Y-147312560D01*
X172845000Y-144485000D01*
X173704250Y-144485000D01*
X173863000Y-144326250D01*
X173863000Y-143477000D01*
X173843000Y-143477000D01*
X173843000Y-143223000D01*
X173863000Y-143223000D01*
X173863000Y-143203000D01*
X174117000Y-143203000D01*
X174117000Y-143223000D01*
X174117000Y-143223000D01*
G37*
X174117000Y-143223000D02*
X174137000Y-143223000D01*
X174137000Y-143477000D01*
X174117000Y-143477000D01*
X174117000Y-144326250D01*
X174275750Y-144485000D01*
X174805001Y-144485000D01*
X174805001Y-145820197D01*
X173452599Y-147172599D01*
X173359080Y-147312560D01*
X172845000Y-147312560D01*
X172845000Y-144485000D01*
X173704250Y-144485000D01*
X173863000Y-144326250D01*
X173863000Y-143477000D01*
X173843000Y-143477000D01*
X173843000Y-143223000D01*
X173863000Y-143223000D01*
X173863000Y-143203000D01*
X174117000Y-143203000D01*
X174117000Y-143223000D01*
G36*
X165389446Y-127189841D02*
X166290000Y-128090395D01*
X167190554Y-127189841D01*
X167168710Y-127125000D01*
X173675194Y-127125000D01*
X175820129Y-129269935D01*
X175819845Y-129596260D01*
X175961890Y-129940036D01*
X176224680Y-130203285D01*
X176557358Y-130341425D01*
X175780884Y-131117899D01*
X175704090Y-130998559D01*
X175491890Y-130853569D01*
X175240000Y-130802560D01*
X172740000Y-130802560D01*
X172504683Y-130846838D01*
X172288559Y-130985910D01*
X172210000Y-131100885D01*
X172210000Y-129848463D01*
X172242192Y-129816327D01*
X172384838Y-129472799D01*
X172385162Y-129100833D01*
X172243117Y-128757057D01*
X171980327Y-128493808D01*
X171636799Y-128351162D01*
X171264833Y-128350838D01*
X170921057Y-128492883D01*
X170657808Y-128755673D01*
X170627627Y-128828357D01*
X170545777Y-128630265D01*
X170282987Y-128367016D01*
X169939459Y-128224370D01*
X169567493Y-128224046D01*
X169223717Y-128366091D01*
X168960468Y-128628881D01*
X168897718Y-128780000D01*
X167737919Y-128780000D01*
X167836458Y-128510664D01*
X167810839Y-127900540D01*
X167626643Y-127455852D01*
X167370159Y-127369446D01*
X166469605Y-128270000D01*
X166483748Y-128284143D01*
X166304143Y-128463748D01*
X166290000Y-128449605D01*
X166275858Y-128463748D01*
X166096253Y-128284143D01*
X166110395Y-128270000D01*
X165209841Y-127369446D01*
X165094786Y-127408207D01*
X165092068Y-127401629D01*
X164815922Y-127125000D01*
X165411290Y-127125000D01*
X165389446Y-127189841D01*
X165389446Y-127189841D01*
G37*
X165389446Y-127189841D02*
X166290000Y-128090395D01*
X167190554Y-127189841D01*
X167168710Y-127125000D01*
X173675194Y-127125000D01*
X175820129Y-129269935D01*
X175819845Y-129596260D01*
X175961890Y-129940036D01*
X176224680Y-130203285D01*
X176557358Y-130341425D01*
X175780884Y-131117899D01*
X175704090Y-130998559D01*
X175491890Y-130853569D01*
X175240000Y-130802560D01*
X172740000Y-130802560D01*
X172504683Y-130846838D01*
X172288559Y-130985910D01*
X172210000Y-131100885D01*
X172210000Y-129848463D01*
X172242192Y-129816327D01*
X172384838Y-129472799D01*
X172385162Y-129100833D01*
X172243117Y-128757057D01*
X171980327Y-128493808D01*
X171636799Y-128351162D01*
X171264833Y-128350838D01*
X170921057Y-128492883D01*
X170657808Y-128755673D01*
X170627627Y-128828357D01*
X170545777Y-128630265D01*
X170282987Y-128367016D01*
X169939459Y-128224370D01*
X169567493Y-128224046D01*
X169223717Y-128366091D01*
X168960468Y-128628881D01*
X168897718Y-128780000D01*
X167737919Y-128780000D01*
X167836458Y-128510664D01*
X167810839Y-127900540D01*
X167626643Y-127455852D01*
X167370159Y-127369446D01*
X166469605Y-128270000D01*
X166483748Y-128284143D01*
X166304143Y-128463748D01*
X166290000Y-128449605D01*
X166275858Y-128463748D01*
X166096253Y-128284143D01*
X166110395Y-128270000D01*
X165209841Y-127369446D01*
X165094786Y-127408207D01*
X165092068Y-127401629D01*
X164815922Y-127125000D01*
X165411290Y-127125000D01*
X165389446Y-127189841D01*
G36*
X189556184Y-112817401D02*
X189701194Y-112914293D01*
X189657851Y-112979160D01*
X189599999Y-113269999D01*
X189599999Y-116442099D01*
X186784248Y-119257850D01*
X186721115Y-119105057D01*
X186458325Y-118841808D01*
X186114797Y-118699162D01*
X185742831Y-118698838D01*
X185399055Y-118840883D01*
X185365880Y-118874000D01*
X184529575Y-118874000D01*
X184238736Y-118931852D01*
X183992174Y-119096599D01*
X183778724Y-119310049D01*
X183743274Y-119274538D01*
X183399746Y-119131892D01*
X183027780Y-119131568D01*
X182836520Y-119210595D01*
X182164557Y-118537458D01*
X181196433Y-118135458D01*
X180148166Y-118134543D01*
X179179342Y-118534853D01*
X178437458Y-119275443D01*
X178035458Y-120243567D01*
X178034543Y-121291834D01*
X178434853Y-122260658D01*
X179175443Y-123002542D01*
X180143567Y-123404542D01*
X180416595Y-123404780D01*
X176962598Y-126858777D01*
X176797851Y-127105339D01*
X176739999Y-127396178D01*
X176739999Y-128040201D01*
X175719471Y-127019673D01*
X175965869Y-126917611D01*
X176030169Y-126679774D01*
X175260000Y-125909605D01*
X175245858Y-125923748D01*
X175066253Y-125744143D01*
X175080395Y-125730000D01*
X175439605Y-125730000D01*
X176209774Y-126500169D01*
X176447611Y-126435869D01*
X176627333Y-125927658D01*
X176598892Y-125389356D01*
X176447611Y-125024131D01*
X176209774Y-124959831D01*
X175439605Y-125730000D01*
X175080395Y-125730000D01*
X174310226Y-124959831D01*
X174072389Y-125024131D01*
X173892667Y-125532342D01*
X173896506Y-125605000D01*
X167940110Y-125605000D01*
X167940162Y-125544833D01*
X167798117Y-125201057D01*
X167535327Y-124937808D01*
X167191799Y-124795162D01*
X167144923Y-124795121D01*
X166609449Y-124259647D01*
X166609449Y-122565786D01*
X167045443Y-123002542D01*
X168013567Y-123404542D01*
X169061834Y-123405457D01*
X170030658Y-123005147D01*
X170772542Y-122264557D01*
X171174542Y-121296433D01*
X171175457Y-120248166D01*
X170775147Y-119279342D01*
X170034557Y-118537458D01*
X169066433Y-118135458D01*
X168018166Y-118134543D01*
X167049342Y-118534853D01*
X166609449Y-118973979D01*
X166609449Y-118786912D01*
X166641641Y-118754776D01*
X166784287Y-118411248D01*
X166784328Y-118364372D01*
X168818700Y-116330000D01*
X173704895Y-116330000D01*
X173795910Y-116471441D01*
X174008110Y-116616431D01*
X174260000Y-116667440D01*
X174760000Y-116667440D01*
X174995317Y-116623162D01*
X175211441Y-116484090D01*
X175259134Y-116414289D01*
X175295910Y-116471441D01*
X175508110Y-116616431D01*
X175760000Y-116667440D01*
X176260000Y-116667440D01*
X176495317Y-116623162D01*
X176711441Y-116484090D01*
X176856431Y-116271890D01*
X176907440Y-116020000D01*
X176907440Y-115840455D01*
X176978201Y-115869838D01*
X177350167Y-115870162D01*
X177693943Y-115728117D01*
X177957192Y-115465327D01*
X178099838Y-115121799D01*
X178100162Y-114749833D01*
X178013461Y-114540000D01*
X180295197Y-114540000D01*
X175537247Y-119297951D01*
X175530709Y-119295236D01*
X174991656Y-119294765D01*
X174493457Y-119500617D01*
X174111957Y-119881452D01*
X173905236Y-120379291D01*
X173904765Y-120918344D01*
X174110617Y-121416543D01*
X174491452Y-121798043D01*
X174500000Y-121801592D01*
X174500000Y-122037913D01*
X174493457Y-122040617D01*
X174111957Y-122421452D01*
X173905236Y-122919291D01*
X173904765Y-123458344D01*
X174110617Y-123956543D01*
X174491452Y-124338043D01*
X174769116Y-124453339D01*
X174554131Y-124542389D01*
X174489831Y-124780226D01*
X175260000Y-125550395D01*
X176030169Y-124780226D01*
X175965869Y-124542389D01*
X175733828Y-124460331D01*
X176026543Y-124339383D01*
X176408043Y-123958548D01*
X176614764Y-123460709D01*
X176615235Y-122921656D01*
X176409383Y-122423457D01*
X176028548Y-122041957D01*
X176020000Y-122038408D01*
X176020000Y-121802087D01*
X176026543Y-121799383D01*
X176408043Y-121418548D01*
X176614764Y-120920709D01*
X176615235Y-120381656D01*
X176611700Y-120373102D01*
X181289803Y-115695000D01*
X184835000Y-115695000D01*
X185125839Y-115637148D01*
X185372401Y-115472401D01*
X186179594Y-114665208D01*
X186240000Y-114677440D01*
X187140000Y-114677440D01*
X187375317Y-114633162D01*
X187591441Y-114494090D01*
X187736431Y-114281890D01*
X187787440Y-114030000D01*
X187787440Y-113530000D01*
X187743162Y-113294683D01*
X187604090Y-113078559D01*
X187534289Y-113030866D01*
X187591441Y-112994090D01*
X187736431Y-112781890D01*
X187787440Y-112530000D01*
X187787440Y-112059850D01*
X188145167Y-112060162D01*
X188488943Y-111918117D01*
X188572995Y-111834212D01*
X189556184Y-112817401D01*
X189556184Y-112817401D01*
G37*
X189556184Y-112817401D02*
X189701194Y-112914293D01*
X189657851Y-112979160D01*
X189599999Y-113269999D01*
X189599999Y-116442099D01*
X186784248Y-119257850D01*
X186721115Y-119105057D01*
X186458325Y-118841808D01*
X186114797Y-118699162D01*
X185742831Y-118698838D01*
X185399055Y-118840883D01*
X185365880Y-118874000D01*
X184529575Y-118874000D01*
X184238736Y-118931852D01*
X183992174Y-119096599D01*
X183778724Y-119310049D01*
X183743274Y-119274538D01*
X183399746Y-119131892D01*
X183027780Y-119131568D01*
X182836520Y-119210595D01*
X182164557Y-118537458D01*
X181196433Y-118135458D01*
X180148166Y-118134543D01*
X179179342Y-118534853D01*
X178437458Y-119275443D01*
X178035458Y-120243567D01*
X178034543Y-121291834D01*
X178434853Y-122260658D01*
X179175443Y-123002542D01*
X180143567Y-123404542D01*
X180416595Y-123404780D01*
X176962598Y-126858777D01*
X176797851Y-127105339D01*
X176739999Y-127396178D01*
X176739999Y-128040201D01*
X175719471Y-127019673D01*
X175965869Y-126917611D01*
X176030169Y-126679774D01*
X175260000Y-125909605D01*
X175245858Y-125923748D01*
X175066253Y-125744143D01*
X175080395Y-125730000D01*
X175439605Y-125730000D01*
X176209774Y-126500169D01*
X176447611Y-126435869D01*
X176627333Y-125927658D01*
X176598892Y-125389356D01*
X176447611Y-125024131D01*
X176209774Y-124959831D01*
X175439605Y-125730000D01*
X175080395Y-125730000D01*
X174310226Y-124959831D01*
X174072389Y-125024131D01*
X173892667Y-125532342D01*
X173896506Y-125605000D01*
X167940110Y-125605000D01*
X167940162Y-125544833D01*
X167798117Y-125201057D01*
X167535327Y-124937808D01*
X167191799Y-124795162D01*
X167144923Y-124795121D01*
X166609449Y-124259647D01*
X166609449Y-122565786D01*
X167045443Y-123002542D01*
X168013567Y-123404542D01*
X169061834Y-123405457D01*
X170030658Y-123005147D01*
X170772542Y-122264557D01*
X171174542Y-121296433D01*
X171175457Y-120248166D01*
X170775147Y-119279342D01*
X170034557Y-118537458D01*
X169066433Y-118135458D01*
X168018166Y-118134543D01*
X167049342Y-118534853D01*
X166609449Y-118973979D01*
X166609449Y-118786912D01*
X166641641Y-118754776D01*
X166784287Y-118411248D01*
X166784328Y-118364372D01*
X168818700Y-116330000D01*
X173704895Y-116330000D01*
X173795910Y-116471441D01*
X174008110Y-116616431D01*
X174260000Y-116667440D01*
X174760000Y-116667440D01*
X174995317Y-116623162D01*
X175211441Y-116484090D01*
X175259134Y-116414289D01*
X175295910Y-116471441D01*
X175508110Y-116616431D01*
X175760000Y-116667440D01*
X176260000Y-116667440D01*
X176495317Y-116623162D01*
X176711441Y-116484090D01*
X176856431Y-116271890D01*
X176907440Y-116020000D01*
X176907440Y-115840455D01*
X176978201Y-115869838D01*
X177350167Y-115870162D01*
X177693943Y-115728117D01*
X177957192Y-115465327D01*
X178099838Y-115121799D01*
X178100162Y-114749833D01*
X178013461Y-114540000D01*
X180295197Y-114540000D01*
X175537247Y-119297951D01*
X175530709Y-119295236D01*
X174991656Y-119294765D01*
X174493457Y-119500617D01*
X174111957Y-119881452D01*
X173905236Y-120379291D01*
X173904765Y-120918344D01*
X174110617Y-121416543D01*
X174491452Y-121798043D01*
X174500000Y-121801592D01*
X174500000Y-122037913D01*
X174493457Y-122040617D01*
X174111957Y-122421452D01*
X173905236Y-122919291D01*
X173904765Y-123458344D01*
X174110617Y-123956543D01*
X174491452Y-124338043D01*
X174769116Y-124453339D01*
X174554131Y-124542389D01*
X174489831Y-124780226D01*
X175260000Y-125550395D01*
X176030169Y-124780226D01*
X175965869Y-124542389D01*
X175733828Y-124460331D01*
X176026543Y-124339383D01*
X176408043Y-123958548D01*
X176614764Y-123460709D01*
X176615235Y-122921656D01*
X176409383Y-122423457D01*
X176028548Y-122041957D01*
X176020000Y-122038408D01*
X176020000Y-121802087D01*
X176026543Y-121799383D01*
X176408043Y-121418548D01*
X176614764Y-120920709D01*
X176615235Y-120381656D01*
X176611700Y-120373102D01*
X181289803Y-115695000D01*
X184835000Y-115695000D01*
X185125839Y-115637148D01*
X185372401Y-115472401D01*
X186179594Y-114665208D01*
X186240000Y-114677440D01*
X187140000Y-114677440D01*
X187375317Y-114633162D01*
X187591441Y-114494090D01*
X187736431Y-114281890D01*
X187787440Y-114030000D01*
X187787440Y-113530000D01*
X187743162Y-113294683D01*
X187604090Y-113078559D01*
X187534289Y-113030866D01*
X187591441Y-112994090D01*
X187736431Y-112781890D01*
X187787440Y-112530000D01*
X187787440Y-112059850D01*
X188145167Y-112060162D01*
X188488943Y-111918117D01*
X188572995Y-111834212D01*
X189556184Y-112817401D01*
G36*
X193670000Y-112083647D02*
X193570335Y-111983808D01*
X193226807Y-111841162D01*
X193179931Y-111841121D01*
X192307411Y-110968601D01*
X192153585Y-110865818D01*
X192350824Y-110668923D01*
X192569750Y-110141691D01*
X192570248Y-109570813D01*
X192352243Y-109043200D01*
X191948923Y-108639176D01*
X191421691Y-108420250D01*
X190850813Y-108419752D01*
X190323200Y-108637757D01*
X189919176Y-109041077D01*
X189700250Y-109568309D01*
X189699801Y-110083005D01*
X189545566Y-109928770D01*
X189656838Y-109660799D01*
X189657162Y-109288833D01*
X189515117Y-108945057D01*
X189252327Y-108681808D01*
X188908799Y-108539162D01*
X188861923Y-108539121D01*
X185461989Y-105139187D01*
X189699752Y-105139187D01*
X189917757Y-105666800D01*
X190321077Y-106070824D01*
X190848309Y-106289750D01*
X191419187Y-106290248D01*
X191946800Y-106072243D01*
X192350824Y-105668923D01*
X192569750Y-105141691D01*
X192570248Y-104570813D01*
X192352243Y-104043200D01*
X191948923Y-103639176D01*
X191421691Y-103420250D01*
X190850813Y-103419752D01*
X190323200Y-103637757D01*
X189919176Y-104041077D01*
X189700250Y-104568309D01*
X189699752Y-105139187D01*
X185461989Y-105139187D01*
X184914999Y-104592197D01*
X184914999Y-102433988D01*
X185073330Y-102499733D01*
X185683991Y-102500265D01*
X186248371Y-102267068D01*
X186470668Y-102045159D01*
X186979446Y-102045159D01*
X187065852Y-102301643D01*
X187639336Y-102511458D01*
X188249460Y-102485839D01*
X188694148Y-102301643D01*
X188780554Y-102045159D01*
X187880000Y-101144605D01*
X186979446Y-102045159D01*
X186470668Y-102045159D01*
X186680551Y-101835643D01*
X186684294Y-101826628D01*
X186799841Y-101865554D01*
X187700395Y-100965000D01*
X188059605Y-100965000D01*
X188960159Y-101865554D01*
X189216643Y-101779148D01*
X189426458Y-101205664D01*
X189400839Y-100595540D01*
X189216643Y-100150852D01*
X188960159Y-100064446D01*
X188059605Y-100965000D01*
X187700395Y-100965000D01*
X186799841Y-100064446D01*
X186684786Y-100103207D01*
X186682068Y-100096629D01*
X186470650Y-99884841D01*
X186979446Y-99884841D01*
X187880000Y-100785395D01*
X188780554Y-99884841D01*
X188694148Y-99628357D01*
X188120664Y-99418542D01*
X187510540Y-99444161D01*
X187065852Y-99628357D01*
X186979446Y-99884841D01*
X186470650Y-99884841D01*
X186250643Y-99664449D01*
X185686670Y-99430267D01*
X185076009Y-99429735D01*
X184994999Y-99463208D01*
X184994999Y-94606312D01*
X185111602Y-94888514D01*
X185374392Y-95151763D01*
X185717920Y-95294409D01*
X186089886Y-95294733D01*
X186433662Y-95152688D01*
X186696911Y-94889898D01*
X186839557Y-94546370D01*
X186839881Y-94174404D01*
X186762379Y-93986834D01*
X187494543Y-93986834D01*
X187894853Y-94955658D01*
X188635443Y-95697542D01*
X189603567Y-96099542D01*
X190651834Y-96100457D01*
X191620658Y-95700147D01*
X192362542Y-94959557D01*
X192764542Y-93991433D01*
X192765457Y-92943166D01*
X192365147Y-91974342D01*
X191624557Y-91232458D01*
X190656433Y-90830458D01*
X189608166Y-90829543D01*
X188639342Y-91229853D01*
X187897458Y-91970443D01*
X187495458Y-92938567D01*
X187494543Y-93986834D01*
X186762379Y-93986834D01*
X186697836Y-93830628D01*
X186435046Y-93567379D01*
X186180000Y-93461474D01*
X186180000Y-85627440D01*
X186220000Y-85627440D01*
X186455317Y-85583162D01*
X186671441Y-85444090D01*
X186816431Y-85231890D01*
X186867440Y-84980000D01*
X186867440Y-84024187D01*
X189064752Y-84024187D01*
X189282757Y-84551800D01*
X189686077Y-84955824D01*
X190213309Y-85174750D01*
X190784187Y-85175248D01*
X191311800Y-84957243D01*
X191715824Y-84553923D01*
X191934750Y-84026691D01*
X191935248Y-83455813D01*
X191717243Y-82928200D01*
X191313923Y-82524176D01*
X190786691Y-82305250D01*
X190215813Y-82304752D01*
X189688200Y-82522757D01*
X189284176Y-82926077D01*
X189065250Y-83453309D01*
X189064752Y-84024187D01*
X186867440Y-84024187D01*
X186867440Y-81980000D01*
X186823162Y-81744683D01*
X186684090Y-81528559D01*
X186471890Y-81383569D01*
X186220000Y-81332560D01*
X184994999Y-81332560D01*
X184994999Y-81279803D01*
X185047362Y-81227440D01*
X186220000Y-81227440D01*
X186455317Y-81183162D01*
X186671441Y-81044090D01*
X186816431Y-80831890D01*
X186867440Y-80580000D01*
X186867440Y-79024187D01*
X189064752Y-79024187D01*
X189282757Y-79551800D01*
X189686077Y-79955824D01*
X190213309Y-80174750D01*
X190784187Y-80175248D01*
X191311800Y-79957243D01*
X191715824Y-79553923D01*
X191934750Y-79026691D01*
X191935248Y-78455813D01*
X191717243Y-77928200D01*
X191313923Y-77524176D01*
X190786691Y-77305250D01*
X190215813Y-77304752D01*
X189688200Y-77522757D01*
X189284176Y-77926077D01*
X189065250Y-78453309D01*
X189064752Y-79024187D01*
X186867440Y-79024187D01*
X186867440Y-77580000D01*
X186823162Y-77344683D01*
X186684090Y-77128559D01*
X186471890Y-76983569D01*
X186220000Y-76932560D01*
X184620000Y-76932560D01*
X184384683Y-76976838D01*
X184168559Y-77115910D01*
X184023569Y-77328110D01*
X183972560Y-77580000D01*
X183972560Y-77607758D01*
X183551401Y-77186599D01*
X183304839Y-77021852D01*
X183014000Y-76964000D01*
X175822463Y-76964000D01*
X175790327Y-76931808D01*
X175446799Y-76789162D01*
X175074833Y-76788838D01*
X174731057Y-76930883D01*
X174467808Y-77193673D01*
X174325162Y-77537201D01*
X174324838Y-77909167D01*
X174466883Y-78252943D01*
X174729673Y-78516192D01*
X174879376Y-78578354D01*
X174493076Y-78738355D01*
X174064817Y-79128642D01*
X173990000Y-79287954D01*
X173915183Y-79128642D01*
X173486924Y-78738355D01*
X173076890Y-78568524D01*
X172847000Y-78689845D01*
X172847000Y-79883000D01*
X175133000Y-79883000D01*
X175133000Y-79863000D01*
X175387000Y-79863000D01*
X175387000Y-79883000D01*
X177673000Y-79883000D01*
X177673000Y-78689845D01*
X177927000Y-78689845D01*
X177927000Y-79883000D01*
X177947000Y-79883000D01*
X177947000Y-80137000D01*
X177927000Y-80137000D01*
X177927000Y-82423000D01*
X177947000Y-82423000D01*
X177947000Y-82677000D01*
X177927000Y-82677000D01*
X177927000Y-83870155D01*
X178135081Y-83979967D01*
X178134838Y-84259169D01*
X178276883Y-84602945D01*
X178539673Y-84866194D01*
X178883201Y-85008840D01*
X179255167Y-85009164D01*
X179598943Y-84867119D01*
X179862192Y-84604329D01*
X180004838Y-84260801D01*
X180005067Y-83997471D01*
X180340000Y-84064093D01*
X180908285Y-83951054D01*
X181390054Y-83629147D01*
X181711961Y-83147378D01*
X181825000Y-82579093D01*
X181825000Y-82520907D01*
X181711961Y-81952622D01*
X181390054Y-81470853D01*
X181104422Y-81280000D01*
X181390054Y-81089147D01*
X181711961Y-80607378D01*
X181825000Y-80039093D01*
X181825000Y-79980907D01*
X181711961Y-79412622D01*
X181390054Y-78930853D01*
X180908285Y-78608946D01*
X180340000Y-78495907D01*
X179771715Y-78608946D01*
X179289946Y-78930853D01*
X179062298Y-79271553D01*
X178995183Y-79128642D01*
X178566924Y-78738355D01*
X178156890Y-78568524D01*
X177927000Y-78689845D01*
X177673000Y-78689845D01*
X177443110Y-78568524D01*
X177033076Y-78738355D01*
X176604817Y-79128642D01*
X176530000Y-79287954D01*
X176455183Y-79128642D01*
X176026924Y-78738355D01*
X175640680Y-78578378D01*
X175788943Y-78517117D01*
X175822118Y-78484000D01*
X182699198Y-78484000D01*
X183832599Y-79617401D01*
X183972560Y-79710920D01*
X183972560Y-80152638D01*
X183697598Y-80427600D01*
X183532851Y-80674162D01*
X183474999Y-80965001D01*
X183474999Y-99549992D01*
X183186670Y-99430267D01*
X182576009Y-99429735D01*
X182011629Y-99662932D01*
X181579449Y-100094357D01*
X181345267Y-100658330D01*
X181344735Y-101268991D01*
X181398169Y-101398312D01*
X181161799Y-101300162D01*
X180789833Y-101299838D01*
X180446057Y-101441883D01*
X180182808Y-101704673D01*
X180040162Y-102048201D01*
X180039838Y-102420167D01*
X180181883Y-102763943D01*
X180215000Y-102797118D01*
X180215000Y-102942537D01*
X180182808Y-102974673D01*
X180040162Y-103318201D01*
X180039838Y-103690167D01*
X180181883Y-104033943D01*
X180444673Y-104297192D01*
X180788201Y-104439838D01*
X181160167Y-104440162D01*
X181503943Y-104298117D01*
X181767192Y-104035327D01*
X181909838Y-103691799D01*
X181910162Y-103319833D01*
X181768117Y-102976057D01*
X181735000Y-102942882D01*
X181735000Y-102797463D01*
X181767192Y-102765327D01*
X181909838Y-102421799D01*
X181910061Y-102166081D01*
X182009357Y-102265551D01*
X182120000Y-102311494D01*
X182120000Y-104557002D01*
X182177852Y-104847841D01*
X182342599Y-105094403D01*
X183168196Y-105920000D01*
X180267463Y-105920000D01*
X180235327Y-105887808D01*
X179891799Y-105745162D01*
X179519833Y-105744838D01*
X179176057Y-105886883D01*
X178912808Y-106149673D01*
X178770162Y-106493201D01*
X178769995Y-106685082D01*
X173652441Y-106685082D01*
X173620305Y-106652890D01*
X173276777Y-106510244D01*
X172904811Y-106509920D01*
X172561035Y-106651965D01*
X172297786Y-106914755D01*
X172155140Y-107258283D01*
X172154816Y-107630249D01*
X172296861Y-107974025D01*
X172559651Y-108237274D01*
X172903179Y-108379920D01*
X173275145Y-108380244D01*
X173618921Y-108238199D01*
X173652096Y-108205082D01*
X173965250Y-108205082D01*
X173808559Y-108305910D01*
X173663569Y-108518110D01*
X173612560Y-108770000D01*
X173612560Y-109670000D01*
X173656838Y-109905317D01*
X173740242Y-110034930D01*
X172950298Y-110824874D01*
X172904811Y-110824834D01*
X172561035Y-110966879D01*
X172297786Y-111229669D01*
X172155140Y-111573197D01*
X172155086Y-111635000D01*
X169025000Y-111635000D01*
X168734160Y-111692852D01*
X168659665Y-111742628D01*
X168554090Y-111578559D01*
X168400000Y-111473274D01*
X168400000Y-104815000D01*
X168342148Y-104524161D01*
X168342148Y-104524160D01*
X168177401Y-104277599D01*
X166396675Y-102496873D01*
X166659460Y-102485839D01*
X167104148Y-102301643D01*
X167190554Y-102045159D01*
X166290000Y-101144605D01*
X166275858Y-101158748D01*
X166096253Y-100979143D01*
X166110395Y-100965000D01*
X166469605Y-100965000D01*
X167370159Y-101865554D01*
X167626643Y-101779148D01*
X167836458Y-101205664D01*
X167810839Y-100595540D01*
X167626643Y-100150852D01*
X167370159Y-100064446D01*
X166469605Y-100965000D01*
X166110395Y-100965000D01*
X165209841Y-100064446D01*
X165094786Y-100103207D01*
X165092068Y-100096629D01*
X164880650Y-99884841D01*
X165389446Y-99884841D01*
X166290000Y-100785395D01*
X167190554Y-99884841D01*
X167104148Y-99628357D01*
X166530664Y-99418542D01*
X165920540Y-99444161D01*
X165475852Y-99628357D01*
X165389446Y-99884841D01*
X164880650Y-99884841D01*
X164660643Y-99664449D01*
X164096670Y-99430267D01*
X163486009Y-99429735D01*
X162921629Y-99662932D01*
X162539712Y-100044182D01*
X162160643Y-99664449D01*
X161596670Y-99430267D01*
X160986009Y-99429735D01*
X160421629Y-99662932D01*
X159989449Y-100094357D01*
X159886547Y-100342172D01*
X159767837Y-100262852D01*
X159476998Y-100205000D01*
X157474999Y-100205000D01*
X157474999Y-95626975D01*
X157545443Y-95697542D01*
X158513567Y-96099542D01*
X159561834Y-96100457D01*
X160530658Y-95700147D01*
X161272542Y-94959557D01*
X161674542Y-93991433D01*
X161674546Y-93986834D01*
X165904543Y-93986834D01*
X166304853Y-94955658D01*
X167045443Y-95697542D01*
X168013567Y-96099542D01*
X169061834Y-96100457D01*
X170030658Y-95700147D01*
X170772542Y-94959557D01*
X171174542Y-93991433D01*
X171174546Y-93986834D01*
X177994543Y-93986834D01*
X178394853Y-94955658D01*
X179135443Y-95697542D01*
X180103567Y-96099542D01*
X181151834Y-96100457D01*
X182120658Y-95700147D01*
X182862542Y-94959557D01*
X183264542Y-93991433D01*
X183265457Y-92943166D01*
X182865147Y-91974342D01*
X182124557Y-91232458D01*
X181156433Y-90830458D01*
X180108166Y-90829543D01*
X179139342Y-91229853D01*
X178397458Y-91970443D01*
X177995458Y-92938567D01*
X177994543Y-93986834D01*
X171174546Y-93986834D01*
X171175457Y-92943166D01*
X170775147Y-91974342D01*
X170034557Y-91232458D01*
X169066433Y-90830458D01*
X168018166Y-90829543D01*
X167049342Y-91229853D01*
X166307458Y-91970443D01*
X165905458Y-92938567D01*
X165904543Y-93986834D01*
X161674546Y-93986834D01*
X161675457Y-92943166D01*
X161275147Y-91974342D01*
X160534557Y-91232458D01*
X159566433Y-90830458D01*
X158518166Y-90829543D01*
X157549342Y-91229853D01*
X157474999Y-91304066D01*
X157474999Y-89859803D01*
X162382560Y-84952242D01*
X162382560Y-84980000D01*
X162426838Y-85215317D01*
X162565910Y-85431441D01*
X162778110Y-85576431D01*
X163030000Y-85627440D01*
X163070000Y-85627440D01*
X163070000Y-85725000D01*
X163127852Y-86015839D01*
X163292599Y-86262401D01*
X163529878Y-86499680D01*
X163529838Y-86545167D01*
X163671883Y-86888943D01*
X163934673Y-87152192D01*
X164278201Y-87294838D01*
X164650167Y-87295162D01*
X164993943Y-87153117D01*
X165257192Y-86890327D01*
X165399838Y-86546799D01*
X165400162Y-86174833D01*
X165258117Y-85831057D01*
X164995327Y-85567808D01*
X164930810Y-85541018D01*
X165081441Y-85444090D01*
X165226431Y-85231890D01*
X165277440Y-84980000D01*
X165277440Y-81980000D01*
X165233162Y-81744683D01*
X165204410Y-81700000D01*
X168682560Y-81700000D01*
X168682560Y-83400000D01*
X168726838Y-83635317D01*
X168865910Y-83851441D01*
X169078110Y-83996431D01*
X169330000Y-84047440D01*
X171030000Y-84047440D01*
X171265317Y-84003162D01*
X171481441Y-83864090D01*
X171626431Y-83651890D01*
X171648301Y-83543893D01*
X171953076Y-83821645D01*
X172363110Y-83991476D01*
X172593000Y-83870155D01*
X172593000Y-82677000D01*
X172847000Y-82677000D01*
X172847000Y-83870155D01*
X173076890Y-83991476D01*
X173486924Y-83821645D01*
X173915183Y-83431358D01*
X173990000Y-83272046D01*
X174064817Y-83431358D01*
X174493076Y-83821645D01*
X174903110Y-83991476D01*
X175133000Y-83870155D01*
X175133000Y-82677000D01*
X175387000Y-82677000D01*
X175387000Y-83870155D01*
X175616890Y-83991476D01*
X176026924Y-83821645D01*
X176455183Y-83431358D01*
X176530000Y-83272046D01*
X176604817Y-83431358D01*
X177033076Y-83821645D01*
X177443110Y-83991476D01*
X177673000Y-83870155D01*
X177673000Y-82677000D01*
X175387000Y-82677000D01*
X175133000Y-82677000D01*
X172847000Y-82677000D01*
X172593000Y-82677000D01*
X172573000Y-82677000D01*
X172573000Y-82423000D01*
X172593000Y-82423000D01*
X172593000Y-80137000D01*
X172847000Y-80137000D01*
X172847000Y-82423000D01*
X175133000Y-82423000D01*
X175133000Y-80137000D01*
X175387000Y-80137000D01*
X175387000Y-82423000D01*
X177673000Y-82423000D01*
X177673000Y-80137000D01*
X175387000Y-80137000D01*
X175133000Y-80137000D01*
X172847000Y-80137000D01*
X172593000Y-80137000D01*
X172573000Y-80137000D01*
X172573000Y-79883000D01*
X172593000Y-79883000D01*
X172593000Y-78689845D01*
X172363110Y-78568524D01*
X171953076Y-78738355D01*
X171524817Y-79128642D01*
X171457702Y-79271553D01*
X171230054Y-78930853D01*
X170748285Y-78608946D01*
X170180000Y-78495907D01*
X169611715Y-78608946D01*
X169129946Y-78930853D01*
X168808039Y-79412622D01*
X168695000Y-79980907D01*
X168695000Y-80039093D01*
X168808039Y-80607378D01*
X169129946Y-81089147D01*
X169131179Y-81089971D01*
X169094683Y-81096838D01*
X168878559Y-81235910D01*
X168733569Y-81448110D01*
X168682560Y-81700000D01*
X165204410Y-81700000D01*
X165094090Y-81528559D01*
X164881890Y-81383569D01*
X164630000Y-81332560D01*
X163030000Y-81332560D01*
X162794683Y-81376838D01*
X162578559Y-81515910D01*
X162433569Y-81728110D01*
X162382560Y-81980000D01*
X162382560Y-82849080D01*
X162242599Y-82942599D01*
X156177598Y-89007600D01*
X156012851Y-89254162D01*
X155954999Y-89545001D01*
X155954999Y-118702786D01*
X155727587Y-118930197D01*
X155580000Y-119151077D01*
X155580000Y-84024187D01*
X157314752Y-84024187D01*
X157532757Y-84551800D01*
X157936077Y-84955824D01*
X158463309Y-85174750D01*
X159034187Y-85175248D01*
X159561800Y-84957243D01*
X159965824Y-84553923D01*
X160184750Y-84026691D01*
X160185248Y-83455813D01*
X159967243Y-82928200D01*
X159563923Y-82524176D01*
X159036691Y-82305250D01*
X158465813Y-82304752D01*
X157938200Y-82522757D01*
X157534176Y-82926077D01*
X157315250Y-83453309D01*
X157314752Y-84024187D01*
X155580000Y-84024187D01*
X155580000Y-79024187D01*
X157314752Y-79024187D01*
X157532757Y-79551800D01*
X157936077Y-79955824D01*
X158463309Y-80174750D01*
X159034187Y-80175248D01*
X159561800Y-79957243D01*
X159965824Y-79553923D01*
X160043960Y-79365750D01*
X162395000Y-79365750D01*
X162395000Y-80706309D01*
X162491673Y-80939698D01*
X162670301Y-81118327D01*
X162903690Y-81215000D01*
X163544250Y-81215000D01*
X163703000Y-81056250D01*
X163703000Y-79207000D01*
X163957000Y-79207000D01*
X163957000Y-81056250D01*
X164115750Y-81215000D01*
X164756310Y-81215000D01*
X164989699Y-81118327D01*
X165168327Y-80939698D01*
X165265000Y-80706309D01*
X165265000Y-79365750D01*
X165106250Y-79207000D01*
X163957000Y-79207000D01*
X163703000Y-79207000D01*
X162553750Y-79207000D01*
X162395000Y-79365750D01*
X160043960Y-79365750D01*
X160184750Y-79026691D01*
X160185248Y-78455813D01*
X159967243Y-77928200D01*
X159563923Y-77524176D01*
X159394177Y-77453691D01*
X162395000Y-77453691D01*
X162395000Y-78794250D01*
X162553750Y-78953000D01*
X163703000Y-78953000D01*
X163703000Y-77103750D01*
X163957000Y-77103750D01*
X163957000Y-78953000D01*
X165106250Y-78953000D01*
X165265000Y-78794250D01*
X165265000Y-77453691D01*
X165168327Y-77220302D01*
X164989699Y-77041673D01*
X164756310Y-76945000D01*
X164115750Y-76945000D01*
X163957000Y-77103750D01*
X163703000Y-77103750D01*
X163544250Y-76945000D01*
X162903690Y-76945000D01*
X162670301Y-77041673D01*
X162491673Y-77220302D01*
X162395000Y-77453691D01*
X159394177Y-77453691D01*
X159036691Y-77305250D01*
X158465813Y-77304752D01*
X157938200Y-77522757D01*
X157534176Y-77926077D01*
X157315250Y-78453309D01*
X157314752Y-79024187D01*
X155580000Y-79024187D01*
X155580000Y-73963991D01*
X159754735Y-73963991D01*
X159987932Y-74528371D01*
X160419357Y-74960551D01*
X160983330Y-75194733D01*
X161593991Y-75195265D01*
X162158371Y-74962068D01*
X162540288Y-74580818D01*
X162919357Y-74960551D01*
X163483330Y-75194733D01*
X164093991Y-75195265D01*
X164658371Y-74962068D01*
X164880668Y-74740159D01*
X165389446Y-74740159D01*
X165475852Y-74996643D01*
X166049336Y-75206458D01*
X166659460Y-75180839D01*
X167104148Y-74996643D01*
X167190554Y-74740159D01*
X166290000Y-73839605D01*
X165389446Y-74740159D01*
X164880668Y-74740159D01*
X165090551Y-74530643D01*
X165094294Y-74521628D01*
X165209841Y-74560554D01*
X166110395Y-73660000D01*
X166469605Y-73660000D01*
X167370159Y-74560554D01*
X167626643Y-74474148D01*
X167813289Y-73963991D01*
X181344735Y-73963991D01*
X181577932Y-74528371D01*
X182009357Y-74960551D01*
X182573330Y-75194733D01*
X183183991Y-75195265D01*
X183748371Y-74962068D01*
X184130288Y-74580818D01*
X184509357Y-74960551D01*
X185073330Y-75194733D01*
X185683991Y-75195265D01*
X186248371Y-74962068D01*
X186470668Y-74740159D01*
X186979446Y-74740159D01*
X187065852Y-74996643D01*
X187639336Y-75206458D01*
X188249460Y-75180839D01*
X188694148Y-74996643D01*
X188780554Y-74740159D01*
X187880000Y-73839605D01*
X186979446Y-74740159D01*
X186470668Y-74740159D01*
X186680551Y-74530643D01*
X186684294Y-74521628D01*
X186799841Y-74560554D01*
X187700395Y-73660000D01*
X188059605Y-73660000D01*
X188960159Y-74560554D01*
X189216643Y-74474148D01*
X189426458Y-73900664D01*
X189400839Y-73290540D01*
X189216643Y-72845852D01*
X188960159Y-72759446D01*
X188059605Y-73660000D01*
X187700395Y-73660000D01*
X186799841Y-72759446D01*
X186684786Y-72798207D01*
X186682068Y-72791629D01*
X186470650Y-72579841D01*
X186979446Y-72579841D01*
X187880000Y-73480395D01*
X188780554Y-72579841D01*
X188694148Y-72323357D01*
X188120664Y-72113542D01*
X187510540Y-72139161D01*
X187065852Y-72323357D01*
X186979446Y-72579841D01*
X186470650Y-72579841D01*
X186250643Y-72359449D01*
X185686670Y-72125267D01*
X185076009Y-72124735D01*
X184511629Y-72357932D01*
X184129712Y-72739182D01*
X183750643Y-72359449D01*
X183186670Y-72125267D01*
X182576009Y-72124735D01*
X182011629Y-72357932D01*
X181579449Y-72789357D01*
X181345267Y-73353330D01*
X181344735Y-73963991D01*
X167813289Y-73963991D01*
X167836458Y-73900664D01*
X167810839Y-73290540D01*
X167626643Y-72845852D01*
X167370159Y-72759446D01*
X166469605Y-73660000D01*
X166110395Y-73660000D01*
X165209841Y-72759446D01*
X165094786Y-72798207D01*
X165092068Y-72791629D01*
X164880650Y-72579841D01*
X165389446Y-72579841D01*
X166290000Y-73480395D01*
X167190554Y-72579841D01*
X167104148Y-72323357D01*
X166530664Y-72113542D01*
X165920540Y-72139161D01*
X165475852Y-72323357D01*
X165389446Y-72579841D01*
X164880650Y-72579841D01*
X164660643Y-72359449D01*
X164096670Y-72125267D01*
X163486009Y-72124735D01*
X162921629Y-72357932D01*
X162539712Y-72739182D01*
X162160643Y-72359449D01*
X161596670Y-72125267D01*
X160986009Y-72124735D01*
X160421629Y-72357932D01*
X159989449Y-72789357D01*
X159755267Y-73353330D01*
X159754735Y-73963991D01*
X155580000Y-73963991D01*
X155580000Y-66681834D01*
X156404543Y-66681834D01*
X156804853Y-67650658D01*
X157545443Y-68392542D01*
X158513567Y-68794542D01*
X159561834Y-68795457D01*
X160530658Y-68395147D01*
X161272542Y-67654557D01*
X161674542Y-66686433D01*
X161674546Y-66681834D01*
X165904543Y-66681834D01*
X166304853Y-67650658D01*
X167045443Y-68392542D01*
X168013567Y-68794542D01*
X169061834Y-68795457D01*
X170030658Y-68395147D01*
X170772542Y-67654557D01*
X171174542Y-66686433D01*
X171174546Y-66681834D01*
X177994543Y-66681834D01*
X178394853Y-67650658D01*
X179135443Y-68392542D01*
X180103567Y-68794542D01*
X181151834Y-68795457D01*
X182120658Y-68395147D01*
X182862542Y-67654557D01*
X183264542Y-66686433D01*
X183264546Y-66681834D01*
X187494543Y-66681834D01*
X187894853Y-67650658D01*
X188635443Y-68392542D01*
X189603567Y-68794542D01*
X190651834Y-68795457D01*
X191620658Y-68395147D01*
X192362542Y-67654557D01*
X192764542Y-66686433D01*
X192765457Y-65638166D01*
X192365147Y-64669342D01*
X191624557Y-63927458D01*
X190656433Y-63525458D01*
X189608166Y-63524543D01*
X188639342Y-63924853D01*
X187897458Y-64665443D01*
X187495458Y-65633567D01*
X187494543Y-66681834D01*
X183264546Y-66681834D01*
X183265457Y-65638166D01*
X182865147Y-64669342D01*
X182124557Y-63927458D01*
X181156433Y-63525458D01*
X180108166Y-63524543D01*
X179139342Y-63924853D01*
X178397458Y-64665443D01*
X177995458Y-65633567D01*
X177994543Y-66681834D01*
X171174546Y-66681834D01*
X171175457Y-65638166D01*
X170775147Y-64669342D01*
X170034557Y-63927458D01*
X169066433Y-63525458D01*
X168018166Y-63524543D01*
X167049342Y-63924853D01*
X166307458Y-64665443D01*
X165905458Y-65633567D01*
X165904543Y-66681834D01*
X161674546Y-66681834D01*
X161675457Y-65638166D01*
X161275147Y-64669342D01*
X160534557Y-63927458D01*
X159566433Y-63525458D01*
X158518166Y-63524543D01*
X157549342Y-63924853D01*
X156807458Y-64665443D01*
X156405458Y-65633567D01*
X156404543Y-66681834D01*
X155580000Y-66681834D01*
X155580000Y-62997000D01*
X193670000Y-62997000D01*
X193670000Y-112083647D01*
X193670000Y-112083647D01*
G37*
X193670000Y-112083647D02*
X193570335Y-111983808D01*
X193226807Y-111841162D01*
X193179931Y-111841121D01*
X192307411Y-110968601D01*
X192153585Y-110865818D01*
X192350824Y-110668923D01*
X192569750Y-110141691D01*
X192570248Y-109570813D01*
X192352243Y-109043200D01*
X191948923Y-108639176D01*
X191421691Y-108420250D01*
X190850813Y-108419752D01*
X190323200Y-108637757D01*
X189919176Y-109041077D01*
X189700250Y-109568309D01*
X189699801Y-110083005D01*
X189545566Y-109928770D01*
X189656838Y-109660799D01*
X189657162Y-109288833D01*
X189515117Y-108945057D01*
X189252327Y-108681808D01*
X188908799Y-108539162D01*
X188861923Y-108539121D01*
X185461989Y-105139187D01*
X189699752Y-105139187D01*
X189917757Y-105666800D01*
X190321077Y-106070824D01*
X190848309Y-106289750D01*
X191419187Y-106290248D01*
X191946800Y-106072243D01*
X192350824Y-105668923D01*
X192569750Y-105141691D01*
X192570248Y-104570813D01*
X192352243Y-104043200D01*
X191948923Y-103639176D01*
X191421691Y-103420250D01*
X190850813Y-103419752D01*
X190323200Y-103637757D01*
X189919176Y-104041077D01*
X189700250Y-104568309D01*
X189699752Y-105139187D01*
X185461989Y-105139187D01*
X184914999Y-104592197D01*
X184914999Y-102433988D01*
X185073330Y-102499733D01*
X185683991Y-102500265D01*
X186248371Y-102267068D01*
X186470668Y-102045159D01*
X186979446Y-102045159D01*
X187065852Y-102301643D01*
X187639336Y-102511458D01*
X188249460Y-102485839D01*
X188694148Y-102301643D01*
X188780554Y-102045159D01*
X187880000Y-101144605D01*
X186979446Y-102045159D01*
X186470668Y-102045159D01*
X186680551Y-101835643D01*
X186684294Y-101826628D01*
X186799841Y-101865554D01*
X187700395Y-100965000D01*
X188059605Y-100965000D01*
X188960159Y-101865554D01*
X189216643Y-101779148D01*
X189426458Y-101205664D01*
X189400839Y-100595540D01*
X189216643Y-100150852D01*
X188960159Y-100064446D01*
X188059605Y-100965000D01*
X187700395Y-100965000D01*
X186799841Y-100064446D01*
X186684786Y-100103207D01*
X186682068Y-100096629D01*
X186470650Y-99884841D01*
X186979446Y-99884841D01*
X187880000Y-100785395D01*
X188780554Y-99884841D01*
X188694148Y-99628357D01*
X188120664Y-99418542D01*
X187510540Y-99444161D01*
X187065852Y-99628357D01*
X186979446Y-99884841D01*
X186470650Y-99884841D01*
X186250643Y-99664449D01*
X185686670Y-99430267D01*
X185076009Y-99429735D01*
X184994999Y-99463208D01*
X184994999Y-94606312D01*
X185111602Y-94888514D01*
X185374392Y-95151763D01*
X185717920Y-95294409D01*
X186089886Y-95294733D01*
X186433662Y-95152688D01*
X186696911Y-94889898D01*
X186839557Y-94546370D01*
X186839881Y-94174404D01*
X186762379Y-93986834D01*
X187494543Y-93986834D01*
X187894853Y-94955658D01*
X188635443Y-95697542D01*
X189603567Y-96099542D01*
X190651834Y-96100457D01*
X191620658Y-95700147D01*
X192362542Y-94959557D01*
X192764542Y-93991433D01*
X192765457Y-92943166D01*
X192365147Y-91974342D01*
X191624557Y-91232458D01*
X190656433Y-90830458D01*
X189608166Y-90829543D01*
X188639342Y-91229853D01*
X187897458Y-91970443D01*
X187495458Y-92938567D01*
X187494543Y-93986834D01*
X186762379Y-93986834D01*
X186697836Y-93830628D01*
X186435046Y-93567379D01*
X186180000Y-93461474D01*
X186180000Y-85627440D01*
X186220000Y-85627440D01*
X186455317Y-85583162D01*
X186671441Y-85444090D01*
X186816431Y-85231890D01*
X186867440Y-84980000D01*
X186867440Y-84024187D01*
X189064752Y-84024187D01*
X189282757Y-84551800D01*
X189686077Y-84955824D01*
X190213309Y-85174750D01*
X190784187Y-85175248D01*
X191311800Y-84957243D01*
X191715824Y-84553923D01*
X191934750Y-84026691D01*
X191935248Y-83455813D01*
X191717243Y-82928200D01*
X191313923Y-82524176D01*
X190786691Y-82305250D01*
X190215813Y-82304752D01*
X189688200Y-82522757D01*
X189284176Y-82926077D01*
X189065250Y-83453309D01*
X189064752Y-84024187D01*
X186867440Y-84024187D01*
X186867440Y-81980000D01*
X186823162Y-81744683D01*
X186684090Y-81528559D01*
X186471890Y-81383569D01*
X186220000Y-81332560D01*
X184994999Y-81332560D01*
X184994999Y-81279803D01*
X185047362Y-81227440D01*
X186220000Y-81227440D01*
X186455317Y-81183162D01*
X186671441Y-81044090D01*
X186816431Y-80831890D01*
X186867440Y-80580000D01*
X186867440Y-79024187D01*
X189064752Y-79024187D01*
X189282757Y-79551800D01*
X189686077Y-79955824D01*
X190213309Y-80174750D01*
X190784187Y-80175248D01*
X191311800Y-79957243D01*
X191715824Y-79553923D01*
X191934750Y-79026691D01*
X191935248Y-78455813D01*
X191717243Y-77928200D01*
X191313923Y-77524176D01*
X190786691Y-77305250D01*
X190215813Y-77304752D01*
X189688200Y-77522757D01*
X189284176Y-77926077D01*
X189065250Y-78453309D01*
X189064752Y-79024187D01*
X186867440Y-79024187D01*
X186867440Y-77580000D01*
X186823162Y-77344683D01*
X186684090Y-77128559D01*
X186471890Y-76983569D01*
X186220000Y-76932560D01*
X184620000Y-76932560D01*
X184384683Y-76976838D01*
X184168559Y-77115910D01*
X184023569Y-77328110D01*
X183972560Y-77580000D01*
X183972560Y-77607758D01*
X183551401Y-77186599D01*
X183304839Y-77021852D01*
X183014000Y-76964000D01*
X175822463Y-76964000D01*
X175790327Y-76931808D01*
X175446799Y-76789162D01*
X175074833Y-76788838D01*
X174731057Y-76930883D01*
X174467808Y-77193673D01*
X174325162Y-77537201D01*
X174324838Y-77909167D01*
X174466883Y-78252943D01*
X174729673Y-78516192D01*
X174879376Y-78578354D01*
X174493076Y-78738355D01*
X174064817Y-79128642D01*
X173990000Y-79287954D01*
X173915183Y-79128642D01*
X173486924Y-78738355D01*
X173076890Y-78568524D01*
X172847000Y-78689845D01*
X172847000Y-79883000D01*
X175133000Y-79883000D01*
X175133000Y-79863000D01*
X175387000Y-79863000D01*
X175387000Y-79883000D01*
X177673000Y-79883000D01*
X177673000Y-78689845D01*
X177927000Y-78689845D01*
X177927000Y-79883000D01*
X177947000Y-79883000D01*
X177947000Y-80137000D01*
X177927000Y-80137000D01*
X177927000Y-82423000D01*
X177947000Y-82423000D01*
X177947000Y-82677000D01*
X177927000Y-82677000D01*
X177927000Y-83870155D01*
X178135081Y-83979967D01*
X178134838Y-84259169D01*
X178276883Y-84602945D01*
X178539673Y-84866194D01*
X178883201Y-85008840D01*
X179255167Y-85009164D01*
X179598943Y-84867119D01*
X179862192Y-84604329D01*
X180004838Y-84260801D01*
X180005067Y-83997471D01*
X180340000Y-84064093D01*
X180908285Y-83951054D01*
X181390054Y-83629147D01*
X181711961Y-83147378D01*
X181825000Y-82579093D01*
X181825000Y-82520907D01*
X181711961Y-81952622D01*
X181390054Y-81470853D01*
X181104422Y-81280000D01*
X181390054Y-81089147D01*
X181711961Y-80607378D01*
X181825000Y-80039093D01*
X181825000Y-79980907D01*
X181711961Y-79412622D01*
X181390054Y-78930853D01*
X180908285Y-78608946D01*
X180340000Y-78495907D01*
X179771715Y-78608946D01*
X179289946Y-78930853D01*
X179062298Y-79271553D01*
X178995183Y-79128642D01*
X178566924Y-78738355D01*
X178156890Y-78568524D01*
X177927000Y-78689845D01*
X177673000Y-78689845D01*
X177443110Y-78568524D01*
X177033076Y-78738355D01*
X176604817Y-79128642D01*
X176530000Y-79287954D01*
X176455183Y-79128642D01*
X176026924Y-78738355D01*
X175640680Y-78578378D01*
X175788943Y-78517117D01*
X175822118Y-78484000D01*
X182699198Y-78484000D01*
X183832599Y-79617401D01*
X183972560Y-79710920D01*
X183972560Y-80152638D01*
X183697598Y-80427600D01*
X183532851Y-80674162D01*
X183474999Y-80965001D01*
X183474999Y-99549992D01*
X183186670Y-99430267D01*
X182576009Y-99429735D01*
X182011629Y-99662932D01*
X181579449Y-100094357D01*
X181345267Y-100658330D01*
X181344735Y-101268991D01*
X181398169Y-101398312D01*
X181161799Y-101300162D01*
X180789833Y-101299838D01*
X180446057Y-101441883D01*
X180182808Y-101704673D01*
X180040162Y-102048201D01*
X180039838Y-102420167D01*
X180181883Y-102763943D01*
X180215000Y-102797118D01*
X180215000Y-102942537D01*
X180182808Y-102974673D01*
X180040162Y-103318201D01*
X180039838Y-103690167D01*
X180181883Y-104033943D01*
X180444673Y-104297192D01*
X180788201Y-104439838D01*
X181160167Y-104440162D01*
X181503943Y-104298117D01*
X181767192Y-104035327D01*
X181909838Y-103691799D01*
X181910162Y-103319833D01*
X181768117Y-102976057D01*
X181735000Y-102942882D01*
X181735000Y-102797463D01*
X181767192Y-102765327D01*
X181909838Y-102421799D01*
X181910061Y-102166081D01*
X182009357Y-102265551D01*
X182120000Y-102311494D01*
X182120000Y-104557002D01*
X182177852Y-104847841D01*
X182342599Y-105094403D01*
X183168196Y-105920000D01*
X180267463Y-105920000D01*
X180235327Y-105887808D01*
X179891799Y-105745162D01*
X179519833Y-105744838D01*
X179176057Y-105886883D01*
X178912808Y-106149673D01*
X178770162Y-106493201D01*
X178769995Y-106685082D01*
X173652441Y-106685082D01*
X173620305Y-106652890D01*
X173276777Y-106510244D01*
X172904811Y-106509920D01*
X172561035Y-106651965D01*
X172297786Y-106914755D01*
X172155140Y-107258283D01*
X172154816Y-107630249D01*
X172296861Y-107974025D01*
X172559651Y-108237274D01*
X172903179Y-108379920D01*
X173275145Y-108380244D01*
X173618921Y-108238199D01*
X173652096Y-108205082D01*
X173965250Y-108205082D01*
X173808559Y-108305910D01*
X173663569Y-108518110D01*
X173612560Y-108770000D01*
X173612560Y-109670000D01*
X173656838Y-109905317D01*
X173740242Y-110034930D01*
X172950298Y-110824874D01*
X172904811Y-110824834D01*
X172561035Y-110966879D01*
X172297786Y-111229669D01*
X172155140Y-111573197D01*
X172155086Y-111635000D01*
X169025000Y-111635000D01*
X168734160Y-111692852D01*
X168659665Y-111742628D01*
X168554090Y-111578559D01*
X168400000Y-111473274D01*
X168400000Y-104815000D01*
X168342148Y-104524161D01*
X168342148Y-104524160D01*
X168177401Y-104277599D01*
X166396675Y-102496873D01*
X166659460Y-102485839D01*
X167104148Y-102301643D01*
X167190554Y-102045159D01*
X166290000Y-101144605D01*
X166275858Y-101158748D01*
X166096253Y-100979143D01*
X166110395Y-100965000D01*
X166469605Y-100965000D01*
X167370159Y-101865554D01*
X167626643Y-101779148D01*
X167836458Y-101205664D01*
X167810839Y-100595540D01*
X167626643Y-100150852D01*
X167370159Y-100064446D01*
X166469605Y-100965000D01*
X166110395Y-100965000D01*
X165209841Y-100064446D01*
X165094786Y-100103207D01*
X165092068Y-100096629D01*
X164880650Y-99884841D01*
X165389446Y-99884841D01*
X166290000Y-100785395D01*
X167190554Y-99884841D01*
X167104148Y-99628357D01*
X166530664Y-99418542D01*
X165920540Y-99444161D01*
X165475852Y-99628357D01*
X165389446Y-99884841D01*
X164880650Y-99884841D01*
X164660643Y-99664449D01*
X164096670Y-99430267D01*
X163486009Y-99429735D01*
X162921629Y-99662932D01*
X162539712Y-100044182D01*
X162160643Y-99664449D01*
X161596670Y-99430267D01*
X160986009Y-99429735D01*
X160421629Y-99662932D01*
X159989449Y-100094357D01*
X159886547Y-100342172D01*
X159767837Y-100262852D01*
X159476998Y-100205000D01*
X157474999Y-100205000D01*
X157474999Y-95626975D01*
X157545443Y-95697542D01*
X158513567Y-96099542D01*
X159561834Y-96100457D01*
X160530658Y-95700147D01*
X161272542Y-94959557D01*
X161674542Y-93991433D01*
X161674546Y-93986834D01*
X165904543Y-93986834D01*
X166304853Y-94955658D01*
X167045443Y-95697542D01*
X168013567Y-96099542D01*
X169061834Y-96100457D01*
X170030658Y-95700147D01*
X170772542Y-94959557D01*
X171174542Y-93991433D01*
X171174546Y-93986834D01*
X177994543Y-93986834D01*
X178394853Y-94955658D01*
X179135443Y-95697542D01*
X180103567Y-96099542D01*
X181151834Y-96100457D01*
X182120658Y-95700147D01*
X182862542Y-94959557D01*
X183264542Y-93991433D01*
X183265457Y-92943166D01*
X182865147Y-91974342D01*
X182124557Y-91232458D01*
X181156433Y-90830458D01*
X180108166Y-90829543D01*
X179139342Y-91229853D01*
X178397458Y-91970443D01*
X177995458Y-92938567D01*
X177994543Y-93986834D01*
X171174546Y-93986834D01*
X171175457Y-92943166D01*
X170775147Y-91974342D01*
X170034557Y-91232458D01*
X169066433Y-90830458D01*
X168018166Y-90829543D01*
X167049342Y-91229853D01*
X166307458Y-91970443D01*
X165905458Y-92938567D01*
X165904543Y-93986834D01*
X161674546Y-93986834D01*
X161675457Y-92943166D01*
X161275147Y-91974342D01*
X160534557Y-91232458D01*
X159566433Y-90830458D01*
X158518166Y-90829543D01*
X157549342Y-91229853D01*
X157474999Y-91304066D01*
X157474999Y-89859803D01*
X162382560Y-84952242D01*
X162382560Y-84980000D01*
X162426838Y-85215317D01*
X162565910Y-85431441D01*
X162778110Y-85576431D01*
X163030000Y-85627440D01*
X163070000Y-85627440D01*
X163070000Y-85725000D01*
X163127852Y-86015839D01*
X163292599Y-86262401D01*
X163529878Y-86499680D01*
X163529838Y-86545167D01*
X163671883Y-86888943D01*
X163934673Y-87152192D01*
X164278201Y-87294838D01*
X164650167Y-87295162D01*
X164993943Y-87153117D01*
X165257192Y-86890327D01*
X165399838Y-86546799D01*
X165400162Y-86174833D01*
X165258117Y-85831057D01*
X164995327Y-85567808D01*
X164930810Y-85541018D01*
X165081441Y-85444090D01*
X165226431Y-85231890D01*
X165277440Y-84980000D01*
X165277440Y-81980000D01*
X165233162Y-81744683D01*
X165204410Y-81700000D01*
X168682560Y-81700000D01*
X168682560Y-83400000D01*
X168726838Y-83635317D01*
X168865910Y-83851441D01*
X169078110Y-83996431D01*
X169330000Y-84047440D01*
X171030000Y-84047440D01*
X171265317Y-84003162D01*
X171481441Y-83864090D01*
X171626431Y-83651890D01*
X171648301Y-83543893D01*
X171953076Y-83821645D01*
X172363110Y-83991476D01*
X172593000Y-83870155D01*
X172593000Y-82677000D01*
X172847000Y-82677000D01*
X172847000Y-83870155D01*
X173076890Y-83991476D01*
X173486924Y-83821645D01*
X173915183Y-83431358D01*
X173990000Y-83272046D01*
X174064817Y-83431358D01*
X174493076Y-83821645D01*
X174903110Y-83991476D01*
X175133000Y-83870155D01*
X175133000Y-82677000D01*
X175387000Y-82677000D01*
X175387000Y-83870155D01*
X175616890Y-83991476D01*
X176026924Y-83821645D01*
X176455183Y-83431358D01*
X176530000Y-83272046D01*
X176604817Y-83431358D01*
X177033076Y-83821645D01*
X177443110Y-83991476D01*
X177673000Y-83870155D01*
X177673000Y-82677000D01*
X175387000Y-82677000D01*
X175133000Y-82677000D01*
X172847000Y-82677000D01*
X172593000Y-82677000D01*
X172573000Y-82677000D01*
X172573000Y-82423000D01*
X172593000Y-82423000D01*
X172593000Y-80137000D01*
X172847000Y-80137000D01*
X172847000Y-82423000D01*
X175133000Y-82423000D01*
X175133000Y-80137000D01*
X175387000Y-80137000D01*
X175387000Y-82423000D01*
X177673000Y-82423000D01*
X177673000Y-80137000D01*
X175387000Y-80137000D01*
X175133000Y-80137000D01*
X172847000Y-80137000D01*
X172593000Y-80137000D01*
X172573000Y-80137000D01*
X172573000Y-79883000D01*
X172593000Y-79883000D01*
X172593000Y-78689845D01*
X172363110Y-78568524D01*
X171953076Y-78738355D01*
X171524817Y-79128642D01*
X171457702Y-79271553D01*
X171230054Y-78930853D01*
X170748285Y-78608946D01*
X170180000Y-78495907D01*
X169611715Y-78608946D01*
X169129946Y-78930853D01*
X168808039Y-79412622D01*
X168695000Y-79980907D01*
X168695000Y-80039093D01*
X168808039Y-80607378D01*
X169129946Y-81089147D01*
X169131179Y-81089971D01*
X169094683Y-81096838D01*
X168878559Y-81235910D01*
X168733569Y-81448110D01*
X168682560Y-81700000D01*
X165204410Y-81700000D01*
X165094090Y-81528559D01*
X164881890Y-81383569D01*
X164630000Y-81332560D01*
X163030000Y-81332560D01*
X162794683Y-81376838D01*
X162578559Y-81515910D01*
X162433569Y-81728110D01*
X162382560Y-81980000D01*
X162382560Y-82849080D01*
X162242599Y-82942599D01*
X156177598Y-89007600D01*
X156012851Y-89254162D01*
X155954999Y-89545001D01*
X155954999Y-118702786D01*
X155727587Y-118930197D01*
X155580000Y-119151077D01*
X155580000Y-84024187D01*
X157314752Y-84024187D01*
X157532757Y-84551800D01*
X157936077Y-84955824D01*
X158463309Y-85174750D01*
X159034187Y-85175248D01*
X159561800Y-84957243D01*
X159965824Y-84553923D01*
X160184750Y-84026691D01*
X160185248Y-83455813D01*
X159967243Y-82928200D01*
X159563923Y-82524176D01*
X159036691Y-82305250D01*
X158465813Y-82304752D01*
X157938200Y-82522757D01*
X157534176Y-82926077D01*
X157315250Y-83453309D01*
X157314752Y-84024187D01*
X155580000Y-84024187D01*
X155580000Y-79024187D01*
X157314752Y-79024187D01*
X157532757Y-79551800D01*
X157936077Y-79955824D01*
X158463309Y-80174750D01*
X159034187Y-80175248D01*
X159561800Y-79957243D01*
X159965824Y-79553923D01*
X160043960Y-79365750D01*
X162395000Y-79365750D01*
X162395000Y-80706309D01*
X162491673Y-80939698D01*
X162670301Y-81118327D01*
X162903690Y-81215000D01*
X163544250Y-81215000D01*
X163703000Y-81056250D01*
X163703000Y-79207000D01*
X163957000Y-79207000D01*
X163957000Y-81056250D01*
X164115750Y-81215000D01*
X164756310Y-81215000D01*
X164989699Y-81118327D01*
X165168327Y-80939698D01*
X165265000Y-80706309D01*
X165265000Y-79365750D01*
X165106250Y-79207000D01*
X163957000Y-79207000D01*
X163703000Y-79207000D01*
X162553750Y-79207000D01*
X162395000Y-79365750D01*
X160043960Y-79365750D01*
X160184750Y-79026691D01*
X160185248Y-78455813D01*
X159967243Y-77928200D01*
X159563923Y-77524176D01*
X159394177Y-77453691D01*
X162395000Y-77453691D01*
X162395000Y-78794250D01*
X162553750Y-78953000D01*
X163703000Y-78953000D01*
X163703000Y-77103750D01*
X163957000Y-77103750D01*
X163957000Y-78953000D01*
X165106250Y-78953000D01*
X165265000Y-78794250D01*
X165265000Y-77453691D01*
X165168327Y-77220302D01*
X164989699Y-77041673D01*
X164756310Y-76945000D01*
X164115750Y-76945000D01*
X163957000Y-77103750D01*
X163703000Y-77103750D01*
X163544250Y-76945000D01*
X162903690Y-76945000D01*
X162670301Y-77041673D01*
X162491673Y-77220302D01*
X162395000Y-77453691D01*
X159394177Y-77453691D01*
X159036691Y-77305250D01*
X158465813Y-77304752D01*
X157938200Y-77522757D01*
X157534176Y-77926077D01*
X157315250Y-78453309D01*
X157314752Y-79024187D01*
X155580000Y-79024187D01*
X155580000Y-73963991D01*
X159754735Y-73963991D01*
X159987932Y-74528371D01*
X160419357Y-74960551D01*
X160983330Y-75194733D01*
X161593991Y-75195265D01*
X162158371Y-74962068D01*
X162540288Y-74580818D01*
X162919357Y-74960551D01*
X163483330Y-75194733D01*
X164093991Y-75195265D01*
X164658371Y-74962068D01*
X164880668Y-74740159D01*
X165389446Y-74740159D01*
X165475852Y-74996643D01*
X166049336Y-75206458D01*
X166659460Y-75180839D01*
X167104148Y-74996643D01*
X167190554Y-74740159D01*
X166290000Y-73839605D01*
X165389446Y-74740159D01*
X164880668Y-74740159D01*
X165090551Y-74530643D01*
X165094294Y-74521628D01*
X165209841Y-74560554D01*
X166110395Y-73660000D01*
X166469605Y-73660000D01*
X167370159Y-74560554D01*
X167626643Y-74474148D01*
X167813289Y-73963991D01*
X181344735Y-73963991D01*
X181577932Y-74528371D01*
X182009357Y-74960551D01*
X182573330Y-75194733D01*
X183183991Y-75195265D01*
X183748371Y-74962068D01*
X184130288Y-74580818D01*
X184509357Y-74960551D01*
X185073330Y-75194733D01*
X185683991Y-75195265D01*
X186248371Y-74962068D01*
X186470668Y-74740159D01*
X186979446Y-74740159D01*
X187065852Y-74996643D01*
X187639336Y-75206458D01*
X188249460Y-75180839D01*
X188694148Y-74996643D01*
X188780554Y-74740159D01*
X187880000Y-73839605D01*
X186979446Y-74740159D01*
X186470668Y-74740159D01*
X186680551Y-74530643D01*
X186684294Y-74521628D01*
X186799841Y-74560554D01*
X187700395Y-73660000D01*
X188059605Y-73660000D01*
X188960159Y-74560554D01*
X189216643Y-74474148D01*
X189426458Y-73900664D01*
X189400839Y-73290540D01*
X189216643Y-72845852D01*
X188960159Y-72759446D01*
X188059605Y-73660000D01*
X187700395Y-73660000D01*
X186799841Y-72759446D01*
X186684786Y-72798207D01*
X186682068Y-72791629D01*
X186470650Y-72579841D01*
X186979446Y-72579841D01*
X187880000Y-73480395D01*
X188780554Y-72579841D01*
X188694148Y-72323357D01*
X188120664Y-72113542D01*
X187510540Y-72139161D01*
X187065852Y-72323357D01*
X186979446Y-72579841D01*
X186470650Y-72579841D01*
X186250643Y-72359449D01*
X185686670Y-72125267D01*
X185076009Y-72124735D01*
X184511629Y-72357932D01*
X184129712Y-72739182D01*
X183750643Y-72359449D01*
X183186670Y-72125267D01*
X182576009Y-72124735D01*
X182011629Y-72357932D01*
X181579449Y-72789357D01*
X181345267Y-73353330D01*
X181344735Y-73963991D01*
X167813289Y-73963991D01*
X167836458Y-73900664D01*
X167810839Y-73290540D01*
X167626643Y-72845852D01*
X167370159Y-72759446D01*
X166469605Y-73660000D01*
X166110395Y-73660000D01*
X165209841Y-72759446D01*
X165094786Y-72798207D01*
X165092068Y-72791629D01*
X164880650Y-72579841D01*
X165389446Y-72579841D01*
X166290000Y-73480395D01*
X167190554Y-72579841D01*
X167104148Y-72323357D01*
X166530664Y-72113542D01*
X165920540Y-72139161D01*
X165475852Y-72323357D01*
X165389446Y-72579841D01*
X164880650Y-72579841D01*
X164660643Y-72359449D01*
X164096670Y-72125267D01*
X163486009Y-72124735D01*
X162921629Y-72357932D01*
X162539712Y-72739182D01*
X162160643Y-72359449D01*
X161596670Y-72125267D01*
X160986009Y-72124735D01*
X160421629Y-72357932D01*
X159989449Y-72789357D01*
X159755267Y-73353330D01*
X159754735Y-73963991D01*
X155580000Y-73963991D01*
X155580000Y-66681834D01*
X156404543Y-66681834D01*
X156804853Y-67650658D01*
X157545443Y-68392542D01*
X158513567Y-68794542D01*
X159561834Y-68795457D01*
X160530658Y-68395147D01*
X161272542Y-67654557D01*
X161674542Y-66686433D01*
X161674546Y-66681834D01*
X165904543Y-66681834D01*
X166304853Y-67650658D01*
X167045443Y-68392542D01*
X168013567Y-68794542D01*
X169061834Y-68795457D01*
X170030658Y-68395147D01*
X170772542Y-67654557D01*
X171174542Y-66686433D01*
X171174546Y-66681834D01*
X177994543Y-66681834D01*
X178394853Y-67650658D01*
X179135443Y-68392542D01*
X180103567Y-68794542D01*
X181151834Y-68795457D01*
X182120658Y-68395147D01*
X182862542Y-67654557D01*
X183264542Y-66686433D01*
X183264546Y-66681834D01*
X187494543Y-66681834D01*
X187894853Y-67650658D01*
X188635443Y-68392542D01*
X189603567Y-68794542D01*
X190651834Y-68795457D01*
X191620658Y-68395147D01*
X192362542Y-67654557D01*
X192764542Y-66686433D01*
X192765457Y-65638166D01*
X192365147Y-64669342D01*
X191624557Y-63927458D01*
X190656433Y-63525458D01*
X189608166Y-63524543D01*
X188639342Y-63924853D01*
X187897458Y-64665443D01*
X187495458Y-65633567D01*
X187494543Y-66681834D01*
X183264546Y-66681834D01*
X183265457Y-65638166D01*
X182865147Y-64669342D01*
X182124557Y-63927458D01*
X181156433Y-63525458D01*
X180108166Y-63524543D01*
X179139342Y-63924853D01*
X178397458Y-64665443D01*
X177995458Y-65633567D01*
X177994543Y-66681834D01*
X171174546Y-66681834D01*
X171175457Y-65638166D01*
X170775147Y-64669342D01*
X170034557Y-63927458D01*
X169066433Y-63525458D01*
X168018166Y-63524543D01*
X167049342Y-63924853D01*
X166307458Y-64665443D01*
X165905458Y-65633567D01*
X165904543Y-66681834D01*
X161674546Y-66681834D01*
X161675457Y-65638166D01*
X161275147Y-64669342D01*
X160534557Y-63927458D01*
X159566433Y-63525458D01*
X158518166Y-63524543D01*
X157549342Y-63924853D01*
X156807458Y-64665443D01*
X156405458Y-65633567D01*
X156404543Y-66681834D01*
X155580000Y-66681834D01*
X155580000Y-62997000D01*
X193670000Y-62997000D01*
X193670000Y-112083647D01*
M02*
