M48
INCH,TZ
T1C0.016
T2C0.020
T3C0.031
T4C0.039
%
G90
G05
T1
X62000Y-59000
X62000Y-55250
X62241Y-49549
X62250Y-54000
X62250Y-55500
X62250Y-57000
X62500Y-50000
X62557Y-51943
X62634Y-56201
X62716Y-52450
X62750Y-54968
X62750Y-57500
X63000Y-49250
X63508Y-52520
X63996Y-49500
X64000Y-52700
X64250Y-51750
X64311Y-49500
X64500Y-53500
X64750Y-34000
X64750Y-57500
X64839Y-42909
X65000Y-51250
X65247Y-43800
X65250Y-54500
X65250Y-56000
X65295Y-46545
X65750Y-49500
X65892Y-59098
X66008Y-52474
X66500Y-54000
X66654Y-52182
X66750Y-43000
X66750Y-50250
X66832Y-50850
X66843Y-51930
X67250Y-45250
X67500Y-50900
X67699Y-58884
X67750Y-56500
X67900Y-55446
X68000Y-46500
X68000Y-52750
X68000Y-53750
X68146Y-42301
X68146Y-43000
X68146Y-44000
X69000Y-30600
X69050Y-26800
X69500Y-54500
X69500Y-43500
X69589Y-50949
X69591Y-43000
X69626Y-53250
X69750Y-45250
X69750Y-55500
X70250Y-54750
X70466Y-51504
X70500Y-33100
X70500Y-53750
X70656Y-54500
X70750Y-42000
X70750Y-52250
X70750Y-55750
X70750Y-57000
X70750Y-57500
X70767Y-53327
X71000Y-43000
X71082Y-52730
X71250Y-40250
X71250Y-40750
X71250Y-43250
X71477Y-49977
X71750Y-41500
X72000Y-43750
X72131Y-47270
X72250Y-55750
X72500Y-44250
X72750Y-43000
X72900Y-47600
X73191Y-37149
X73200Y-47100
X74000Y-43750
X74040Y-55710
X74300Y-43100
X76000Y-44400
T3
X62500Y-31000
X62500Y-32969
X62750Y-41250
X62750Y-43219
X66000Y-61000
X66000Y-62000
X66000Y-63000
X69000Y-47500
X69000Y-48500
X69000Y-49500
X75000Y-31000
X75000Y-32969
X75250Y-41281
X75250Y-43250
T4
X63500Y-29000
X63500Y-39750
X63500Y-50500
X64484Y-29000
X64484Y-39750
X64484Y-50500
X65469Y-29000
X65469Y-39750
X65469Y-50500
X67000Y-31500
X67000Y-32500
X68000Y-31500
X68000Y-32500
X69000Y-31500
X69000Y-32500
X70000Y-31500
X70000Y-32500
X71000Y-31500
X71000Y-32500
X72000Y-29000
X72000Y-39750
X72016Y-50500
X72984Y-29000
X72984Y-39750
X73000Y-50500
X73969Y-29000
X73969Y-39750
X73984Y-50500
T2
X63303Y-51949G85X63697Y-51949
G05
X63303Y-53169G85X63697Y-53169
G05
X63303Y-56437G85X63697Y-56437
G05
X63303Y-58449G85X63697Y-58449
G05
X63303Y-59669G85X63697Y-59669
G05
X63303Y-62937G85X63697Y-62937
G05
X68303Y-51949G85X68697Y-51949
G05
X68303Y-53169G85X68697Y-53169
G05
X68303Y-56437G85X68697Y-56437
G05
X68303Y-58449G85X68697Y-58449
G05
X68303Y-59669G85X68697Y-59669
G05
X68303Y-62937G85X68697Y-62937
G05
X73303Y-51949G85X73697Y-51949
G05
X73303Y-53169G85X73697Y-53169
G05
X73303Y-56437G85X73697Y-56437
G05
X73303Y-58449G85X73697Y-58449
G05
X73303Y-59669G85X73697Y-59669
G05
X73303Y-62937G85X73697Y-62937
G05
T0
M30
